{"glyphs":{"0":{"ha":895,"x_min":97,"x_max":812,"o":"m 465 986 q 734 866 656 986 q 812 500 812 746 q 724 118 812 250 q 452 -14 635 -14 q 183 112 269 -14 q 97 479 97 237 q 465 986 97 987 m 458 868 q 298 776 346 868 q 250 486 250 684 q 301 200 250 296 q 458 104 351 104 q 613 200 566 104 q 660 493 660 296 q 615 778 660 688 q 458 868 570 868 z "},"1":{"ha":711,"x_min":28,"x_max":676,"o":"m 109 118 l 322 118 l 322 812 l 86 660 l 28 760 l 351 972 l 468 972 l 468 118 l 676 118 l 676 0 l 109 0 l 109 118 z "},"2":{"ha":791,"x_min":62,"x_max":722,"o":"m 62 118 q 346 381 250 286 q 492 555 441 476 q 542 708 542 635 q 492 825 542 782 q 354 868 441 868 q 288 862 321 868 q 235 849 256 856 q 208 840 214 843 l 195 708 l 83 708 l 77 930 q 133 948 89 935 q 239 974 176 961 q 361 986 302 986 q 610 924 525 986 q 694 722 694 863 q 649 546 694 633 q 510 358 603 458 q 257 118 416 258 l 722 118 l 722 0 l 62 0 l 62 118 z "},"3":{"ha":764,"x_min":28,"x_max":681,"o":"m 306 562 q 458 605 401 562 q 514 729 514 647 q 465 830 514 791 q 334 868 416 868 q 262 862 296 868 q 207 849 228 856 q 180 840 186 843 l 167 715 l 56 715 l 49 930 q 105 948 61 935 q 214 974 149 961 q 340 986 279 986 q 574 927 489 986 q 660 743 660 868 q 615 593 660 653 q 479 511 570 533 q 627 430 572 492 q 681 292 681 368 q 626 115 681 183 q 488 17 571 47 q 313 -14 404 -14 q 169 2 232 -14 q 67 35 106 17 q 28 56 28 53 l 69 167 q 110 149 69 165 q 205 118 150 132 q 319 104 261 104 q 471 152 415 104 q 528 285 528 199 q 466 407 528 363 q 298 452 404 452 l 195 452 l 195 562 l 306 562 z "},"4":{"ha":847,"x_min":28,"x_max":791,"o":"m 632 347 l 791 347 l 791 229 l 632 229 l 632 0 l 489 0 l 489 229 l 41 229 l 28 334 l 472 993 l 632 972 l 632 347 m 489 806 l 180 347 l 489 347 l 489 806 z "},"5":{"ha":736,"x_min":28,"x_max":667,"o":"m 220 590 l 264 590 q 480 553 389 590 q 619 451 571 517 q 667 298 667 385 q 617 129 667 200 q 487 22 567 58 q 319 -14 407 -14 q 174 2 239 -14 q 69 35 110 17 q 28 56 28 53 l 69 167 q 107 149 69 165 q 200 118 146 132 q 313 104 254 104 q 455 154 396 104 q 514 292 514 203 q 438 431 514 383 q 229 479 363 479 l 83 479 l 102 972 l 628 972 l 624 854 l 232 854 l 220 590 z "},"6":{"ha":833,"x_min":83,"x_max":771,"o":"m 688 861 q 652 865 681 863 q 583 868 623 868 q 361 792 439 868 q 260 637 283 717 q 236 528 236 558 q 271 548 236 529 q 358 582 306 567 q 472 597 411 597 q 622 563 554 597 q 731 462 690 528 q 771 306 771 396 q 726 138 771 212 q 604 26 681 65 q 437 -14 528 -14 q 173 102 262 -14 q 83 410 83 218 q 140 709 83 579 q 311 912 197 839 q 590 986 425 986 q 664 980 633 986 q 694 972 694 974 l 688 861 m 229 375 q 288 171 229 237 q 437 104 347 104 q 574 154 522 104 q 625 292 625 204 q 575 432 625 385 q 431 479 525 479 q 336 466 380 479 q 260 435 292 452 q 229 416 229 418 l 229 375 z "},"7":{"ha":697,"x_min":7,"x_max":673,"o":"m 302 0 l 143 0 l 511 847 l 139 847 l 111 715 l 7 715 l 7 972 l 673 972 l 673 868 l 302 0 z "},"8":{"ha":819,"x_min":69,"x_max":750,"o":"m 736 736 q 678 592 736 646 q 557 515 621 539 q 699 423 647 478 q 750 278 750 368 q 708 128 750 195 q 585 24 665 61 q 396 -14 504 -14 q 154 63 239 -14 q 69 264 69 140 q 133 422 69 362 q 261 510 197 482 q 140 598 183 549 q 97 729 97 648 q 186 921 97 855 q 431 986 275 986 q 657 917 578 986 q 736 736 736 848 m 243 729 q 269 650 243 682 q 336 598 296 618 q 441 555 376 579 q 542 618 494 575 q 590 729 590 661 q 544 830 590 793 q 416 868 498 868 q 289 830 334 868 q 243 729 243 793 m 597 271 q 569 353 597 319 q 498 409 541 387 q 382 460 456 431 q 272 389 322 432 q 222 271 222 346 q 272 149 222 193 q 410 106 321 106 q 548 150 498 106 q 597 271 597 193 z "},"9":{"ha":833,"x_min":62,"x_max":750,"o":"m 146 111 q 186 107 154 110 q 257 104 218 104 q 481 181 406 104 q 577 337 557 258 q 597 452 597 415 q 563 431 597 450 q 475 397 528 412 q 361 382 422 382 q 211 414 279 382 q 103 512 143 447 q 62 667 62 576 q 107 837 62 764 q 229 948 153 909 q 396 986 304 986 q 661 870 571 986 q 750 562 750 754 q 695 262 750 391 q 528 59 640 132 q 250 -14 415 -14 q 173 -7 208 -14 q 139 0 139 -1 l 146 111 m 604 604 q 545 803 604 737 q 396 868 486 868 q 260 818 311 868 q 208 681 208 768 q 403 500 208 500 q 497 514 453 500 q 573 544 542 528 q 604 562 604 561 l 604 604 z "},"\r":{"ha":319,"x_min":0,"x_max":0,"o":""}," ":{"ha":319,"x_min":0,"x_max":0,"o":""},"!":{"ha":444,"x_min":132,"x_max":313,"o":"m 146 1042 l 306 1042 l 285 347 l 167 340 l 146 1042 m 132 83 q 158 155 132 129 q 222 180 184 180 q 288 155 264 180 q 313 83 313 129 q 287 13 313 39 q 222 -14 261 -14 q 157 12 181 -14 q 132 83 132 37 z "},"\"":{"ha":538,"x_min":90,"x_max":463,"o":"m 90 1069 l 222 1069 l 195 722 l 90 722 l 90 1069 m 329 1069 l 463 1069 l 433 722 l 329 722 l 329 1069 z "},"#":{"ha":958,"x_min":90,"x_max":868,"o":"m 319 833 l 431 833 l 401 618 l 603 618 l 632 833 l 743 833 l 714 618 l 868 618 l 868 528 l 701 528 l 675 326 l 833 326 l 833 236 l 663 236 l 632 0 l 521 0 l 551 236 l 350 236 l 319 0 l 208 0 l 239 236 l 90 236 l 90 326 l 252 326 l 278 528 l 125 528 l 125 618 l 290 618 l 319 833 m 590 528 l 389 528 l 363 326 l 564 326 l 590 528 z "},"$":{"ha":757,"x_min":90,"x_max":681,"o":"m 334 -14 q 221 -2 275 -12 q 133 19 167 8 q 90 35 98 31 l 90 257 l 187 257 l 215 129 q 236 120 219 126 q 282 108 253 114 q 347 102 311 102 q 486 134 428 102 q 543 229 543 167 q 519 296 543 269 q 458 341 494 323 q 357 380 422 358 q 221 436 272 410 q 134 512 171 463 q 97 639 97 561 q 163 805 97 745 q 334 880 229 865 l 334 1042 l 437 1042 l 437 885 q 537 870 488 881 q 620 847 587 859 q 660 833 652 836 l 653 625 l 570 625 l 534 750 q 510 759 529 753 q 463 771 492 765 q 403 778 433 778 q 280 744 323 778 q 236 660 236 710 q 261 592 236 620 q 323 546 286 564 q 427 504 361 528 q 558 449 507 475 q 645 376 610 422 q 681 257 681 329 q 613 80 681 147 q 437 -5 546 14 l 437 -195 l 334 -195 l 334 -14 z "},"%":{"ha":1132,"x_min":62,"x_max":1055,"o":"m 62 736 q 126 919 62 852 q 292 986 191 986 q 448 926 389 986 q 507 750 507 865 q 444 565 507 629 q 278 500 380 500 q 121 558 180 500 q 62 736 62 616 m 340 0 l 215 0 l 778 972 l 903 972 l 340 0 m 167 743 q 285 590 167 590 q 403 743 403 590 q 374 855 403 814 q 285 896 345 896 q 196 855 225 896 q 167 743 167 814 m 611 222 q 675 406 611 339 q 840 472 739 472 q 996 412 937 472 q 1055 236 1055 351 q 992 51 1055 115 q 827 -14 929 -14 q 670 45 728 -14 q 611 222 611 103 m 715 229 q 833 77 715 77 q 951 229 951 77 q 922 341 951 300 q 833 382 893 382 q 745 341 774 382 q 715 229 715 300 z "},"&":{"ha":930,"x_min":97,"x_max":875,"o":"m 764 292 q 673 67 764 147 q 424 -14 582 -14 q 178 63 258 -14 q 97 271 97 139 q 139 402 97 345 q 233 496 180 460 q 285 528 285 532 q 239 547 285 524 q 157 616 193 570 q 121 736 121 663 q 206 923 121 861 q 444 986 292 986 q 557 974 498 986 q 657 948 616 961 q 708 930 697 935 l 701 736 l 612 736 l 583 847 q 561 853 579 848 q 508 863 542 859 q 431 868 473 868 q 306 830 349 868 q 264 729 264 793 q 317 614 264 659 q 444 570 370 570 l 875 570 l 875 486 l 764 458 l 764 292 m 437 458 q 341 435 386 458 q 269 370 296 411 q 243 278 243 329 q 294 148 243 192 q 437 104 346 104 q 576 151 526 104 q 625 285 625 197 l 625 458 l 437 458 z "},"'":{"ha":284,"x_min":77,"x_max":208,"o":"m 77 1069 l 208 1069 l 180 722 l 77 722 l 77 1069 z "},"(":{"ha":458,"x_min":103,"x_max":458,"o":"m 458 1069 q 300 738 358 917 q 241 396 241 559 q 298 19 241 214 q 457 -319 355 -176 l 334 -319 q 158 15 213 -151 q 103 389 103 182 q 158 740 103 585 q 334 1069 212 895 l 458 1069 z "},")":{"ha":458,"x_min":-1,"x_max":354,"o":"m 123 1069 q 299 740 244 895 q 354 389 354 585 q 299 15 354 182 q 123 -319 244 -151 l 0 -319 q 158 19 102 -176 q 215 396 215 214 q 157 739 215 560 q -1 1069 98 917 l 123 1069 z "},"*":{"ha":559,"x_min":35,"x_max":504,"o":"m 236 846 l 218 1018 l 319 1021 l 310 844 l 272 814 l 236 846 m 310 844 l 469 913 l 504 815 l 330 775 l 290 802 l 310 844 m 212 778 l 35 812 l 68 909 l 236 846 l 254 802 l 212 778 m 271 733 l 180 576 l 97 635 l 212 778 l 261 781 l 271 733 m 447 637 l 367 576 l 271 733 l 283 781 l 330 775 l 447 637 z "},"+":{"ha":861,"x_min":69,"x_max":791,"o":"m 372 736 l 490 736 l 490 424 l 791 424 l 791 313 l 490 313 l 490 0 l 372 0 l 372 313 l 69 313 l 69 424 l 372 424 l 372 736 z "},",":{"ha":368,"x_min":56,"x_max":278,"o":"m 97 87 q 122 154 97 127 q 187 180 147 180 q 253 156 227 180 q 278 78 278 132 q 235 -57 278 21 q 118 -214 192 -135 l 56 -161 q 78 -128 61 -155 q 112 -69 96 -102 q 129 -14 129 -36 q 117 22 129 0 q 97 87 97 58 z "},"-":{"ha":521,"x_min":83,"x_max":444,"o":"m 444 319 l 83 319 l 83 437 l 444 437 l 444 319 z "},".":{"ha":361,"x_min":90,"x_max":271,"o":"m 90 83 q 117 155 90 129 q 180 180 143 180 q 246 155 222 180 q 271 83 271 129 q 245 13 271 39 q 180 -14 220 -14 q 115 12 139 -14 q 90 83 90 37 z "},"/":{"ha":703,"x_min":56,"x_max":661,"o":"m 201 0 l 56 0 l 515 972 l 661 972 l 201 0 z "},":":{"ha":389,"x_min":104,"x_max":285,"o":"m 104 534 q 131 606 104 581 q 195 632 157 632 q 260 606 236 632 q 285 534 285 581 q 259 464 285 490 q 195 437 233 437 q 129 463 153 437 q 104 534 104 489 m 104 83 q 131 155 104 129 q 195 180 157 180 q 260 155 236 180 q 285 83 285 129 q 259 13 285 39 q 195 -14 233 -14 q 129 12 153 -14 q 104 83 104 37 z "},";":{"ha":389,"x_min":62,"x_max":285,"o":"m 103 534 q 129 606 103 581 q 193 632 155 632 q 259 606 235 632 q 283 534 283 581 q 258 464 283 490 q 193 437 232 437 q 127 463 152 437 q 103 534 103 489 m 125 -214 q 242 -57 199 -135 q 285 78 285 21 q 260 156 285 132 q 195 180 235 180 q 130 154 155 180 q 104 87 104 127 q 123 22 104 58 q 136 -14 136 0 q 120 -69 136 -36 q 85 -128 103 -102 q 62 -161 68 -154 l 125 -214 z "},"<":{"ha":847,"x_min":69,"x_max":778,"o":"m 69 319 l 69 416 l 778 736 l 778 618 l 222 368 l 778 111 l 778 -7 l 69 319 z "},"=":{"ha":833,"x_min":77,"x_max":757,"o":"m 757 458 l 77 458 l 77 570 l 757 570 l 757 458 m 757 187 l 77 187 l 77 298 l 757 298 l 757 187 z "},">":{"ha":847,"x_min":69,"x_max":778,"o":"m 69 736 l 778 416 l 778 319 l 69 -7 l 69 111 l 625 368 l 69 618 l 69 736 z "},"?":{"ha":668,"x_min":118,"x_max":578,"o":"m 199 317 q 192 379 197 332 q 186 453 186 427 q 213 524 186 490 q 297 607 240 557 q 398 708 363 665 q 432 806 432 751 q 396 890 432 863 q 286 917 359 917 q 198 909 243 917 q 140 899 153 901 l 118 1003 q 151 1013 125 1006 q 217 1028 178 1021 q 293 1035 256 1035 q 498 985 418 1035 q 578 819 578 935 q 556 719 578 765 q 505 640 534 673 q 425 559 475 607 q 347 479 372 511 q 321 411 321 447 q 322 355 321 378 q 323 325 323 332 l 199 317 m 182 83 q 208 155 182 129 q 272 180 235 180 q 338 155 313 180 q 363 83 363 129 q 337 13 363 39 q 272 -14 311 -14 q 206 12 231 -14 q 182 83 182 37 z "},"@":{"ha":1139,"x_min":90,"x_max":1055,"o":"m 390 725 q 429 738 399 728 q 502 759 458 749 q 585 768 545 768 q 719 729 675 768 q 762 608 762 690 l 762 359 q 780 314 762 330 q 828 298 798 298 q 913 351 882 298 q 945 493 945 403 q 900 699 945 611 q 771 834 854 787 q 576 882 688 882 q 376 834 461 882 q 247 697 292 786 q 201 486 201 608 q 293 195 201 299 q 549 90 385 90 q 626 98 589 90 q 686 114 663 106 q 715 125 710 122 l 771 41 q 740 25 771 40 q 657 -1 708 11 q 542 -14 606 -14 q 207 113 323 -14 q 90 479 90 240 q 151 745 90 631 q 324 923 212 860 q 583 986 436 986 q 834 927 728 986 q 998 758 940 868 q 1055 500 1055 648 q 992 291 1055 368 q 821 215 929 215 q 731 235 765 215 q 683 278 697 256 q 669 307 669 301 q 643 283 669 306 q 581 240 616 260 q 505 221 545 221 q 391 260 430 221 q 351 376 351 300 q 407 492 351 454 q 576 530 463 530 l 652 530 l 652 597 q 557 673 652 674 q 500 667 533 673 q 445 654 467 660 q 415 646 422 648 l 390 725 m 585 456 q 488 437 517 456 q 460 376 460 419 q 479 330 460 347 q 532 313 498 313 q 587 327 561 313 q 630 356 614 340 q 652 375 647 371 l 652 456 l 585 456 z "},"A":{"ha":1006,"x_min":7,"x_max":1000,"o":"m 437 965 l 576 972 l 885 110 l 1000 83 l 1000 0 l 597 0 l 597 83 l 726 110 l 673 264 l 313 264 l 258 110 l 389 83 l 389 0 l 7 0 l 7 83 l 121 110 l 437 965 m 496 793 l 350 375 l 636 375 l 496 793 z "},"B":{"ha":875,"x_min":56,"x_max":806,"o":"m 174 861 l 56 889 l 56 965 l 313 972 l 472 972 q 690 911 608 972 q 771 729 771 850 q 590 504 771 550 q 751 421 697 479 q 806 278 806 363 q 716 67 806 135 q 452 0 627 0 l 56 0 l 56 83 l 174 111 l 174 861 m 416 555 q 570 595 514 555 q 625 715 625 635 q 581 824 625 786 q 465 861 536 861 l 313 861 l 313 555 l 416 555 m 458 111 q 608 152 557 111 q 660 271 660 193 q 599 411 660 370 q 416 452 538 452 l 313 452 l 313 111 l 458 111 z "},"C":{"ha":923,"x_min":83,"x_max":875,"o":"m 713 840 q 683 849 707 843 q 620 862 660 856 q 534 868 581 868 q 318 766 394 868 q 243 472 243 664 q 324 201 243 292 q 542 111 406 111 q 669 136 607 111 q 775 191 730 161 q 819 222 819 220 l 875 132 q 825 90 875 128 q 698 19 775 52 q 528 -14 621 -14 q 200 110 317 -14 q 83 465 83 233 q 140 741 83 623 q 302 922 197 859 q 549 986 407 986 q 686 971 616 986 q 808 937 755 956 q 861 917 861 918 l 854 681 l 750 681 l 713 840 z "},"D":{"ha":1014,"x_min":62,"x_max":937,"o":"m 180 861 l 62 889 l 62 965 l 326 972 l 500 972 q 821 849 705 972 q 937 500 937 726 q 881 235 937 349 q 721 61 825 122 q 479 0 616 0 l 62 0 l 62 83 l 180 111 l 180 861 m 486 111 q 700 206 623 111 q 778 493 778 301 q 703 771 778 680 q 493 861 628 861 l 326 861 l 326 111 l 486 111 z "},"E":{"ha":854,"x_min":69,"x_max":771,"o":"m 653 562 l 653 452 l 334 452 l 334 111 l 653 111 l 681 250 l 771 250 l 771 0 l 69 0 l 69 83 l 187 111 l 187 861 l 69 889 l 69 965 l 334 972 l 757 972 l 757 736 l 667 736 l 632 861 l 334 861 l 334 562 l 653 562 z "},"F":{"ha":791,"x_min":56,"x_max":743,"o":"m 639 549 l 639 437 l 319 437 l 319 111 l 458 83 l 458 0 l 56 0 l 56 83 l 174 111 l 174 861 l 56 889 l 56 965 l 319 972 l 743 972 l 743 743 l 653 743 l 618 861 l 319 861 l 319 549 l 639 549 z "},"G":{"ha":1042,"x_min":83,"x_max":986,"o":"m 882 69 q 830 45 882 66 q 699 5 778 24 q 528 -14 619 -14 q 200 110 317 -14 q 83 465 83 233 q 140 741 83 623 q 302 922 197 859 q 549 986 407 986 q 686 971 616 986 q 808 937 755 956 q 861 917 861 918 l 854 688 l 764 688 l 722 840 q 690 849 715 843 q 622 862 664 856 q 534 868 581 868 q 318 766 394 868 q 243 472 243 664 q 326 197 243 290 q 549 104 408 104 q 634 112 591 104 q 707 128 677 119 q 743 139 736 136 l 743 367 l 625 395 l 625 471 l 986 478 l 986 395 l 882 367 l 882 69 z "},"H":{"ha":1104,"x_min":56,"x_max":1048,"o":"m 56 83 l 174 111 l 174 861 l 56 889 l 56 965 l 452 972 l 452 889 l 319 861 l 319 555 l 785 555 l 785 861 l 653 889 l 653 965 l 1048 972 l 1048 889 l 930 861 l 930 111 l 1048 83 l 1048 0 l 653 0 l 653 83 l 785 111 l 785 444 l 319 444 l 319 111 l 452 83 l 452 0 l 56 0 l 56 83 z "},"I":{"ha":507,"x_min":62,"x_max":444,"o":"m 62 83 l 180 111 l 180 861 l 62 889 l 62 965 l 444 972 l 444 889 l 326 861 l 326 111 l 444 83 l 444 0 l 62 0 l 62 83 z "},"J":{"ha":498,"x_min":-28,"x_max":443,"o":"m 325 861 l 325 62 q 255 -136 325 -64 q 61 -208 184 -208 q 9 -205 39 -208 q -28 -201 -20 -203 l -16 -97 l 54 -97 q 149 -64 119 -97 q 179 35 179 -31 l 179 861 l 61 889 l 61 965 l 443 972 l 443 889 l 325 861 z "},"K":{"ha":958,"x_min":62,"x_max":979,"o":"m 62 83 l 180 111 l 180 861 l 62 889 l 62 965 l 458 972 l 458 889 l 326 861 l 326 555 l 454 555 l 694 965 l 924 972 l 924 889 l 786 861 l 575 510 l 861 111 l 979 83 l 979 0 l 583 0 l 583 83 l 701 111 l 463 444 l 326 444 l 326 111 l 458 83 l 458 0 l 62 0 l 62 83 z "},"L":{"ha":736,"x_min":49,"x_max":722,"o":"m 625 271 l 722 271 l 722 0 l 49 0 l 49 83 l 167 111 l 167 861 l 49 889 l 49 965 l 431 972 l 431 889 l 313 861 l 313 111 l 597 111 l 625 271 z "},"M":{"ha":1229,"x_min":56,"x_max":1174,"o":"m 917 806 l 875 701 l 660 264 l 549 257 l 334 708 l 298 806 l 298 111 l 431 83 l 431 0 l 56 0 l 56 83 l 174 111 l 174 861 l 56 889 l 56 965 l 368 972 l 619 416 l 882 965 l 1174 972 l 1174 889 l 1055 861 l 1055 111 l 1174 83 l 1174 0 l 785 0 l 785 83 l 917 111 l 917 806 z "},"N":{"ha":1097,"x_min":56,"x_max":1048,"o":"m 431 83 l 431 0 l 56 0 l 56 83 l 174 111 l 174 861 l 56 889 l 56 965 l 347 972 l 806 196 l 806 861 l 688 889 l 688 965 l 1048 972 l 1048 889 l 930 861 l 930 0 l 757 0 l 298 765 l 298 111 l 431 83 z "},"O":{"ha":1048,"x_min":83,"x_max":965,"o":"m 534 986 q 765 927 668 986 q 914 758 863 868 q 965 500 965 648 q 907 232 965 349 q 746 51 850 115 q 507 -14 642 -14 q 193 113 303 -14 q 83 479 83 240 q 138 746 83 631 q 295 924 193 861 q 534 986 397 986 m 528 868 q 316 774 389 868 q 243 486 243 681 q 311 201 243 297 q 514 104 379 104 q 729 202 653 104 q 806 493 806 300 q 735 773 806 679 q 528 868 664 868 z "},"P":{"ha":819,"x_min":56,"x_max":785,"o":"m 174 861 l 56 889 l 56 965 l 319 972 l 465 972 q 702 896 619 972 q 785 688 785 819 q 687 444 785 528 q 410 361 589 361 l 319 361 l 319 111 l 437 83 l 437 0 l 56 0 l 56 83 l 174 111 l 174 861 m 410 472 q 581 522 524 472 q 639 667 639 572 q 592 807 639 753 q 458 861 545 861 l 319 861 l 319 472 l 410 472 z "},"Q":{"ha":1027,"x_min":83,"x_max":1146,"o":"m 1146 -174 q 1097 -200 1135 -180 q 1012 -238 1060 -220 q 930 -257 964 -257 q 853 -238 895 -257 q 750 -180 812 -218 l 473 -11 q 185 129 286 3 q 83 479 83 254 q 142 745 83 631 q 306 923 200 860 q 549 986 411 986 q 867 856 754 986 q 979 500 979 726 q 895 182 979 313 q 663 7 810 52 l 812 -83 q 892 -124 857 -110 q 958 -139 926 -139 q 1010 -128 981 -139 q 1061 -105 1039 -117 q 1090 -90 1083 -94 l 1146 -174 m 542 868 q 315 772 393 868 q 236 486 236 676 q 310 203 236 302 q 528 104 383 104 q 750 203 673 104 q 827 493 827 301 q 542 868 827 868 z "},"R":{"ha":903,"x_min":56,"x_max":896,"o":"m 174 861 l 56 889 l 56 965 l 319 972 l 472 972 q 702 906 619 972 q 785 722 785 839 q 604 452 785 518 q 688 326 637 422 l 798 106 l 896 83 l 896 0 l 688 0 l 570 257 q 511 363 536 329 q 458 411 486 397 q 382 424 429 424 l 319 424 l 319 111 l 437 83 l 437 0 l 56 0 l 56 83 l 174 111 l 174 861 m 424 528 q 582 573 525 528 q 639 701 639 619 q 590 816 639 770 q 465 861 542 861 l 319 861 l 319 528 l 424 528 z "},"S":{"ha":829,"x_min":97,"x_max":746,"o":"m 236 139 q 261 128 241 136 q 315 112 281 119 q 389 104 349 104 q 537 144 472 104 q 602 253 602 183 q 574 328 602 298 q 505 377 546 358 q 392 422 464 396 q 240 485 298 456 q 141 569 182 514 q 100 710 100 624 q 194 917 100 848 q 429 986 288 986 q 553 974 488 986 q 664 948 618 961 q 722 930 710 935 l 715 694 l 625 694 l 578 843 q 551 851 572 844 q 497 863 530 857 q 431 868 464 868 q 294 828 342 868 q 245 733 245 789 q 273 658 245 688 q 343 608 301 628 q 460 562 385 589 q 608 502 550 530 q 706 421 665 473 q 746 290 746 370 q 697 122 746 191 q 566 20 648 53 q 383 -14 484 -14 q 255 -1 318 -14 q 150 24 192 11 q 97 41 109 37 l 97 285 l 208 285 l 236 139 z "},"T":{"ha":785,"x_min":14,"x_max":771,"o":"m 180 83 l 319 111 l 319 861 l 139 861 l 104 722 l 14 722 l 14 972 l 771 972 l 771 722 l 681 722 l 646 861 l 465 861 l 465 111 l 604 83 l 604 0 l 180 0 l 180 83 z "},"U":{"ha":1097,"x_min":56,"x_max":1042,"o":"m 924 396 q 838 89 924 192 q 542 -14 751 -14 q 258 81 343 -14 q 174 375 174 176 l 174 861 l 56 889 l 56 965 l 452 972 l 452 889 l 319 861 l 319 375 q 343 212 319 271 q 417 129 367 154 q 549 104 467 104 q 685 132 636 104 q 756 223 734 160 q 778 396 778 286 l 778 861 l 646 889 l 646 965 l 1042 972 l 1042 889 l 924 861 l 924 396 z "},"V":{"ha":972,"x_min":7,"x_max":965,"o":"m 7 965 l 396 972 l 396 889 l 269 863 l 488 187 l 720 861 l 590 889 l 590 965 l 965 972 l 965 889 l 857 861 l 549 0 l 410 0 l 114 861 l 7 889 l 7 965 z "},"W":{"ha":1437,"x_min":7,"x_max":1430,"o":"m 7 965 l 396 972 l 396 889 l 275 861 l 424 232 l 653 965 l 785 972 l 1010 216 l 1182 861 l 1055 889 l 1055 965 l 1430 972 l 1430 889 l 1321 861 l 1076 0 l 924 0 l 757 639 l 717 789 l 673 632 l 486 0 l 347 0 l 115 861 l 7 889 l 7 965 z "},"X":{"ha":972,"x_min":14,"x_max":958,"o":"m 396 493 l 139 861 l 35 889 l 35 965 l 403 972 l 403 889 l 313 861 l 493 597 l 673 861 l 576 889 l 576 965 l 945 972 l 945 889 l 819 861 l 570 500 l 840 111 l 958 83 l 958 0 l 583 0 l 583 83 l 667 104 l 472 389 l 264 111 l 382 83 l 382 0 l 14 0 l 14 83 l 104 104 l 396 493 z "},"Y":{"ha":895,"x_min":14,"x_max":882,"o":"m 375 359 l 107 863 l 14 889 l 14 965 l 361 972 l 361 889 l 267 861 l 452 472 l 656 861 l 549 889 l 549 965 l 882 972 l 882 889 l 796 864 l 521 363 l 521 111 l 639 83 l 639 0 l 257 0 l 257 83 l 375 111 l 375 359 z "},"Z":{"ha":854,"x_min":56,"x_max":799,"o":"m 243 111 l 673 111 l 701 250 l 791 250 l 791 0 l 56 0 l 56 97 l 611 861 l 222 861 l 187 722 l 97 722 l 97 972 l 799 972 l 799 875 l 243 111 z "},"[":{"ha":479,"x_min":125,"x_max":424,"o":"m 125 1069 l 424 1063 l 424 972 l 257 957 l 257 -207 l 424 -222 l 424 -313 l 125 -319 l 125 1069 z "},"\\":{"ha":703,"x_min":41,"x_max":647,"o":"m 41 972 l 187 972 l 647 0 l 501 0 l 41 972 z "},"]":{"ha":479,"x_min":56,"x_max":354,"o":"m 222 -207 l 222 957 l 56 972 l 56 1063 l 354 1069 l 354 -319 l 56 -313 l 56 -222 l 222 -207 z "},"^":{"ha":791,"x_min":83,"x_max":708,"o":"m 347 972 l 444 972 l 708 444 l 587 444 l 392 833 l 201 444 l 83 444 l 347 972 z "},"_":{"ha":694,"x_min":-3,"x_max":697,"o":"m 697 -208 l -3 -208 l -3 -111 l 697 -111 l 697 -208 z "},"`":{"ha":340,"x_min":0,"x_max":340,"o":"m 340 896 l 292 827 l 0 1007 l 69 1111 l 340 896 z "},"a":{"ha":785,"x_min":62,"x_max":743,"o":"m 104 694 q 159 712 115 699 q 262 738 203 725 q 375 750 322 750 q 567 700 501 750 q 632 534 632 650 l 632 111 l 743 83 l 743 7 l 528 0 l 498 97 q 395 19 454 52 q 271 -14 336 -14 q 117 41 172 -14 q 62 195 62 96 q 145 360 62 310 q 382 410 228 410 l 493 410 l 493 521 q 459 614 493 582 q 361 646 425 646 q 292 641 323 646 q 243 631 261 636 q 221 625 225 627 l 201 521 l 111 521 l 104 694 m 396 319 q 249 292 293 319 q 204 201 204 264 q 231 125 204 154 q 306 97 258 97 q 393 122 352 97 q 464 176 435 147 q 493 208 493 205 l 493 319 l 396 319 z "},"b":{"ha":819,"x_min":7,"x_max":757,"o":"m 257 669 q 465 750 359 750 q 684 653 611 750 q 757 389 757 557 q 713 178 757 269 q 583 37 669 87 q 375 -14 497 -14 q 250 -6 307 -14 q 160 10 193 1 q 118 21 126 18 l 118 958 l 7 986 l 7 1063 l 257 1069 l 257 669 m 257 111 q 294 103 257 110 q 396 97 332 97 q 561 174 510 97 q 611 375 611 250 q 569 568 611 497 q 437 639 526 639 q 341 619 382 639 q 279 576 301 599 q 257 549 257 553 l 257 111 z "},"c":{"ha":708,"x_min":56,"x_max":681,"o":"m 534 625 q 489 633 525 628 q 410 639 453 639 q 256 574 310 639 q 201 382 201 510 q 258 170 201 243 q 416 97 315 97 q 523 116 475 97 q 602 156 571 135 q 632 180 632 178 l 681 97 q 638 65 681 94 q 533 11 595 36 q 403 -14 471 -14 q 144 87 233 -14 q 56 368 56 187 q 100 566 56 479 q 226 702 144 653 q 416 750 307 750 q 525 738 472 750 q 611 712 578 725 q 653 694 644 699 l 646 507 l 555 507 l 534 625 z "},"d":{"ha":854,"x_min":62,"x_max":819,"o":"m 819 7 l 583 0 l 572 79 q 354 -14 479 -14 q 135 83 208 -14 q 62 347 62 179 q 156 641 62 532 q 431 750 249 750 q 562 728 498 750 l 562 958 l 444 986 l 444 1063 l 701 1069 l 701 111 l 819 83 l 819 7 m 562 611 q 542 620 558 614 q 492 633 525 627 q 416 639 460 639 q 208 361 208 639 q 251 168 208 239 q 382 97 293 97 q 475 120 435 97 q 539 170 515 143 q 562 201 562 197 l 562 611 z "},"e":{"ha":749,"x_min":56,"x_max":688,"o":"m 201 347 q 257 165 201 233 q 403 97 313 97 q 516 114 464 97 q 602 151 568 131 q 636 174 636 171 l 685 102 q 640 68 685 99 q 529 12 595 37 q 389 -14 463 -14 q 140 85 224 -14 q 56 361 56 184 q 99 559 56 471 q 219 699 142 648 q 396 750 297 750 q 688 424 688 750 q 685 379 688 401 q 681 350 682 357 l 201 347 m 541 452 q 504 589 541 536 q 389 642 468 642 q 261 587 308 642 q 207 452 214 533 l 541 452 z "},"f":{"ha":576,"x_min":62,"x_max":653,"o":"m 187 812 q 254 1011 187 939 q 444 1083 321 1083 q 549 1072 503 1083 q 625 1049 596 1061 q 653 1035 653 1036 l 653 861 l 555 861 l 534 972 q 506 977 529 974 q 452 979 482 979 q 354 944 382 979 q 326 840 326 908 l 326 729 l 510 729 l 505 625 l 326 625 l 326 111 l 465 77 l 465 0 l 69 0 l 69 77 l 187 111 l 187 625 l 62 625 l 62 715 l 187 729 l 187 812 z "},"g":{"ha":812,"x_min":62,"x_max":778,"o":"m 643 633 q 655 613 646 629 q 672 565 664 596 q 681 493 681 533 q 599 290 681 357 q 375 222 517 222 q 307 227 336 222 q 271 235 278 232 l 264 104 l 479 104 q 686 53 616 104 q 757 -97 757 1 q 665 -281 757 -215 q 396 -347 574 -347 q 151 -301 239 -347 q 62 -146 62 -254 q 95 -51 62 -90 q 168 9 127 -12 q 208 28 208 31 q 185 33 208 26 q 144 58 163 40 q 125 107 125 75 q 141 163 125 128 q 174 227 157 197 q 197 264 192 256 q 168 285 197 260 q 114 358 138 310 q 90 479 90 406 q 173 681 90 612 q 396 750 256 750 q 467 745 436 750 q 514 733 497 739 q 534 724 530 726 l 778 729 l 778 653 l 643 633 m 389 653 q 268 612 307 653 q 229 486 229 571 q 268 365 229 410 q 382 319 307 319 q 504 359 465 319 q 542 486 542 399 q 504 610 542 567 q 389 653 465 653 m 292 0 q 267 -15 292 3 q 221 -60 241 -32 q 201 -125 201 -87 q 255 -218 201 -193 q 416 -243 309 -243 q 574 -210 522 -243 q 625 -111 625 -178 q 580 -24 625 -47 q 444 0 534 0 l 292 0 z "},"h":{"ha":903,"x_min":35,"x_max":861,"o":"m 292 650 q 401 719 336 688 q 534 750 467 750 q 701 684 646 750 q 757 500 757 618 l 757 111 l 861 77 l 861 0 l 528 0 l 528 77 l 618 110 l 618 486 q 590 597 618 562 q 497 632 562 632 q 398 607 444 632 q 322 553 353 582 q 292 521 292 524 l 292 111 l 382 77 l 382 0 l 35 0 l 35 77 l 153 111 l 153 958 l 35 986 l 35 1063 l 292 1069 l 292 650 z "},"i":{"ha":465,"x_min":56,"x_max":416,"o":"m 146 965 q 172 1037 146 1011 q 236 1063 199 1063 q 326 965 326 1063 q 298 894 326 920 q 236 868 271 868 q 170 894 195 868 q 146 965 146 920 m 416 0 l 56 0 l 56 77 l 174 111 l 174 625 l 56 653 l 56 729 l 313 736 l 313 111 l 416 77 l 416 0 z "},"j":{"ha":401,"x_min":-56,"x_max":297,"o":"m 117 965 q 143 1037 117 1011 q 207 1063 170 1063 q 297 965 297 1063 q 269 894 297 920 q 207 868 241 868 q 141 894 165 868 q 117 965 117 920 m 290 -62 q 223 -261 290 -189 q 33 -334 157 -334 q -18 -331 11 -334 q -56 -326 -47 -328 l -43 -229 l 26 -229 q 123 -194 96 -229 q 151 -90 151 -158 l 151 625 l 33 653 l 33 729 l 290 736 l 290 -62 z "},"k":{"ha":805,"x_min":35,"x_max":799,"o":"m 514 633 l 452 653 l 452 729 l 757 736 l 757 653 l 659 636 l 657 636 l 514 424 l 693 111 l 694 111 l 799 77 l 799 0 l 611 0 l 412 354 l 292 354 l 292 111 l 382 77 l 382 0 l 35 0 l 35 77 l 153 111 l 153 958 l 35 986 l 35 1063 l 292 1069 l 292 458 l 410 458 l 514 633 z "},"l":{"ha":426,"x_min":35,"x_max":419,"o":"m 419 0 l 35 0 l 35 77 l 153 111 l 153 958 l 35 986 l 35 1063 l 294 1069 l 294 111 l 419 77 l 419 0 z "},"m":{"ha":1361,"x_min":56,"x_max":1320,"o":"m 297 637 q 406 712 336 675 q 549 750 475 750 q 742 631 689 750 q 847 708 777 665 q 1000 750 918 750 q 1163 685 1112 750 q 1215 500 1215 619 l 1215 111 l 1320 77 l 1320 0 l 986 0 l 986 77 l 1076 111 l 1076 486 q 1050 597 1076 563 q 958 632 1023 632 q 862 607 905 632 q 791 553 819 582 q 764 521 764 524 l 764 111 l 854 77 l 854 0 l 534 0 l 534 77 l 625 111 l 625 486 q 599 597 625 563 q 507 632 572 632 q 411 607 454 632 q 340 553 368 582 q 313 521 313 524 l 313 111 l 403 77 l 403 0 l 56 0 l 56 77 l 174 111 l 174 625 l 56 653 l 56 729 l 285 736 l 297 637 z "},"n":{"ha":923,"x_min":56,"x_max":882,"o":"m 297 637 q 411 712 340 675 q 555 750 481 750 q 722 684 667 750 q 778 500 778 618 l 778 111 l 882 77 l 882 0 l 549 0 l 549 77 l 639 111 l 639 486 q 610 597 639 562 q 514 632 581 632 q 417 607 461 632 q 342 553 372 582 q 313 521 313 524 l 313 111 l 403 77 l 403 0 l 56 0 l 56 77 l 174 111 l 174 625 l 56 653 l 56 729 l 285 736 l 297 637 z "},"o":{"ha":791,"x_min":56,"x_max":736,"o":"m 410 750 q 650 651 564 750 q 736 382 736 551 q 693 175 736 265 q 571 36 650 85 q 389 -14 492 -14 q 143 81 231 -14 q 56 361 56 176 q 101 566 56 477 q 226 702 146 654 q 410 750 306 750 m 403 639 q 251 571 300 639 q 201 368 201 504 q 396 97 201 98 q 544 166 498 97 q 590 375 590 236 q 403 639 590 639 z "},"p":{"ha":854,"x_min":35,"x_max":791,"o":"m 282 659 q 493 750 380 750 q 716 653 640 750 q 791 389 791 555 q 697 95 791 204 q 416 -14 603 -14 q 292 5 357 -14 l 292 -215 l 437 -243 l 437 -319 l 41 -319 l 41 -243 l 153 -215 l 153 625 l 35 653 l 35 729 l 271 736 l 282 659 m 292 125 q 310 116 294 122 q 359 103 326 110 q 437 97 392 97 q 646 375 646 97 q 601 567 646 496 q 465 639 555 639 q 371 617 410 639 q 312 571 332 596 q 292 542 292 546 l 292 125 z "},"q":{"ha":805,"x_min":62,"x_max":812,"o":"m 562 66 q 354 -14 459 -14 q 62 347 62 -14 q 106 557 62 467 q 236 699 150 648 q 444 750 322 750 q 569 744 512 750 q 660 731 627 737 q 701 722 693 725 l 701 -215 l 812 -243 l 812 -319 l 424 -319 l 424 -243 l 562 -215 l 562 66 m 562 625 q 524 633 562 627 q 424 639 485 639 q 259 563 310 639 q 208 361 208 486 q 251 168 208 239 q 382 97 293 97 q 478 117 437 97 q 540 160 518 138 q 562 187 562 183 l 562 625 z "},"r":{"ha":646,"x_min":56,"x_max":632,"o":"m 297 635 q 390 714 336 677 q 507 750 444 750 q 565 745 538 750 q 610 735 593 741 q 632 729 628 730 l 625 528 l 534 528 l 514 632 q 395 599 445 632 q 313 524 345 566 l 313 111 l 452 77 l 452 0 l 56 0 l 56 77 l 174 111 l 174 625 l 56 653 l 56 729 l 285 736 l 297 635 z "},"s":{"ha":651,"x_min":62,"x_max":589,"o":"m 176 103 q 211 96 176 102 q 293 90 245 90 q 450 200 450 90 q 412 268 450 245 q 293 315 374 290 q 173 361 219 339 q 95 425 127 383 q 62 533 62 467 q 133 694 62 637 q 317 750 204 750 q 418 741 366 750 q 508 722 471 732 q 554 708 545 711 l 550 521 l 460 521 l 437 629 q 419 635 433 631 q 380 642 406 639 q 325 646 355 646 q 201 553 201 646 q 241 484 201 508 q 361 433 281 460 q 479 387 433 408 q 557 325 525 366 q 589 224 589 285 q 502 47 589 109 q 283 -14 415 -14 q 178 -7 227 -14 q 100 7 129 0 q 64 17 71 14 l 64 222 l 161 222 l 176 103 z "},"t":{"ha":548,"x_min":28,"x_max":521,"o":"m 507 625 l 306 625 l 306 179 q 375 94 306 94 q 484 129 420 94 l 521 56 q 326 -14 427 -14 q 211 33 256 -14 q 167 187 167 79 l 167 625 l 28 625 l 28 715 l 167 729 l 167 904 l 306 932 l 306 729 l 507 729 l 507 625 z "},"u":{"ha":903,"x_min":28,"x_max":868,"o":"m 868 7 l 639 0 l 625 97 q 513 23 584 60 q 368 -14 441 -14 q 201 52 257 -14 q 146 235 146 117 l 146 625 l 28 653 l 28 729 l 285 736 l 285 249 q 314 140 285 175 q 410 104 343 104 q 507 129 463 104 q 581 182 551 153 q 611 214 611 211 l 611 625 l 493 653 l 493 729 l 750 736 l 750 111 l 868 83 l 868 7 z "},"v":{"ha":776,"x_min":7,"x_max":770,"o":"m 387 125 l 554 632 l 458 653 l 458 729 l 770 736 l 770 653 l 693 639 l 457 0 l 304 0 l 77 632 l 7 653 l 7 729 l 319 736 l 319 653 l 222 639 l 387 125 z "},"w":{"ha":1152,"x_min":7,"x_max":1146,"o":"m 334 125 l 515 729 l 647 750 l 819 125 l 930 632 l 833 653 l 833 729 l 1146 736 l 1146 653 l 1065 639 l 896 0 l 736 0 l 604 431 l 571 564 l 542 431 l 410 0 l 250 0 l 77 632 l 7 653 l 7 729 l 319 736 l 319 653 l 215 639 l 334 125 z "},"x":{"ha":785,"x_min":7,"x_max":778,"o":"m 396 465 l 562 729 l 764 736 l 764 653 l 646 632 l 472 375 l 650 109 l 778 77 l 778 0 l 439 0 l 439 77 l 494 93 l 380 277 l 208 0 l 7 0 l 7 77 l 129 109 l 306 368 l 127 633 l 21 653 l 21 729 l 338 736 l 338 653 l 289 644 l 396 465 z "},"y":{"ha":801,"x_min":14,"x_max":794,"o":"m 410 153 l 562 632 l 465 653 l 465 729 l 794 736 l 794 653 l 704 639 l 507 89 l 494 56 q 408 -146 448 -68 q 300 -279 368 -225 q 132 -334 232 -334 q 81 -331 110 -334 q 43 -326 52 -328 l 56 -229 l 125 -229 q 243 -172 193 -229 q 346 -3 294 -115 l 97 632 l 14 653 l 14 729 l 340 736 l 340 653 l 243 639 l 410 153 z "},"z":{"ha":673,"x_min":62,"x_max":625,"o":"m 501 104 l 521 215 l 618 215 l 618 0 l 62 0 l 62 104 l 468 632 l 207 632 l 187 528 l 90 528 l 90 736 l 625 736 l 625 632 l 218 104 l 501 104 z "},"{":{"ha":513,"x_min":41,"x_max":472,"o":"m 472 986 q 369 973 406 986 q 316 928 332 960 q 301 840 301 897 l 301 603 q 269 483 301 532 q 172 410 236 433 q 269 337 236 386 q 301 216 301 288 l 301 -77 q 316 -165 301 -134 q 369 -209 332 -196 q 472 -222 406 -222 l 472 -313 l 410 -313 q 229 -259 283 -313 q 174 -77 174 -205 l 174 216 q 144 323 174 286 q 41 361 115 361 l 41 458 q 144 496 115 458 q 174 603 174 533 l 174 840 q 229 1023 174 969 q 410 1076 283 1076 l 472 1076 l 472 986 z "},"|":{"ha":389,"x_min":139,"x_max":250,"o":"m 139 1048 l 250 1048 l 250 -319 l 139 -319 l 139 1048 z "},"}":{"ha":521,"x_min":56,"x_max":486,"o":"m 118 1076 q 299 1023 244 1076 q 354 840 354 970 l 354 603 q 383 496 354 534 q 486 458 412 458 l 486 361 q 383 323 412 361 q 354 216 354 286 l 354 -77 q 299 -259 354 -205 q 118 -313 244 -313 l 56 -313 l 56 -222 q 159 -209 122 -222 q 211 -165 196 -196 q 227 -77 227 -134 l 227 216 q 259 336 227 287 q 355 410 292 386 q 259 483 292 433 q 227 603 227 532 l 227 840 q 211 928 227 897 q 159 973 196 960 q 56 986 122 986 l 56 1076 l 118 1076 z "},"~":{"ha":869,"x_min":83,"x_max":786,"o":"m 83 340 q 109 382 83 346 q 181 449 135 418 q 293 479 228 479 q 373 466 338 479 q 454 428 408 453 q 526 394 496 406 q 591 382 557 382 q 654 400 625 382 q 703 441 684 419 q 722 465 722 463 l 786 415 q 758 373 786 411 q 685 303 730 335 q 585 271 640 271 q 503 284 540 271 q 415 322 465 297 q 338 357 369 346 q 272 368 307 368 q 211 351 239 368 q 165 313 183 334 q 147 290 147 293 l 83 340 z "}," ":{"ha":319,"x_min":0,"x_max":0,"o":""},"¡":{"ha":437,"x_min":125,"x_max":306,"o":"m 306 667 q 280 596 306 623 q 215 570 254 570 q 149 595 174 570 q 125 667 125 621 q 151 738 125 713 q 215 764 178 764 q 281 738 256 764 q 306 667 306 713 m 298 -292 l 139 -292 l 160 403 l 278 410 l 298 -292 z "},"¢":{"ha":708,"x_min":62,"x_max":665,"o":"m 437 844 q 534 828 488 842 q 610 802 581 815 q 646 785 639 789 l 639 604 l 549 604 l 528 722 q 490 730 528 724 q 410 736 453 736 q 257 683 305 736 q 208 514 208 629 q 416 264 208 264 q 512 279 469 264 q 583 312 555 294 q 611 334 611 330 l 665 257 q 629 231 665 256 q 543 184 593 207 q 437 154 493 161 l 437 0 l 334 0 l 334 157 q 131 267 200 176 q 62 500 62 357 q 133 724 62 632 q 334 839 203 817 l 334 972 l 437 972 l 437 844 z "},"£":{"ha":868,"x_min":83,"x_max":785,"o":"m 83 83 l 160 104 q 221 155 206 117 q 236 285 236 193 q 229 414 236 335 q 227 465 229 432 l 83 465 l 83 559 l 220 575 q 215 708 216 642 q 284 912 215 839 q 493 986 353 986 q 630 977 567 986 q 731 958 693 968 q 778 945 768 947 l 778 750 l 688 750 l 667 865 q 602 871 653 867 q 500 875 551 875 q 389 838 425 875 q 354 736 354 802 q 359 576 354 647 l 590 576 l 590 465 l 367 465 q 375 298 375 340 q 361 196 375 237 q 330 131 347 154 q 313 111 313 107 l 665 111 l 694 257 l 785 257 l 785 0 l 83 0 l 83 83 z "},"¤":{"ha":802,"x_min":69,"x_max":733,"o":"m 628 570 q 668 416 668 504 q 624 262 668 332 l 733 153 l 665 81 l 553 192 q 397 146 485 146 q 245 187 310 146 l 138 81 l 69 153 l 178 261 q 140 410 140 323 q 183 561 140 494 l 69 675 l 138 747 l 253 633 q 411 681 322 681 q 557 640 494 681 l 665 747 l 733 675 l 628 570 m 258 414 q 294 288 258 334 q 404 243 330 243 q 514 288 478 243 q 550 414 550 334 q 514 539 550 494 q 404 583 478 583 q 294 539 330 583 q 258 414 258 494 z "},"¥":{"ha":895,"x_min":14,"x_max":882,"o":"m 107 863 l 14 889 l 14 965 l 361 972 l 361 889 l 267 861 l 452 486 l 656 861 l 549 889 l 549 965 l 882 972 l 882 889 l 796 864 l 589 500 l 760 500 l 760 403 l 135 403 l 135 500 l 307 500 l 107 863 m 760 215 l 521 215 l 521 111 l 639 83 l 639 0 l 257 0 l 257 83 l 375 111 l 375 215 l 135 215 l 135 313 l 760 313 l 760 215 z "},"¦":{"ha":416,"x_min":146,"x_max":257,"o":"m 257 1063 l 257 507 l 146 507 l 146 1063 l 257 1063 m 257 201 l 257 -368 l 146 -368 l 146 201 l 257 201 z "},"§":{"ha":757,"x_min":104,"x_max":673,"o":"m 510 965 q 480 969 503 966 q 435 972 457 972 q 335 937 372 972 q 298 847 298 901 q 320 776 298 808 q 374 718 342 743 q 464 656 407 693 q 573 576 532 610 q 644 493 615 542 q 673 382 673 444 q 644 255 673 305 q 574 178 614 205 q 612 49 612 118 q 579 -85 612 -26 q 486 -176 546 -143 q 349 -208 425 -208 q 251 -199 296 -208 q 180 -180 207 -191 q 147 -167 154 -170 l 154 56 l 243 56 l 272 -90 q 299 -94 277 -92 q 351 -97 321 -97 q 445 -61 410 -97 q 481 28 481 -25 q 459 99 481 66 q 405 157 437 132 q 315 220 372 182 q 205 299 248 264 q 134 382 163 334 q 104 493 104 431 q 134 620 104 570 q 204 697 164 669 q 167 827 167 754 q 201 960 167 902 q 295 1050 235 1018 q 432 1083 355 1083 q 529 1074 485 1083 q 600 1055 574 1065 q 633 1042 627 1044 l 627 819 l 543 819 l 510 965 m 542 361 q 520 431 542 400 q 467 487 498 463 q 379 549 436 511 q 273 624 307 596 q 236 514 236 587 q 276 419 236 458 q 399 326 315 379 q 505 252 478 275 q 542 361 541 290 z "},"¨":{"ha":715,"x_min":139,"x_max":576,"o":"m 139 972 q 161 1033 139 1011 q 215 1055 183 1055 q 271 1033 251 1055 q 292 972 292 1011 q 270 911 292 934 q 215 889 248 889 q 159 911 179 889 q 139 972 139 933 m 424 972 q 446 1033 424 1011 q 500 1055 468 1055 q 556 1033 536 1055 q 576 972 576 1011 q 554 911 576 934 q 500 889 532 889 q 444 911 464 889 q 424 972 424 933 z "},"©":{"ha":1139,"x_min":62,"x_max":1076,"o":"m 62 479 q 129 739 62 624 q 310 920 195 854 q 570 986 425 986 q 830 924 714 986 q 1011 749 946 861 q 1076 493 1076 636 q 1007 234 1076 350 q 819 52 939 118 q 555 -14 700 -14 q 299 49 411 -14 q 125 223 187 111 q 62 479 62 335 m 174 486 q 221 278 174 370 q 357 137 269 187 q 562 86 446 86 q 771 137 679 86 q 914 278 863 187 q 965 486 965 370 q 914 694 965 603 q 771 836 863 785 q 562 886 679 886 q 357 836 446 886 q 221 694 269 785 q 174 486 174 603 m 656 669 q 570 681 618 681 q 470 630 503 681 q 437 484 437 579 q 474 350 437 393 q 576 306 511 306 q 643 320 610 306 q 698 348 676 334 q 725 367 720 363 l 762 302 q 733 277 762 300 q 662 235 704 254 q 570 215 619 215 q 386 282 453 215 q 319 476 319 349 q 389 687 319 608 q 579 765 458 765 q 657 755 618 765 q 722 735 696 746 q 755 722 749 725 l 753 575 l 675 575 l 656 669 z "},"ª":{"ha":650,"x_min":69,"x_max":559,"o":"m 87 945 q 133 958 97 947 q 217 977 170 968 q 302 986 265 986 q 437 947 393 986 q 481 827 481 908 l 481 538 l 559 518 l 559 456 l 408 449 l 386 521 q 360 497 386 519 q 299 457 335 475 q 224 439 262 439 q 109 478 149 439 q 69 595 69 518 q 127 713 69 677 q 294 749 184 749 l 370 749 l 370 818 q 347 871 370 851 q 283 892 323 892 q 222 886 252 892 q 184 878 193 880 l 171 806 l 94 806 l 87 945 m 302 673 q 208 656 237 673 q 178 595 178 639 q 197 548 178 566 q 250 530 216 530 q 306 544 279 530 q 349 573 332 558 q 370 593 366 589 l 370 673 l 302 673 m 559 229 l 81 229 l 81 326 l 559 326 l 559 229 z "},"«":{"ha":749,"x_min":83,"x_max":667,"o":"m 278 104 l 83 326 l 83 410 l 278 632 l 361 576 l 208 368 l 361 160 l 278 104 m 583 104 l 382 326 l 382 410 l 583 632 l 667 576 l 507 368 l 667 160 l 583 104 z "},"¬":{"ha":854,"x_min":83,"x_max":778,"o":"m 778 118 l 660 118 l 660 382 l 83 382 l 83 493 l 778 493 l 778 118 z "},"­":{"ha":528,"x_min":83,"x_max":444,"o":"m 444 319 l 83 319 l 83 437 l 444 437 l 444 319 z "},"®":{"ha":1000,"x_min":77,"x_max":924,"o":"m 77 625 q 131 842 77 745 q 283 994 186 939 q 500 1048 380 1048 q 717 997 621 1048 q 869 851 814 945 q 924 639 924 758 q 865 423 924 519 q 707 271 807 326 q 486 215 607 215 q 272 267 366 215 q 128 411 179 318 q 77 625 77 504 m 180 632 q 218 461 180 534 q 327 347 256 387 q 493 306 397 306 q 663 347 589 306 q 778 462 737 387 q 819 632 819 536 q 778 802 819 728 q 663 917 737 876 q 493 958 589 958 q 327 917 397 958 q 218 803 256 876 q 180 632 180 729 m 354 802 l 298 812 l 298 864 l 507 868 q 624 834 578 868 q 669 741 669 800 q 583 618 669 650 q 594 610 583 618 q 623 567 604 603 l 667 479 l 722 465 l 722 410 l 603 410 l 547 528 q 512 588 525 576 q 471 600 498 600 l 444 600 l 444 479 l 500 465 l 500 410 l 298 410 l 298 465 l 354 479 l 354 802 m 493 664 q 553 683 530 664 q 576 733 576 701 q 556 781 576 764 q 500 799 536 799 l 444 799 l 444 664 l 493 664 z "},"¯":{"ha":389,"x_min":7,"x_max":382,"o":"m 382 917 l 7 917 l 7 1021 l 382 1021 l 382 917 z "},"°":{"ha":569,"x_min":69,"x_max":500,"o":"m 69 812 q 130 963 69 905 q 285 1021 191 1021 q 440 966 380 1021 q 500 819 500 911 q 439 663 500 722 q 285 604 379 604 q 129 660 189 604 q 69 812 69 715 m 167 819 q 197 722 167 757 q 285 688 228 688 q 372 722 342 688 q 403 819 403 757 q 370 906 403 875 q 285 937 338 937 q 199 906 232 937 q 167 819 167 875 z "},"±":{"ha":854,"x_min":77,"x_max":778,"o":"m 368 750 l 486 750 l 486 528 l 778 528 l 778 419 l 486 419 l 486 195 l 368 195 l 368 419 l 77 419 l 77 528 l 368 528 l 368 750 m 778 0 l 77 0 l 77 109 l 778 109 l 778 0 z "},"²":{"ha":541,"x_min":49,"x_max":486,"o":"m 60 943 q 96 954 68 946 q 166 971 125 962 q 248 979 208 979 q 413 938 355 979 q 472 812 472 897 q 449 713 472 757 q 374 620 425 669 q 215 488 322 571 l 486 488 l 486 389 l 49 389 l 49 485 l 125 547 q 262 661 220 624 q 326 732 304 699 q 347 806 347 766 q 243 889 347 889 q 184 883 211 889 q 157 875 157 876 l 147 791 l 64 791 l 60 943 z "},"³":{"ha":525,"x_min":28,"x_max":463,"o":"m 49 953 q 88 961 57 954 q 162 974 119 968 q 243 979 205 979 q 396 940 341 979 q 452 831 452 901 q 418 739 452 774 q 329 693 385 704 q 422 651 382 688 q 463 564 463 615 q 396 428 463 473 q 221 382 330 382 q 132 393 175 382 q 62 417 89 404 q 28 433 35 429 l 56 517 q 87 504 62 514 q 149 484 111 493 q 227 475 187 475 q 311 498 281 475 q 340 562 340 521 q 309 623 340 604 q 210 643 277 643 l 153 643 l 153 728 l 216 728 q 334 817 333 728 q 236 889 334 888 q 170 883 199 889 q 142 876 142 878 l 135 799 l 54 799 l 49 953 z "},"´":{"ha":340,"x_min":0,"x_max":340,"o":"m 271 1111 l 340 1007 l 49 827 l 0 896 l 271 1111 z "},"µ":{"ha":909,"x_min":35,"x_max":875,"o":"m 875 83 l 875 7 l 646 0 l 632 97 q 518 22 586 58 q 375 -14 450 -14 q 292 0 334 -14 l 292 -319 l 153 -319 l 153 625 l 35 653 l 35 729 l 292 736 l 292 235 q 323 136 294 168 q 416 104 353 104 q 514 129 469 104 q 588 182 558 153 q 618 214 618 211 l 618 625 l 500 653 l 500 729 l 757 736 l 757 111 l 875 83 z "},"¶":{"ha":875,"x_min":83,"x_max":785,"o":"m 667 -236 l 546 -236 l 546 861 l 436 861 l 436 -236 l 195 -236 l 195 -153 l 319 -125 l 319 425 q 199 470 253 432 q 115 568 146 507 q 83 701 83 628 q 117 840 83 778 q 216 937 151 901 q 368 972 281 972 l 546 972 l 785 965 l 785 889 l 667 861 l 667 -236 z "},"·":{"ha":366,"x_min":90,"x_max":277,"o":"m 90 424 q 117 497 90 471 q 183 524 143 524 q 252 498 228 524 q 277 424 277 472 q 250 350 277 376 q 183 323 224 323 q 114 349 138 323 q 90 424 90 375 z "},"¸":{"ha":605,"x_min":153,"x_max":460,"o":"m 339 -60 q 428 -101 396 -69 q 460 -180 460 -134 q 418 -270 460 -236 q 309 -304 376 -304 q 234 -296 269 -304 q 178 -278 199 -288 q 153 -265 158 -268 l 186 -208 q 207 -218 190 -211 q 247 -231 224 -225 q 293 -237 271 -237 q 349 -221 328 -237 q 370 -178 370 -204 q 339 -128 370 -146 q 256 -110 309 -110 l 256 0 l 339 0 l 339 -60 z "},"¹":{"ha":486,"x_min":21,"x_max":458,"o":"m 83 479 l 215 479 l 215 847 l 69 757 l 21 840 l 231 972 l 334 972 l 334 479 l 458 479 l 458 389 l 83 389 l 83 479 z "},"º":{"ha":687,"x_min":69,"x_max":590,"o":"m 340 986 q 525 917 460 986 q 590 722 590 847 q 518 514 590 591 q 326 437 446 437 q 137 506 205 437 q 69 701 69 574 q 103 852 69 787 q 199 951 138 917 q 340 986 261 986 m 334 889 q 228 844 268 889 q 187 708 187 799 q 228 579 187 623 q 334 534 268 534 q 435 580 399 534 q 472 715 472 625 q 435 843 472 798 q 334 889 397 889 m 576 229 l 83 229 l 83 326 l 576 326 l 576 229 z "},"»":{"ha":749,"x_min":83,"x_max":667,"o":"m 167 632 l 368 410 l 368 326 l 167 104 l 83 160 l 243 368 l 83 576 l 167 632 m 472 632 l 667 410 l 667 326 l 472 104 l 389 160 l 542 368 l 389 576 l 472 632 z "},"¼":{"ha":1347,"x_min":56,"x_max":1278,"o":"m 118 479 l 250 479 l 250 847 l 104 757 l 56 840 l 265 972 l 368 972 l 368 479 l 486 479 l 486 389 l 118 389 l 118 479 m 437 0 l 313 0 l 875 972 l 1000 972 l 437 0 m 1181 216 l 1278 216 l 1278 126 l 1181 126 l 1181 0 l 1063 0 l 1063 126 l 771 126 l 762 208 l 1044 597 l 1181 583 l 1181 216 m 1063 465 l 884 216 l 1063 216 l 1063 465 z "},"½":{"ha":1319,"x_min":56,"x_max":1243,"o":"m 118 479 l 250 479 l 250 847 l 104 757 l 56 840 l 265 972 l 368 972 l 368 479 l 486 479 l 486 389 l 118 389 l 118 479 m 437 0 l 313 0 l 875 972 l 1000 972 l 437 0 m 882 158 q 1019 272 977 235 q 1083 344 1061 310 q 1104 416 1104 378 q 1000 500 1104 500 q 942 494 970 500 q 914 486 914 488 l 904 403 l 821 403 l 817 554 q 853 565 825 557 q 923 582 882 574 q 1004 590 965 590 q 1170 549 1112 590 q 1229 424 1229 509 q 1205 325 1229 368 q 1131 231 1182 281 q 972 98 1079 182 l 1243 98 l 1243 0 l 806 0 l 806 96 l 882 158 z "},"¾":{"ha":1337,"x_min":49,"x_max":1268,"o":"m 69 953 q 109 961 78 954 q 183 974 140 968 q 264 979 227 979 q 417 940 362 979 q 472 831 472 901 q 439 739 472 774 q 350 693 406 704 q 443 651 403 688 q 484 564 484 615 q 417 428 484 473 q 241 382 351 382 q 153 393 195 382 q 83 417 110 404 q 49 433 56 429 l 77 517 q 108 504 83 514 q 170 484 132 493 q 248 475 208 475 q 331 498 302 475 q 361 562 361 521 q 329 623 361 604 q 231 643 297 643 l 174 643 l 174 728 l 237 728 q 354 817 354 728 q 257 889 354 888 q 191 883 220 889 q 163 876 163 878 l 155 799 l 75 799 l 69 953 m 428 0 l 302 0 l 865 972 l 990 972 l 428 0 m 1171 216 l 1268 216 l 1268 126 l 1171 126 l 1171 0 l 1053 0 l 1053 126 l 761 126 l 753 208 l 1035 597 l 1171 583 l 1171 216 m 1053 465 l 873 216 l 1053 216 l 1053 465 z "},"¿":{"ha":661,"x_min":90,"x_max":550,"o":"m 486 667 q 460 596 486 623 q 396 570 435 570 q 330 595 355 570 q 306 667 306 621 q 332 738 306 713 q 396 764 358 764 q 462 738 437 764 q 486 667 486 713 m 469 433 q 476 371 471 418 q 482 297 482 323 q 455 227 482 260 q 371 143 428 193 q 270 42 304 85 q 236 -56 236 -1 q 272 -140 236 -113 q 382 -167 309 -167 q 470 -159 425 -167 q 528 -149 515 -151 l 550 -253 q 517 -263 543 -256 q 451 -278 490 -271 q 375 -285 412 -285 q 170 -235 250 -285 q 90 -69 90 -184 q 112 31 90 -15 q 163 110 134 77 q 243 191 193 143 q 321 271 296 239 q 347 339 347 302 q 346 395 347 372 q 345 425 345 418 l 469 433 z "},"À":{"ha":1006,"x_min":7,"x_max":1000,"o":"m 437 965 l 576 972 l 885 110 l 1000 83 l 1000 0 l 597 0 l 597 83 l 726 110 l 673 264 l 313 264 l 258 110 l 389 83 l 389 0 l 7 0 l 7 83 l 121 110 l 437 965 m 496 793 l 350 375 l 636 375 l 496 793 m 667 1097 l 611 1021 l 340 1194 l 410 1299 l 667 1097 z "},"Á":{"ha":1006,"x_min":7,"x_max":1000,"o":"m 437 965 l 576 972 l 885 110 l 1000 83 l 1000 0 l 597 0 l 597 83 l 726 110 l 673 264 l 313 264 l 258 110 l 389 83 l 389 0 l 7 0 l 7 83 l 121 110 l 437 965 m 496 793 l 350 375 l 636 375 l 496 793 m 433 1095 l 686 1296 l 757 1194 l 486 1021 l 433 1095 z "},"Â":{"ha":1008,"x_min":7,"x_max":1000,"o":"m 257 1104 l 458 1271 l 542 1278 l 743 1104 l 688 1042 l 503 1171 l 313 1042 l 257 1104 m 437 965 l 576 972 l 885 110 l 1000 83 l 1000 0 l 597 0 l 597 83 l 726 110 l 673 264 l 313 264 l 258 110 l 389 83 l 389 0 l 7 0 l 7 83 l 121 110 l 437 965 m 496 793 l 350 375 l 636 375 l 496 793 z "},"Ã":{"ha":1006,"x_min":7,"x_max":1000,"o":"m 282 1105 q 303 1144 282 1109 q 358 1207 323 1178 q 435 1236 392 1236 q 498 1228 468 1236 q 566 1203 528 1219 q 629 1179 606 1186 q 677 1173 652 1173 q 723 1185 703 1173 q 754 1212 743 1198 q 768 1231 765 1226 l 817 1189 q 798 1152 817 1185 q 747 1092 779 1120 q 671 1064 714 1064 q 609 1072 637 1064 q 541 1096 581 1080 q 479 1118 505 1112 q 428 1125 454 1125 q 381 1111 403 1125 q 347 1083 359 1097 q 330 1064 334 1068 l 282 1105 m 437 965 l 576 972 l 885 110 l 1000 83 l 1000 0 l 597 0 l 597 83 l 726 110 l 673 264 l 313 264 l 258 110 l 389 83 l 389 0 l 7 0 l 7 83 l 121 110 l 437 965 m 496 793 l 350 375 l 636 375 l 496 793 z "},"Ä":{"ha":1006,"x_min":7,"x_max":1000,"o":"m 298 1146 q 321 1207 298 1185 q 375 1229 343 1229 q 431 1207 411 1229 q 452 1146 452 1185 q 429 1085 452 1107 q 375 1063 407 1063 q 319 1085 339 1063 q 298 1146 298 1107 m 583 1146 q 606 1207 583 1185 q 660 1229 628 1229 q 716 1207 696 1229 q 736 1146 736 1185 q 714 1085 736 1107 q 660 1063 692 1063 q 604 1085 624 1063 q 583 1146 583 1107 m 437 965 l 576 972 l 885 110 l 1000 83 l 1000 0 l 597 0 l 597 83 l 726 110 l 673 264 l 313 264 l 258 110 l 389 83 l 389 0 l 7 0 l 7 83 l 121 110 l 437 965 m 496 793 l 350 375 l 636 375 l 496 793 z "},"Å":{"ha":1006,"x_min":7,"x_max":1000,"o":"m 347 1104 q 370 1188 347 1152 q 430 1244 393 1225 q 507 1264 467 1264 q 619 1223 571 1264 q 667 1111 667 1182 q 642 1023 667 1061 q 578 968 618 986 l 885 110 l 1000 83 l 1000 0 l 597 0 l 597 83 l 726 110 l 673 264 l 313 264 l 258 110 l 389 83 l 389 0 l 7 0 l 7 83 l 121 110 l 437 965 q 372 1019 397 983 q 347 1104 347 1054 m 431 1107 q 451 1043 431 1065 q 507 1021 471 1021 q 562 1044 541 1021 q 583 1108 583 1068 q 563 1172 583 1149 q 507 1194 543 1194 q 452 1171 474 1194 q 431 1107 431 1147 m 496 793 l 350 375 l 636 375 l 496 793 z "},"Æ":{"ha":1332,"x_min":7,"x_max":1249,"o":"m 667 285 l 361 285 l 273 107 l 382 83 l 382 0 l 7 0 l 7 83 l 131 111 l 515 861 l 397 889 l 397 965 l 572 972 l 1235 972 l 1235 736 l 1145 736 l 1109 861 l 812 861 l 812 562 l 1131 562 l 1131 452 l 812 452 l 812 111 l 1131 111 l 1158 250 l 1249 250 l 1249 0 l 542 0 l 542 83 l 667 111 l 667 285 m 646 861 l 416 396 l 667 396 l 667 861 l 646 861 z "},"Ç":{"ha":923,"x_min":83,"x_max":875,"o":"m 713 840 q 683 849 707 843 q 620 862 660 856 q 534 868 581 868 q 318 766 394 868 q 243 472 243 664 q 324 201 243 292 q 542 111 406 111 q 669 136 607 111 q 775 191 730 161 q 819 222 819 220 l 875 132 q 834 97 875 130 q 730 33 793 64 q 590 -9 667 1 l 590 -61 q 677 -102 646 -71 q 708 -184 708 -134 q 664 -272 708 -237 q 555 -306 619 -306 q 479 -296 515 -306 q 421 -276 443 -286 q 393 -262 399 -265 l 429 -204 q 453 -215 435 -207 q 497 -229 471 -222 q 549 -236 524 -236 q 593 -221 575 -236 q 611 -180 611 -205 q 581 -130 611 -149 q 500 -111 551 -111 l 500 -12 q 192 118 301 -4 q 83 465 83 240 q 140 741 83 623 q 302 922 197 859 q 549 986 407 986 q 686 971 616 986 q 808 937 755 956 q 861 917 861 918 l 854 682 l 750 682 l 713 840 z "},"È":{"ha":854,"x_min":69,"x_max":771,"o":"m 653 562 l 653 452 l 334 452 l 334 111 l 653 111 l 681 250 l 771 250 l 771 0 l 69 0 l 69 83 l 187 111 l 187 861 l 69 889 l 69 965 l 334 972 l 757 972 l 757 736 l 667 736 l 632 861 l 334 861 l 334 562 l 653 562 m 569 1097 l 513 1021 l 243 1194 l 312 1299 l 569 1097 z "},"É":{"ha":854,"x_min":69,"x_max":771,"o":"m 653 562 l 653 452 l 334 452 l 334 111 l 653 111 l 681 250 l 771 250 l 771 0 l 69 0 l 69 83 l 187 111 l 187 861 l 69 889 l 69 965 l 334 972 l 757 972 l 757 736 l 667 736 l 632 861 l 334 861 l 334 562 l 653 562 m 336 1095 l 589 1296 l 660 1194 l 389 1021 l 336 1095 z "},"Ê":{"ha":854,"x_min":69,"x_max":771,"o":"m 187 1104 l 389 1271 l 472 1278 l 673 1104 l 618 1042 l 433 1171 l 243 1042 l 187 1104 m 653 562 l 653 452 l 334 452 l 334 111 l 653 111 l 681 250 l 771 250 l 771 0 l 69 0 l 69 83 l 187 111 l 187 861 l 69 889 l 69 965 l 334 972 l 757 972 l 757 736 l 667 736 l 632 861 l 334 861 l 334 562 l 653 562 z "},"Ë":{"ha":854,"x_min":69,"x_max":771,"o":"m 653 562 l 653 452 l 334 452 l 334 111 l 653 111 l 681 250 l 771 250 l 771 0 l 69 0 l 69 83 l 187 111 l 187 861 l 69 889 l 69 965 l 334 972 l 757 972 l 757 736 l 667 736 l 632 861 l 334 861 l 334 562 l 653 562 m 222 1146 q 244 1207 222 1185 q 298 1229 267 1229 q 355 1207 334 1229 q 375 1146 375 1185 q 353 1085 375 1107 q 298 1063 331 1063 q 242 1085 262 1063 q 222 1146 222 1107 m 507 1146 q 529 1207 507 1185 q 583 1229 551 1229 q 640 1207 619 1229 q 660 1146 660 1185 q 637 1085 660 1107 q 583 1063 615 1063 q 527 1085 547 1063 q 507 1146 507 1107 z "},"Ì":{"ha":500,"x_min":35,"x_max":452,"o":"m 361 1097 l 306 1021 l 35 1194 l 104 1299 l 361 1097 m 69 83 l 187 111 l 187 861 l 69 889 l 69 965 l 452 972 l 452 889 l 334 861 l 334 111 l 452 83 l 452 0 l 69 0 l 69 83 z "},"Í":{"ha":507,"x_min":62,"x_max":458,"o":"m 62 83 l 180 111 l 180 861 l 62 889 l 62 965 l 444 972 l 444 889 l 326 861 l 326 111 l 444 83 l 444 0 l 62 0 l 62 83 m 135 1095 l 388 1296 l 458 1194 l 188 1021 l 135 1095 z "},"Î":{"ha":522,"x_min":28,"x_max":494,"o":"m 28 1104 l 220 1271 l 302 1278 l 494 1104 l 439 1042 l 264 1171 l 83 1042 l 28 1104 m 74 83 l 192 111 l 192 861 l 74 889 l 74 965 l 456 972 l 456 889 l 338 861 l 338 111 l 456 83 l 456 0 l 74 0 l 74 83 z "},"Ï":{"ha":493,"x_min":28,"x_max":465,"o":"m 28 1146 q 50 1207 28 1185 q 104 1229 72 1229 q 160 1207 140 1229 q 180 1146 180 1185 q 158 1085 180 1107 q 104 1063 136 1063 q 48 1085 68 1063 q 28 1146 28 1107 m 313 1146 q 335 1207 313 1185 q 389 1229 357 1229 q 445 1207 425 1229 q 465 1146 465 1185 q 443 1085 465 1107 q 389 1063 421 1063 q 333 1085 353 1063 q 313 1146 313 1107 m 56 83 l 174 111 l 174 861 l 56 889 l 56 965 l 437 972 l 437 889 l 319 861 l 319 111 l 437 83 l 437 0 l 56 0 l 56 83 z "},"Ð":{"ha":1025,"x_min":62,"x_max":942,"o":"m 180 861 l 62 889 l 62 965 l 326 972 l 504 972 q 826 849 709 972 q 942 500 942 726 q 886 235 942 349 q 725 61 829 122 q 484 0 621 0 l 62 0 l 62 83 l 180 111 l 180 458 l 62 458 l 62 568 l 180 568 l 180 861 m 542 458 l 325 458 l 325 111 l 490 111 q 704 206 627 111 q 782 493 782 301 q 707 771 782 680 q 497 861 632 861 l 325 861 l 325 568 l 542 568 l 542 458 z "},"Ñ":{"ha":1097,"x_min":56,"x_max":1048,"o":"m 271 1105 q 292 1144 271 1109 q 347 1207 313 1178 q 424 1236 380 1236 q 487 1228 457 1236 q 554 1203 517 1219 q 617 1179 594 1186 q 667 1173 640 1173 q 712 1185 692 1173 q 743 1212 732 1198 q 757 1231 754 1226 l 806 1189 q 787 1152 806 1185 q 735 1092 768 1120 q 660 1064 703 1064 q 598 1072 627 1064 q 529 1096 570 1080 q 468 1118 493 1112 q 416 1125 443 1125 q 370 1111 391 1125 q 335 1083 349 1097 q 319 1064 322 1068 l 271 1105 m 930 0 l 757 0 l 298 765 l 298 111 l 431 83 l 431 0 l 56 0 l 56 83 l 174 111 l 174 861 l 56 889 l 56 965 l 347 972 l 806 196 l 806 861 l 688 889 l 688 965 l 1048 972 l 1048 889 l 930 861 l 930 0 z "},"Ò":{"ha":1048,"x_min":83,"x_max":965,"o":"m 534 986 q 765 927 668 986 q 914 758 863 868 q 965 500 965 648 q 907 232 965 349 q 746 51 850 115 q 507 -14 642 -14 q 193 113 303 -14 q 83 479 83 240 q 138 746 83 631 q 295 924 193 861 q 534 986 397 986 m 528 868 q 316 774 389 868 q 243 486 243 681 q 311 201 243 297 q 514 104 379 104 q 729 202 653 104 q 806 493 806 300 q 735 773 806 679 q 528 868 664 868 m 652 1097 l 597 1021 l 326 1194 l 395 1299 l 652 1097 z "},"Ó":{"ha":1048,"x_min":83,"x_max":965,"o":"m 534 986 q 765 927 668 986 q 914 758 863 868 q 965 500 965 648 q 907 232 965 349 q 746 51 850 115 q 507 -14 642 -14 q 193 113 303 -14 q 83 479 83 240 q 138 746 83 631 q 295 924 193 861 q 534 986 397 986 m 528 868 q 316 774 389 868 q 243 486 243 681 q 311 201 243 297 q 514 104 379 104 q 729 202 653 104 q 806 493 806 300 q 735 773 806 679 q 528 868 664 868 m 385 1095 l 637 1296 l 708 1194 l 437 1021 l 385 1095 z "},"Ô":{"ha":1048,"x_min":83,"x_max":965,"o":"m 277 1104 l 478 1271 l 561 1278 l 762 1104 l 707 1042 l 522 1171 l 332 1042 l 277 1104 m 534 986 q 765 927 668 986 q 914 758 863 868 q 965 500 965 648 q 907 232 965 349 q 746 51 850 115 q 507 -14 642 -14 q 193 113 303 -14 q 83 479 83 240 q 138 746 83 631 q 295 924 193 861 q 534 986 397 986 m 528 868 q 316 774 389 868 q 243 486 243 681 q 311 201 243 297 q 514 104 379 104 q 729 202 653 104 q 806 493 806 300 q 735 773 806 679 q 528 868 664 868 z "},"Õ":{"ha":1048,"x_min":83,"x_max":965,"o":"m 256 1105 q 276 1144 256 1109 q 331 1207 297 1178 q 408 1236 366 1236 q 471 1228 441 1236 q 539 1203 501 1219 q 602 1179 579 1186 q 652 1173 625 1173 q 697 1185 677 1173 q 728 1212 717 1198 q 742 1231 739 1226 l 790 1189 q 771 1152 790 1185 q 720 1092 753 1120 q 644 1064 688 1064 q 583 1072 611 1064 q 514 1096 554 1080 q 453 1118 478 1112 q 401 1125 428 1125 q 355 1111 376 1125 q 320 1083 334 1097 q 304 1064 307 1068 l 256 1105 m 534 986 q 765 927 668 986 q 914 758 863 868 q 965 500 965 648 q 907 232 965 349 q 746 51 850 115 q 507 -14 642 -14 q 193 113 303 -14 q 83 479 83 240 q 138 746 83 631 q 295 924 193 861 q 534 986 397 986 m 528 868 q 316 774 389 868 q 243 486 243 681 q 311 201 243 297 q 514 104 379 104 q 729 202 653 104 q 806 493 806 300 q 735 773 806 679 q 528 868 664 868 z "},"Ö":{"ha":1048,"x_min":83,"x_max":965,"o":"m 306 1146 q 328 1207 306 1185 q 382 1229 350 1229 q 438 1207 418 1229 q 458 1146 458 1185 q 436 1085 458 1107 q 382 1063 414 1063 q 326 1085 346 1063 q 306 1146 306 1107 m 590 1146 q 612 1207 590 1185 q 667 1229 635 1229 q 723 1207 703 1229 q 743 1146 743 1185 q 721 1085 743 1107 q 667 1063 699 1063 q 610 1085 631 1063 q 590 1146 590 1107 m 534 986 q 765 927 668 986 q 914 758 863 868 q 965 500 965 648 q 907 232 965 349 q 746 51 850 115 q 507 -14 642 -14 q 193 113 303 -14 q 83 479 83 240 q 138 746 83 631 q 295 924 193 861 q 534 986 397 986 m 528 868 q 316 774 389 868 q 243 486 243 681 q 311 201 243 297 q 514 104 379 104 q 729 202 653 104 q 806 493 806 300 q 735 773 806 679 q 528 868 664 868 z "},"×":{"ha":833,"x_min":83,"x_max":750,"o":"m 672 701 l 750 624 l 494 368 l 750 113 l 672 35 l 416 290 l 161 35 l 83 113 l 339 368 l 83 624 l 161 701 l 416 446 l 672 701 z "},"Ø":{"ha":1062,"x_min":90,"x_max":972,"o":"m 829 885 q 936 723 899 821 q 972 500 972 625 q 915 232 972 349 q 753 51 857 115 q 514 -14 648 -14 q 313 28 399 -14 l 208 -146 l 118 -97 l 228 85 q 90 479 90 210 q 145 746 90 631 q 302 924 200 861 q 542 986 404 986 q 745 942 656 986 l 833 1090 l 924 1042 l 829 885 m 677 832 q 534 868 616 868 q 323 774 395 868 q 250 486 250 681 q 307 216 250 314 l 677 832 m 380 140 q 521 104 437 104 q 736 202 660 104 q 812 493 812 300 q 753 758 812 663 l 380 140 z "},"Ù":{"ha":1097,"x_min":56,"x_max":1042,"o":"m 924 396 q 838 89 924 192 q 542 -14 751 -14 q 258 81 343 -14 q 174 375 174 176 l 174 861 l 56 889 l 56 965 l 452 972 l 452 889 l 319 861 l 319 375 q 343 212 319 271 q 417 129 367 154 q 549 104 467 104 q 685 132 636 104 q 756 223 734 160 q 778 396 778 286 l 778 861 l 646 889 l 646 965 l 1042 972 l 1042 889 l 924 861 l 924 396 m 652 1097 l 597 1021 l 326 1194 l 395 1299 l 652 1097 z "},"Ú":{"ha":1097,"x_min":56,"x_max":1042,"o":"m 924 396 q 838 89 924 192 q 542 -14 751 -14 q 258 81 343 -14 q 174 375 174 176 l 174 861 l 56 889 l 56 965 l 452 972 l 452 889 l 319 861 l 319 375 q 343 212 319 271 q 417 129 367 154 q 549 104 467 104 q 685 132 636 104 q 756 223 734 160 q 778 396 778 286 l 778 861 l 646 889 l 646 965 l 1042 972 l 1042 889 l 924 861 l 924 396 m 446 1095 l 699 1296 l 769 1194 l 498 1021 l 446 1095 z "},"Û":{"ha":1097,"x_min":56,"x_max":1042,"o":"m 306 1104 l 507 1271 l 590 1278 l 791 1104 l 736 1042 l 551 1171 l 361 1042 l 306 1104 m 924 396 q 838 89 924 192 q 542 -14 751 -14 q 258 81 343 -14 q 174 375 174 176 l 174 861 l 56 889 l 56 965 l 452 972 l 452 889 l 319 861 l 319 375 q 343 212 319 271 q 417 129 367 154 q 549 104 467 104 q 685 132 636 104 q 756 223 734 160 q 778 396 778 286 l 778 861 l 646 889 l 646 965 l 1042 972 l 1042 889 l 924 861 l 924 396 z "},"Ü":{"ha":1098,"x_min":56,"x_max":1042,"o":"m 326 1146 q 349 1207 326 1185 q 403 1229 371 1229 q 459 1207 439 1229 q 479 1146 479 1185 q 457 1085 479 1107 q 403 1063 435 1063 q 347 1085 367 1063 q 326 1146 326 1107 m 611 1146 q 633 1207 611 1185 q 688 1229 656 1229 q 744 1207 724 1229 q 764 1146 764 1185 q 742 1085 764 1107 q 688 1063 720 1063 q 631 1085 652 1063 q 611 1146 611 1107 m 319 375 q 343 212 319 271 q 417 129 367 154 q 549 104 467 104 q 685 132 636 104 q 756 223 734 160 q 778 396 778 286 l 778 861 l 646 889 l 646 965 l 1042 972 l 1042 889 l 924 861 l 924 396 q 838 89 924 192 q 542 -14 751 -14 q 258 81 343 -14 q 174 375 174 176 l 174 861 l 56 889 l 56 965 l 452 972 l 452 889 l 319 861 l 319 375 z "},"Ý":{"ha":895,"x_min":14,"x_max":882,"o":"m 375 359 l 107 863 l 14 889 l 14 965 l 361 972 l 361 889 l 267 861 l 452 472 l 656 861 l 549 889 l 549 965 l 882 972 l 882 889 l 796 864 l 521 363 l 521 111 l 639 83 l 639 0 l 257 0 l 257 83 l 375 111 l 375 359 m 357 1095 l 610 1296 l 680 1194 l 410 1021 l 357 1095 z "},"Þ":{"ha":826,"x_min":56,"x_max":785,"o":"m 465 785 q 700 716 615 785 q 785 528 785 648 q 690 296 785 376 q 416 215 595 215 l 319 215 l 319 111 l 437 83 l 437 0 l 56 0 l 56 83 l 174 111 l 174 861 l 56 889 l 56 965 l 437 972 l 437 889 l 319 861 l 319 785 l 465 785 m 416 326 q 586 373 526 326 q 646 507 646 419 q 596 628 646 583 q 458 673 546 673 l 319 673 l 319 326 l 416 326 z "},"ß":{"ha":972,"x_min":41,"x_max":951,"o":"m 187 806 q 269 1009 187 935 q 486 1083 350 1083 q 724 1030 635 1083 q 812 868 812 978 q 785 769 812 808 q 707 685 758 730 q 649 626 668 650 q 631 570 631 602 q 664 496 631 522 q 766 439 697 469 q 863 388 826 411 q 926 325 900 366 q 951 225 951 285 q 910 102 951 156 q 803 17 869 47 q 664 -14 736 -14 q 566 -7 611 -14 q 494 7 521 0 q 460 17 467 14 l 458 216 l 549 216 l 570 104 q 592 97 570 103 q 650 90 615 90 q 761 117 716 90 q 806 197 806 143 q 774 269 806 243 q 673 326 742 294 q 577 375 615 351 q 513 441 539 399 q 486 549 486 484 q 512 643 486 607 q 587 721 538 679 q 652 784 630 755 q 673 854 673 812 q 622 950 673 921 q 493 979 571 979 q 373 940 419 979 q 326 833 326 900 l 326 0 l 69 0 l 69 77 l 187 111 l 187 625 l 41 625 l 41 715 l 187 729 l 187 806 z "},"à":{"ha":785,"x_min":62,"x_max":743,"o":"m 104 694 q 159 712 115 699 q 262 738 203 725 q 375 750 322 750 q 567 700 501 750 q 632 534 632 650 l 632 111 l 743 83 l 743 7 l 528 0 l 498 97 q 395 19 454 52 q 271 -14 336 -14 q 117 41 172 -14 q 62 195 62 96 q 145 360 62 310 q 382 410 228 410 l 493 410 l 493 521 q 459 614 493 582 q 361 646 425 646 q 292 641 323 646 q 243 631 261 636 q 221 625 225 627 l 201 521 l 111 521 l 104 694 m 396 319 q 249 292 293 319 q 204 201 204 264 q 231 125 204 154 q 306 97 258 97 q 393 122 352 97 q 464 176 435 147 q 493 208 493 205 l 493 319 l 396 319 m 528 896 l 479 827 l 187 1007 l 256 1111 l 528 896 z "},"á":{"ha":785,"x_min":62,"x_max":743,"o":"m 104 694 q 159 712 115 699 q 262 738 203 725 q 375 750 322 750 q 567 700 501 750 q 632 534 632 650 l 632 111 l 743 83 l 743 7 l 528 0 l 498 97 q 395 19 454 52 q 271 -14 336 -14 q 117 41 172 -14 q 62 195 62 96 q 145 360 62 310 q 382 410 228 410 l 493 410 l 493 521 q 459 614 493 582 q 361 646 425 646 q 292 641 323 646 q 243 631 261 636 q 221 625 225 627 l 201 521 l 111 521 l 104 694 m 396 319 q 249 292 293 319 q 204 201 204 264 q 231 125 204 154 q 306 97 258 97 q 393 122 352 97 q 464 176 435 147 q 493 208 493 205 l 493 319 l 396 319 m 493 1111 l 563 1007 l 271 827 l 222 896 l 493 1111 z "},"â":{"ha":785,"x_min":62,"x_max":743,"o":"m 111 896 l 319 1083 l 403 1090 l 611 896 l 555 833 l 364 983 l 167 833 l 111 896 m 498 97 q 395 20 454 53 q 271 -14 336 -14 q 117 41 172 -14 q 62 195 62 96 q 145 360 62 310 q 382 410 228 410 l 493 410 l 493 521 q 459 614 493 582 q 361 646 425 646 q 292 641 323 646 q 243 631 261 636 q 221 625 225 627 l 201 521 l 111 521 l 104 694 q 159 712 115 699 q 262 738 203 725 q 375 750 322 750 q 567 700 501 750 q 632 534 632 650 l 632 111 l 743 83 l 743 7 l 528 0 l 498 97 m 204 201 q 231 125 204 154 q 306 97 258 97 q 393 122 352 97 q 464 176 435 147 q 493 208 493 205 l 493 319 l 396 319 q 249 292 293 319 q 204 201 204 264 z "},"ã":{"ha":785,"x_min":62,"x_max":743,"o":"m 102 932 q 122 970 102 936 q 176 1033 142 1004 q 254 1061 210 1061 q 316 1053 288 1061 q 379 1028 345 1044 q 436 1006 412 1013 q 486 999 460 999 q 530 1012 509 999 q 565 1039 551 1025 q 581 1057 578 1053 l 629 1008 q 610 971 629 1004 q 557 909 590 937 q 479 882 524 882 q 417 890 446 882 q 354 916 389 899 q 297 938 321 931 q 248 945 273 945 q 199 931 221 945 q 165 902 178 917 q 150 884 153 888 l 102 932 m 498 97 q 395 20 454 53 q 271 -14 336 -14 q 117 41 172 -14 q 62 195 62 96 q 145 360 62 310 q 382 410 228 410 l 493 410 l 493 521 q 459 614 493 582 q 361 646 425 646 q 292 641 323 646 q 243 631 261 636 q 221 625 225 627 l 201 521 l 111 521 l 104 694 q 159 712 115 699 q 262 738 203 725 q 375 750 322 750 q 567 700 501 750 q 632 534 632 650 l 632 111 l 743 83 l 743 7 l 528 0 l 498 97 m 204 201 q 231 125 204 154 q 306 97 258 97 q 393 122 352 97 q 464 176 435 147 q 493 208 493 205 l 493 319 l 396 319 q 249 292 293 319 q 204 201 204 264 z "},"ä":{"ha":785,"x_min":62,"x_max":743,"o":"m 146 972 q 168 1033 146 1011 q 222 1055 191 1055 q 278 1033 258 1055 q 298 972 298 1011 q 276 911 298 934 q 222 889 254 889 q 166 911 186 889 q 146 972 146 933 m 431 972 q 453 1033 431 1011 q 507 1055 475 1055 q 563 1033 543 1055 q 583 972 583 1011 q 561 911 583 934 q 507 889 539 889 q 451 911 471 889 q 431 972 431 933 m 498 97 q 395 20 454 53 q 271 -14 336 -14 q 117 41 172 -14 q 62 195 62 96 q 145 360 62 310 q 382 410 228 410 l 493 410 l 493 521 q 459 614 493 582 q 361 646 425 646 q 292 641 323 646 q 243 631 261 636 q 221 625 225 627 l 201 521 l 111 521 l 104 694 q 159 712 115 699 q 262 738 203 725 q 375 750 322 750 q 567 700 501 750 q 632 534 632 650 l 632 111 l 743 83 l 743 7 l 528 0 l 498 97 m 204 201 q 231 125 204 154 q 306 97 258 97 q 393 122 352 97 q 464 176 435 147 q 493 208 493 205 l 493 319 l 396 319 q 249 292 293 319 q 204 201 204 264 z "},"å":{"ha":785,"x_min":62,"x_max":743,"o":"m 232 979 q 255 1063 232 1026 q 315 1119 278 1100 q 392 1139 351 1139 q 504 1098 456 1139 q 551 986 551 1057 q 528 902 551 939 q 469 846 505 865 q 392 827 432 827 q 280 867 328 827 q 232 979 232 908 m 315 982 q 335 918 315 940 q 392 896 355 896 q 447 920 425 896 q 468 983 468 943 q 448 1047 468 1025 q 392 1069 428 1069 q 337 1046 359 1069 q 315 982 315 1022 m 498 97 q 395 20 454 53 q 271 -14 336 -14 q 117 41 172 -14 q 62 195 62 96 q 145 360 62 310 q 382 410 228 410 l 493 410 l 493 521 q 459 614 493 582 q 361 646 425 646 q 292 641 323 646 q 243 631 261 636 q 221 625 225 627 l 201 521 l 111 521 l 104 694 q 159 712 115 699 q 262 738 203 725 q 375 750 322 750 q 567 700 501 750 q 632 534 632 650 l 632 111 l 743 83 l 743 7 l 528 0 l 498 97 m 204 201 q 231 125 204 154 q 306 97 258 97 q 393 122 352 97 q 464 176 435 147 q 493 208 493 205 l 493 319 l 396 319 q 249 292 293 319 q 204 201 204 264 z "},"æ":{"ha":1160,"x_min":62,"x_max":1111,"o":"m 1111 424 q 1108 379 1111 401 q 1104 350 1105 357 l 625 347 q 681 165 625 233 q 827 97 736 97 q 940 114 888 97 q 1026 151 991 131 q 1060 174 1060 171 l 1108 102 q 1063 68 1108 99 q 952 12 1018 37 q 812 -14 886 -14 q 539 134 616 -14 q 432 36 502 85 q 271 -14 363 -14 q 117 41 172 -14 q 62 195 62 96 q 145 360 62 310 q 382 410 228 410 l 493 410 l 493 521 q 459 614 493 582 q 361 646 425 646 q 292 641 323 646 q 243 631 261 636 q 221 625 225 627 l 201 521 l 111 521 l 104 694 q 159 712 115 699 q 262 738 203 725 q 375 750 322 750 q 591 653 542 750 q 692 725 634 701 q 819 750 750 750 q 1111 424 1111 750 m 964 452 q 928 589 964 536 q 812 642 892 642 q 685 587 732 642 q 631 452 637 533 l 964 452 m 396 319 q 247 292 292 319 q 201 201 201 264 q 230 125 201 154 q 306 97 258 97 q 393 123 352 97 q 464 181 435 150 q 493 215 493 212 l 493 319 l 396 319 z "},"ç":{"ha":708,"x_min":56,"x_max":681,"o":"m 534 625 q 489 633 525 628 q 410 639 453 639 q 256 574 310 639 q 201 382 201 510 q 258 170 201 243 q 416 97 315 97 q 523 116 475 97 q 602 156 571 135 q 632 180 632 178 l 681 97 q 645 70 681 94 q 555 20 608 45 q 444 -11 503 -4 l 444 -61 q 533 -104 500 -72 q 566 -184 566 -136 q 523 -271 566 -237 q 416 -304 481 -304 q 341 -296 376 -304 q 285 -278 306 -288 q 258 -265 264 -268 l 292 -208 q 314 -218 296 -211 q 358 -231 332 -225 q 410 -237 385 -237 q 456 -222 437 -237 q 475 -180 475 -207 q 444 -129 475 -149 q 361 -110 412 -110 l 361 -11 q 133 99 211 0 q 56 368 56 199 q 100 566 56 479 q 226 702 144 653 q 416 750 307 750 q 525 738 472 750 q 611 712 578 725 q 653 694 644 699 l 646 507 l 555 507 l 534 625 z "},"è":{"ha":749,"x_min":56,"x_max":688,"o":"m 201 347 q 257 165 201 233 q 403 97 313 97 q 516 114 464 97 q 602 151 568 131 q 636 174 636 171 l 685 102 q 640 68 685 99 q 529 12 595 37 q 389 -14 463 -14 q 140 85 224 -14 q 56 361 56 184 q 99 559 56 471 q 219 699 142 648 q 396 750 297 750 q 688 424 688 750 q 685 379 688 401 q 681 350 682 357 l 201 347 m 541 452 q 504 589 541 536 q 389 642 468 642 q 261 587 308 642 q 207 452 214 533 l 541 452 m 528 896 l 479 827 l 187 1007 l 256 1111 l 528 896 z "},"é":{"ha":749,"x_min":56,"x_max":688,"o":"m 201 347 q 257 165 201 233 q 403 97 313 97 q 516 114 464 97 q 602 151 568 131 q 636 174 636 171 l 685 102 q 640 68 685 99 q 529 12 595 37 q 389 -14 463 -14 q 140 85 224 -14 q 56 361 56 184 q 99 559 56 471 q 219 699 142 648 q 396 750 297 750 q 688 424 688 750 q 685 379 688 401 q 681 350 682 357 l 201 347 m 541 452 q 504 589 541 536 q 389 642 468 642 q 261 587 308 642 q 207 452 214 533 l 541 452 m 513 1111 l 583 1007 l 292 827 l 243 896 l 513 1111 z "},"ê":{"ha":736,"x_min":56,"x_max":688,"o":"m 126 896 l 335 1083 l 418 1090 l 627 896 l 571 833 l 379 983 l 182 833 l 126 896 m 201 347 q 257 165 201 233 q 403 97 313 97 q 516 114 464 97 q 602 151 568 131 q 636 174 636 171 l 685 102 q 640 68 685 99 q 529 12 595 37 q 389 -14 463 -14 q 140 85 224 -14 q 56 361 56 184 q 99 559 56 471 q 219 699 142 648 q 396 750 297 750 q 688 424 688 750 q 685 379 688 401 q 681 350 682 357 l 201 347 m 541 452 q 504 589 541 536 q 389 642 468 642 q 261 587 308 642 q 207 452 214 533 l 541 452 z "},"ë":{"ha":736,"x_min":56,"x_max":688,"o":"m 160 972 q 182 1033 160 1011 q 236 1055 204 1055 q 292 1033 272 1055 q 313 972 313 1011 q 290 911 313 934 q 236 889 268 889 q 180 911 200 889 q 160 972 160 933 m 444 972 q 467 1033 444 1011 q 521 1055 489 1055 q 577 1033 557 1055 q 597 972 597 1011 q 575 911 597 934 q 521 889 553 889 q 465 911 485 889 q 444 972 444 933 m 201 347 q 257 165 201 233 q 403 97 313 97 q 516 114 464 97 q 602 151 568 131 q 636 174 636 171 l 685 102 q 640 68 685 99 q 529 12 595 37 q 389 -14 463 -14 q 140 85 224 -14 q 56 361 56 184 q 99 559 56 471 q 219 699 142 648 q 396 750 297 750 q 688 424 688 750 q 685 379 688 401 q 681 350 682 357 l 201 347 m 541 452 q 504 589 541 536 q 389 642 468 642 q 261 587 308 642 q 207 452 214 533 l 541 452 z "},"ì":{"ha":465,"x_min":21,"x_max":416,"o":"m 416 0 l 56 0 l 56 77 l 174 111 l 174 625 l 56 653 l 56 729 l 313 736 l 313 111 l 416 77 l 416 0 m 361 896 l 313 827 l 21 1007 l 90 1111 l 361 896 z "},"í":{"ha":465,"x_min":56,"x_max":431,"o":"m 416 0 l 56 0 l 56 77 l 174 111 l 174 625 l 56 653 l 56 729 l 313 736 l 313 111 l 416 77 l 416 0 m 361 1111 l 431 1007 l 139 827 l 90 896 l 361 1111 z "},"î":{"ha":479,"x_min":0,"x_max":472,"o":"m 0 896 l 195 1083 l 278 1090 l 472 896 l 416 833 l 239 983 l 56 833 l 0 896 m 424 0 l 62 0 l 62 77 l 180 111 l 180 625 l 62 653 l 62 729 l 319 736 l 319 111 l 424 77 l 424 0 z "},"ï":{"ha":465,"x_min":21,"x_max":444,"o":"m 21 972 q 43 1033 21 1011 q 97 1055 65 1055 q 153 1033 133 1055 q 174 972 174 1011 q 151 911 174 934 q 97 889 129 889 q 41 911 61 889 q 21 972 21 933 m 292 972 q 314 1033 292 1011 q 368 1055 336 1055 q 424 1033 404 1055 q 444 972 444 1011 q 422 911 444 934 q 368 889 400 889 q 312 911 332 889 q 292 972 292 933 m 416 0 l 56 0 l 56 77 l 174 111 l 174 625 l 56 653 l 56 729 l 313 736 l 313 111 l 416 77 l 416 0 z "},"ð":{"ha":798,"x_min":56,"x_max":736,"o":"m 517 939 q 677 703 619 846 q 736 368 736 559 q 693 168 736 254 q 571 34 650 82 q 389 -14 492 -14 q 144 78 232 -14 q 56 340 56 170 q 147 616 56 517 q 396 715 239 715 q 567 657 492 715 q 411 882 517 795 l 229 785 l 174 861 l 323 942 q 187 1000 264 975 l 229 1088 q 435 1003 342 1061 l 590 1088 l 647 1010 l 517 939 m 403 604 q 201 347 201 604 q 250 163 201 229 q 396 97 298 97 q 544 162 498 97 q 590 354 590 227 q 546 539 590 475 q 403 604 503 604 z "},"ñ":{"ha":923,"x_min":56,"x_max":882,"o":"m 199 932 q 219 970 199 936 q 273 1033 239 1004 q 351 1061 307 1061 q 413 1053 385 1061 q 476 1028 441 1044 q 533 1006 509 1013 q 583 999 557 999 q 627 1012 606 999 q 662 1039 648 1025 q 677 1057 675 1053 l 726 1008 q 707 971 726 1004 q 654 909 688 937 q 576 882 621 882 q 515 890 543 882 q 452 916 486 899 q 395 938 418 931 q 345 945 371 945 q 297 931 318 945 q 263 902 275 917 q 248 884 250 888 l 199 932 m 297 637 q 411 712 340 675 q 555 750 481 750 q 722 684 667 750 q 778 500 778 618 l 778 111 l 882 77 l 882 0 l 549 0 l 549 77 l 639 111 l 639 486 q 610 597 639 562 q 514 632 581 632 q 417 607 461 632 q 342 553 372 582 q 313 521 313 524 l 313 111 l 403 77 l 403 0 l 56 0 l 56 77 l 174 111 l 174 625 l 56 653 l 56 729 l 285 736 l 297 637 z "},"ò":{"ha":791,"x_min":56,"x_max":736,"o":"m 410 750 q 650 651 564 750 q 736 382 736 551 q 693 175 736 265 q 571 36 650 85 q 389 -14 492 -14 q 143 81 231 -14 q 56 361 56 176 q 101 566 56 477 q 226 702 146 654 q 410 750 306 750 m 403 639 q 251 571 300 639 q 201 368 201 504 q 396 97 201 98 q 544 166 498 97 q 590 375 590 236 q 403 639 590 639 m 542 896 l 493 827 l 201 1007 l 271 1111 l 542 896 z "},"ó":{"ha":791,"x_min":56,"x_max":736,"o":"m 410 750 q 650 651 564 750 q 736 382 736 551 q 693 175 736 265 q 571 36 650 85 q 389 -14 492 -14 q 143 81 231 -14 q 56 361 56 176 q 101 566 56 477 q 226 702 146 654 q 410 750 306 750 m 403 639 q 251 571 300 639 q 201 368 201 504 q 396 97 201 98 q 544 166 498 97 q 590 375 590 236 q 403 639 590 639 m 521 1111 l 591 1007 l 299 827 l 250 896 l 521 1111 z "},"ô":{"ha":791,"x_min":56,"x_max":736,"o":"m 153 896 l 361 1083 l 444 1090 l 653 896 l 597 833 l 406 983 l 208 833 l 153 896 m 410 750 q 650 651 564 750 q 736 382 736 551 q 693 175 736 265 q 571 36 650 85 q 389 -14 492 -14 q 143 81 231 -14 q 56 361 56 176 q 101 566 56 477 q 226 702 146 654 q 410 750 306 750 m 403 639 q 251 571 300 639 q 201 368 201 504 q 396 97 201 98 q 544 166 498 97 q 590 375 590 236 q 403 639 590 639 z "},"õ":{"ha":791,"x_min":56,"x_max":736,"o":"m 132 930 q 153 969 132 935 q 208 1032 174 1003 q 285 1061 241 1061 q 347 1053 318 1061 q 412 1028 376 1044 q 471 1005 448 1013 q 521 997 494 997 q 566 1010 546 997 q 597 1037 586 1023 q 611 1055 608 1051 l 660 1007 q 641 970 660 1003 q 590 909 623 937 q 514 882 557 882 q 453 890 481 882 q 386 914 425 899 q 329 936 353 928 q 278 943 306 943 q 231 929 253 943 q 196 901 210 916 q 180 882 183 886 l 132 930 m 410 750 q 650 651 564 750 q 736 382 736 551 q 693 175 736 265 q 571 36 650 85 q 389 -14 492 -14 q 143 81 231 -14 q 56 361 56 176 q 101 566 56 477 q 226 702 146 654 q 410 750 306 750 m 403 639 q 251 571 300 639 q 201 368 201 504 q 396 97 201 98 q 544 166 498 97 q 590 375 590 236 q 403 639 590 639 z "},"ö":{"ha":791,"x_min":56,"x_max":736,"o":"m 174 972 q 196 1033 174 1011 q 250 1055 218 1055 q 306 1033 286 1055 q 326 972 326 1011 q 304 911 326 934 q 250 889 282 889 q 194 911 214 889 q 174 972 174 933 m 458 972 q 480 1033 458 1011 q 534 1055 503 1055 q 591 1033 570 1055 q 611 972 611 1011 q 589 911 611 934 q 534 889 567 889 q 478 911 498 889 q 458 972 458 933 m 410 750 q 650 651 564 750 q 736 382 736 551 q 693 175 736 265 q 571 36 650 85 q 389 -14 492 -14 q 143 81 231 -14 q 56 361 56 176 q 101 566 56 477 q 226 702 146 654 q 410 750 306 750 m 403 639 q 251 571 300 639 q 201 368 201 504 q 396 97 201 98 q 544 166 498 97 q 590 375 590 236 q 403 639 590 639 z "},"÷":{"ha":861,"x_min":69,"x_max":791,"o":"m 340 653 q 367 724 340 699 q 431 750 393 750 q 496 724 472 750 q 521 653 521 699 q 495 582 521 608 q 431 555 469 555 q 365 581 389 555 q 340 653 340 607 m 791 313 l 69 313 l 69 424 l 791 424 l 791 313 m 340 83 q 367 155 340 129 q 431 180 393 180 q 496 155 472 180 q 521 83 521 129 q 495 13 521 39 q 431 -14 469 -14 q 365 12 389 -14 q 340 83 340 37 z "},"ø":{"ha":805,"x_min":62,"x_max":743,"o":"m 165 64 q 62 361 62 159 q 107 566 62 477 q 233 702 153 654 q 416 750 313 750 q 558 722 494 750 l 646 868 l 729 819 l 639 668 q 717 547 690 621 q 743 382 743 473 q 700 175 743 265 q 578 36 657 85 q 396 -14 498 -14 q 248 12 315 -14 l 153 -146 l 69 -97 l 165 64 m 410 639 q 258 571 307 639 q 208 368 208 504 q 240 191 208 254 l 497 619 q 410 639 458 639 m 597 375 q 566 546 597 481 l 310 118 q 403 97 349 97 q 551 166 505 97 q 597 375 597 236 z "},"ù":{"ha":903,"x_min":28,"x_max":868,"o":"m 868 7 l 639 0 l 625 97 q 513 23 584 60 q 368 -14 441 -14 q 201 52 257 -14 q 146 235 146 117 l 146 625 l 28 653 l 28 729 l 285 736 l 285 249 q 314 140 285 175 q 410 104 343 104 q 507 129 463 104 q 581 182 551 153 q 611 214 611 211 l 611 625 l 493 653 l 493 729 l 750 736 l 750 111 l 868 83 l 868 7 m 583 896 l 534 827 l 243 1007 l 312 1111 l 583 896 z "},"ú":{"ha":903,"x_min":28,"x_max":868,"o":"m 868 7 l 639 0 l 625 97 q 513 23 584 60 q 368 -14 441 -14 q 201 52 257 -14 q 146 235 146 117 l 146 625 l 28 653 l 28 729 l 285 736 l 285 249 q 314 140 285 175 q 410 104 343 104 q 507 129 463 104 q 581 182 551 153 q 611 214 611 211 l 611 625 l 493 653 l 493 729 l 750 736 l 750 111 l 868 83 l 868 7 m 569 1111 l 639 1007 l 347 827 l 298 896 l 569 1111 z "},"û":{"ha":903,"x_min":28,"x_max":868,"o":"m 201 896 l 410 1083 l 493 1090 l 701 896 l 646 833 l 454 983 l 257 833 l 201 896 m 868 7 l 639 0 l 625 97 q 513 23 584 60 q 368 -14 441 -14 q 201 52 257 -14 q 146 235 146 117 l 146 625 l 28 653 l 28 729 l 285 736 l 285 249 q 314 140 285 175 q 410 104 343 104 q 507 129 463 104 q 581 182 551 153 q 611 214 611 211 l 611 625 l 493 653 l 493 729 l 750 736 l 750 111 l 868 83 l 868 7 z "},"ü":{"ha":903,"x_min":28,"x_max":868,"o":"m 215 972 q 237 1033 215 1011 q 292 1055 260 1055 q 348 1033 328 1055 q 368 972 368 1011 q 346 911 368 934 q 292 889 323 889 q 235 911 256 889 q 215 972 215 933 m 500 972 q 522 1033 500 1011 q 576 1055 545 1055 q 633 1033 612 1055 q 653 972 653 1011 q 631 911 653 934 q 576 889 608 889 q 520 911 541 889 q 500 972 500 933 m 868 7 l 639 0 l 625 97 q 513 23 584 60 q 368 -14 441 -14 q 201 52 257 -14 q 146 235 146 117 l 146 625 l 28 653 l 28 729 l 285 736 l 285 249 q 314 140 285 175 q 410 104 343 104 q 507 129 463 104 q 581 182 551 153 q 611 214 611 211 l 611 625 l 493 653 l 493 729 l 750 736 l 750 111 l 868 83 l 868 7 z "},"ý":{"ha":801,"x_min":14,"x_max":794,"o":"m 410 153 l 562 632 l 465 653 l 465 729 l 794 736 l 794 653 l 704 639 l 507 89 l 494 56 q 408 -146 448 -68 q 300 -279 368 -225 q 132 -334 232 -334 q 81 -331 110 -334 q 43 -326 52 -328 l 56 -229 l 125 -229 q 243 -172 193 -229 q 346 -3 294 -115 l 97 632 l 14 653 l 14 729 l 340 736 l 340 653 l 243 639 l 410 153 m 604 1111 l 674 1007 l 382 827 l 334 896 l 604 1111 z "},"þ":{"ha":854,"x_min":35,"x_max":791,"o":"m 41 -243 l 153 -215 l 153 958 l 35 986 l 35 1063 l 292 1069 l 292 667 q 323 691 292 669 q 398 731 354 713 q 493 750 443 750 q 716 653 640 750 q 791 389 791 555 q 697 95 791 204 q 416 -14 603 -14 q 358 -9 386 -14 q 313 -1 330 -5 q 292 5 296 4 l 292 -215 l 437 -243 l 437 -319 l 41 -319 l 41 -243 m 292 125 q 310 116 294 122 q 359 103 326 110 q 437 97 392 97 q 646 375 646 97 q 601 567 646 496 q 465 639 555 639 q 371 617 410 639 q 312 571 332 596 q 292 542 292 546 l 292 125 z "},"ÿ":{"ha":801,"x_min":14,"x_max":794,"o":"m 187 972 q 210 1033 187 1011 q 264 1055 232 1055 q 320 1033 300 1055 q 340 972 340 1011 q 318 911 340 934 q 264 889 296 889 q 208 911 228 889 q 187 972 187 933 m 472 972 q 494 1033 472 1011 q 549 1055 517 1055 q 605 1033 585 1055 q 625 972 625 1011 q 603 911 625 934 q 549 889 581 889 q 492 911 513 889 q 472 972 472 933 m 340 736 l 340 653 l 243 639 l 410 153 l 562 632 l 465 653 l 465 729 l 794 736 l 794 653 l 704 639 l 507 89 l 494 56 q 408 -146 448 -68 q 300 -279 368 -225 q 132 -334 232 -334 q 81 -331 110 -334 q 43 -326 52 -328 l 56 -229 l 125 -229 q 243 -172 193 -229 q 346 -3 294 -115 l 97 632 l 14 653 l 14 729 l 340 736 z "},"Ā":{"ha":1006,"x_min":7,"x_max":1000,"o":"m 701 1097 l 326 1097 l 326 1202 l 701 1202 l 701 1097 m 437 965 l 576 972 l 885 110 l 1000 83 l 1000 0 l 597 0 l 597 83 l 726 110 l 673 264 l 313 264 l 258 110 l 389 83 l 389 0 l 7 0 l 7 83 l 121 110 l 437 965 m 496 793 l 350 375 l 636 375 l 496 793 z "},"ā":{"ha":785,"x_min":62,"x_max":743,"o":"m 567 917 l 192 917 l 192 1021 l 567 1021 l 567 917 m 104 694 q 159 712 115 699 q 262 738 203 725 q 375 750 322 750 q 567 700 501 750 q 632 534 632 650 l 632 111 l 743 83 l 743 7 l 528 0 l 498 97 q 395 19 454 52 q 271 -14 336 -14 q 117 41 172 -14 q 62 195 62 96 q 145 360 62 310 q 382 410 228 410 l 493 410 l 493 521 q 459 614 493 582 q 361 646 425 646 q 292 641 323 646 q 243 631 261 636 q 221 625 225 627 l 201 521 l 111 521 l 104 694 m 396 319 q 249 292 293 319 q 204 201 204 264 q 231 125 204 154 q 306 97 258 97 q 393 122 352 97 q 464 176 435 147 q 493 208 493 205 l 493 319 l 396 319 z "},"Ă":{"ha":1006,"x_min":7,"x_max":1000,"o":"m 437 965 l 576 972 l 885 110 l 1000 83 l 1000 0 l 597 0 l 597 83 l 726 110 l 673 264 l 313 264 l 258 110 l 389 83 l 389 0 l 7 0 l 7 83 l 121 110 l 437 965 m 496 793 l 350 375 l 636 375 l 496 793 m 701 1264 q 674 1156 701 1203 q 601 1082 647 1108 q 500 1056 555 1056 q 408 1081 451 1056 q 339 1154 366 1107 q 313 1257 313 1200 l 396 1264 q 405 1232 396 1257 q 439 1183 414 1206 q 507 1160 464 1160 q 578 1181 553 1160 q 610 1226 603 1203 q 618 1257 618 1249 l 701 1264 z "},"ă":{"ha":785,"x_min":62,"x_max":743,"o":"m 104 694 q 159 712 115 699 q 262 738 203 725 q 375 750 322 750 q 567 700 501 750 q 632 534 632 650 l 632 111 l 743 83 l 743 7 l 528 0 l 498 97 q 395 19 454 52 q 271 -14 336 -14 q 117 41 172 -14 q 62 195 62 96 q 145 360 62 310 q 382 410 228 410 l 493 410 l 493 521 q 459 614 493 582 q 361 646 425 646 q 292 641 323 646 q 243 631 261 636 q 221 625 225 627 l 201 521 l 111 521 l 104 694 m 396 319 q 249 292 293 319 q 204 201 204 264 q 231 125 204 154 q 306 97 258 97 q 393 122 352 97 q 464 176 435 147 q 493 208 493 205 l 493 319 l 396 319 m 562 1063 q 535 954 562 1002 q 462 881 508 907 q 361 854 416 854 q 269 880 312 854 q 200 952 227 905 q 174 1055 174 999 l 257 1063 q 266 1030 257 1056 q 300 981 275 1004 q 368 958 325 958 q 439 980 414 958 q 471 1024 464 1002 q 479 1055 479 1047 l 562 1063 z "},"Ą":{"ha":1006,"x_min":7,"x_max":1000,"o":"m 437 965 l 576 972 l 886 104 l 1000 82 l 1000 0 q 838 -63 913 -20 q 764 -160 764 -106 q 781 -207 764 -191 q 827 -222 799 -222 q 864 -218 845 -222 q 889 -212 884 -214 l 903 -278 q 882 -287 899 -281 q 841 -299 865 -293 q 791 -306 817 -306 q 692 -270 732 -306 q 653 -174 653 -235 q 703 -67 653 -111 q 806 0 753 -24 l 597 0 l 597 83 l 726 110 l 673 264 l 313 264 l 258 110 l 389 83 l 389 0 l 7 0 l 7 83 l 121 110 l 437 965 m 496 793 l 350 375 l 636 375 l 496 793 z "},"ą":{"ha":791,"x_min":62,"x_max":743,"o":"m 743 7 q 696 -18 743 9 q 613 -83 650 -46 q 576 -160 576 -119 q 594 -207 576 -191 q 639 -222 611 -222 q 676 -218 657 -222 q 701 -212 696 -214 l 715 -278 q 694 -287 711 -281 q 653 -299 677 -293 q 604 -306 629 -306 q 505 -270 545 -306 q 465 -174 465 -235 q 514 -62 465 -107 q 608 3 562 -17 l 528 0 l 498 97 q 395 19 454 52 q 271 -14 336 -14 q 117 41 172 -14 q 62 195 62 96 q 145 360 62 310 q 382 410 228 410 l 493 410 l 493 521 q 459 614 493 582 q 361 646 425 646 q 292 641 323 646 q 243 631 261 636 q 221 625 225 627 l 201 521 l 111 521 l 104 694 q 159 712 115 699 q 262 738 203 725 q 375 750 322 750 q 567 700 501 750 q 632 534 632 650 l 632 111 l 743 83 l 743 7 m 204 201 q 231 125 204 154 q 306 97 258 97 q 393 122 352 97 q 464 176 435 147 q 493 208 493 205 l 493 319 l 396 319 q 249 292 293 319 q 204 201 204 264 z "},"Ć":{"ha":923,"x_min":83,"x_max":875,"o":"m 713 840 q 683 849 707 843 q 620 862 660 856 q 534 868 581 868 q 318 766 394 868 q 243 472 243 664 q 324 201 243 292 q 542 111 406 111 q 669 136 607 111 q 775 191 730 161 q 819 222 819 220 l 875 132 q 825 90 875 128 q 698 19 775 52 q 528 -14 621 -14 q 200 110 317 -14 q 83 465 83 233 q 140 741 83 623 q 302 922 197 859 q 549 986 407 986 q 686 971 616 986 q 808 937 755 956 q 861 917 861 918 l 854 681 l 750 681 l 713 840 m 350 1095 l 603 1296 l 673 1194 l 403 1021 l 350 1095 z "},"ć":{"ha":708,"x_min":56,"x_max":681,"o":"m 534 625 q 489 633 525 628 q 410 639 453 639 q 256 574 310 639 q 201 382 201 510 q 258 170 201 243 q 416 97 315 97 q 523 116 475 97 q 602 156 571 135 q 632 180 632 178 l 681 97 q 638 65 681 94 q 533 11 595 36 q 403 -14 471 -14 q 144 87 233 -14 q 56 368 56 187 q 100 566 56 479 q 226 702 144 653 q 416 750 307 750 q 525 738 472 750 q 611 712 578 725 q 653 694 644 699 l 646 507 l 555 507 l 534 625 m 534 1111 l 604 1007 l 313 827 l 264 896 l 534 1111 z "},"Ĉ":{"ha":923,"x_min":83,"x_max":875,"o":"m 285 1104 l 486 1271 l 570 1278 l 771 1104 l 715 1042 l 530 1171 l 340 1042 l 285 1104 m 713 840 q 683 849 707 843 q 620 862 660 856 q 534 868 581 868 q 318 766 394 868 q 243 472 243 664 q 324 201 243 292 q 542 111 406 111 q 669 136 607 111 q 775 191 730 161 q 819 222 819 220 l 875 132 q 825 90 875 128 q 698 19 775 52 q 528 -14 621 -14 q 200 110 317 -14 q 83 465 83 233 q 140 741 83 623 q 302 922 197 859 q 549 986 407 986 q 686 971 616 986 q 808 937 755 956 q 861 917 861 918 l 854 682 l 750 682 l 713 840 z "},"ĉ":{"ha":708,"x_min":56,"x_max":681,"o":"m 139 896 l 347 1083 l 431 1090 l 639 896 l 583 833 l 392 983 l 195 833 l 139 896 m 534 625 q 489 633 525 628 q 410 639 453 639 q 256 574 310 639 q 201 382 201 510 q 258 170 201 243 q 416 97 315 97 q 523 116 475 97 q 602 156 571 135 q 632 180 632 178 l 681 97 q 638 65 681 94 q 533 11 595 36 q 403 -14 471 -14 q 144 87 233 -14 q 56 368 56 187 q 100 566 56 479 q 226 702 144 653 q 416 750 307 750 q 525 738 472 750 q 611 712 578 725 q 653 694 644 699 l 646 507 l 555 507 l 534 625 z "},"Ċ":{"ha":923,"x_min":83,"x_max":875,"o":"m 458 1146 q 480 1207 458 1185 q 534 1229 503 1229 q 591 1207 570 1229 q 611 1146 611 1185 q 589 1085 611 1107 q 534 1063 567 1063 q 478 1085 498 1063 q 458 1146 458 1107 m 713 840 q 683 849 707 843 q 620 862 660 856 q 534 868 581 868 q 318 766 394 868 q 243 472 243 664 q 324 201 243 292 q 542 111 406 111 q 669 136 607 111 q 775 191 730 161 q 819 222 819 220 l 875 132 q 825 90 875 128 q 698 19 775 52 q 528 -14 621 -14 q 200 110 317 -14 q 83 465 83 233 q 140 741 83 623 q 302 922 197 859 q 549 986 407 986 q 686 971 616 986 q 808 937 755 956 q 861 917 861 918 l 854 682 l 750 682 l 713 840 z "},"ċ":{"ha":708,"x_min":56,"x_max":681,"o":"m 334 972 q 356 1033 334 1011 q 410 1055 378 1055 q 466 1033 446 1055 q 486 972 486 1011 q 464 911 486 934 q 410 889 441 889 q 354 911 374 889 q 334 972 334 933 m 534 625 q 489 633 525 628 q 410 639 453 639 q 256 574 310 639 q 201 382 201 510 q 258 170 201 243 q 416 97 315 97 q 523 116 475 97 q 602 156 571 135 q 632 180 632 178 l 681 97 q 638 65 681 94 q 533 11 595 36 q 403 -14 471 -14 q 144 87 233 -14 q 56 368 56 187 q 100 566 56 479 q 226 702 144 653 q 416 750 307 750 q 525 738 472 750 q 611 712 578 725 q 653 694 644 699 l 646 507 l 555 507 l 534 625 z "},"Č":{"ha":923,"x_min":83,"x_max":875,"o":"m 713 840 q 683 849 707 843 q 620 862 660 856 q 534 868 581 868 q 318 766 394 868 q 243 472 243 664 q 324 201 243 292 q 542 111 406 111 q 669 136 607 111 q 775 191 730 161 q 819 222 819 220 l 875 132 q 825 90 875 128 q 698 19 775 52 q 528 -14 621 -14 q 200 110 317 -14 q 83 465 83 233 q 140 741 83 623 q 302 922 197 859 q 549 986 407 986 q 686 971 616 986 q 808 937 755 956 q 861 917 861 918 l 854 681 l 750 681 l 713 840 m 749 1215 l 547 1048 l 464 1042 l 262 1215 l 318 1278 l 503 1149 l 693 1278 l 749 1215 z "},"č":{"ha":708,"x_min":56,"x_max":681,"o":"m 534 625 q 489 633 525 628 q 410 639 453 639 q 256 574 310 639 q 201 382 201 510 q 258 170 201 243 q 416 97 315 97 q 523 116 475 97 q 602 156 571 135 q 632 180 632 178 l 681 97 q 638 65 681 94 q 533 11 595 36 q 403 -14 471 -14 q 144 87 233 -14 q 56 368 56 187 q 100 566 56 479 q 226 702 144 653 q 416 750 307 750 q 525 738 472 750 q 611 712 578 725 q 653 694 644 699 l 646 507 l 555 507 l 534 625 m 586 1090 l 642 1028 l 433 840 l 350 833 l 142 1028 l 197 1090 l 389 940 l 586 1090 z "},"Ď":{"ha":1014,"x_min":62,"x_max":937,"o":"m 180 861 l 62 889 l 62 965 l 326 972 l 500 972 q 821 849 705 972 q 937 500 937 726 q 881 235 937 349 q 721 61 825 122 q 479 0 616 0 l 62 0 l 62 83 l 180 111 l 180 861 m 486 111 q 700 206 623 111 q 778 493 778 301 q 703 771 778 680 q 493 861 628 861 l 326 861 l 326 111 l 486 111 m 754 1215 l 553 1048 l 469 1042 l 268 1215 l 323 1278 l 508 1149 l 699 1278 l 754 1215 z "},"ď":{"ha":960,"x_min":62,"x_max":960,"o":"m 778 796 q 815 945 804 878 q 823 1076 827 1013 l 960 1083 q 934 947 960 1023 q 860 766 908 871 l 778 796 m 819 7 l 583 0 l 572 79 q 354 -14 479 -14 q 135 83 208 -14 q 62 347 62 179 q 156 641 62 532 q 431 750 249 750 q 562 728 498 750 l 562 958 l 444 986 l 444 1063 l 701 1069 l 701 111 l 819 83 l 819 7 m 562 611 q 542 620 558 614 q 492 633 525 627 q 416 639 460 639 q 208 361 208 639 q 251 168 208 239 q 382 97 293 97 q 475 120 435 97 q 539 170 515 143 q 562 201 562 197 l 562 611 z "},"Đ":{"ha":1025,"x_min":62,"x_max":942,"o":"m 180 861 l 62 889 l 62 965 l 326 972 l 504 972 q 826 849 709 972 q 942 500 942 726 q 886 235 942 349 q 725 61 829 122 q 484 0 621 0 l 62 0 l 62 83 l 180 111 l 180 458 l 62 458 l 62 570 l 180 570 l 180 861 m 542 458 l 325 458 l 325 111 l 490 111 q 704 206 627 111 q 782 493 782 301 q 707 771 782 680 q 497 861 632 861 l 325 861 l 325 570 l 542 570 l 542 458 z "},"đ":{"ha":861,"x_min":62,"x_max":819,"o":"m 819 799 l 701 799 l 701 111 l 819 83 l 819 7 l 583 0 l 572 79 q 354 -14 479 -14 q 135 83 208 -14 q 62 347 62 179 q 156 641 62 532 q 431 750 249 750 q 562 728 498 750 l 562 799 l 416 799 l 416 903 l 562 903 l 562 958 l 444 986 l 444 1063 l 701 1069 l 701 903 l 819 903 l 819 799 m 562 611 q 542 620 558 614 q 492 633 525 627 q 416 639 460 639 q 208 361 208 639 q 251 168 208 239 q 382 97 293 97 q 475 120 435 97 q 539 170 515 143 q 562 201 562 197 l 562 611 z "},"Ē":{"ha":854,"x_min":69,"x_max":771,"o":"m 653 1097 l 278 1097 l 278 1202 l 653 1202 l 653 1097 m 653 562 l 653 452 l 334 452 l 334 111 l 653 111 l 681 250 l 771 250 l 771 0 l 69 0 l 69 83 l 187 111 l 187 861 l 69 889 l 69 965 l 334 972 l 757 972 l 757 736 l 667 736 l 632 861 l 334 861 l 334 562 l 653 562 z "},"ē":{"ha":736,"x_min":56,"x_max":688,"o":"m 585 917 l 210 917 l 210 1021 l 585 1021 l 585 917 m 201 347 q 257 165 201 233 q 403 97 313 97 q 516 114 464 97 q 602 151 568 131 q 636 174 636 171 l 685 102 q 640 68 685 99 q 529 12 595 37 q 389 -14 463 -14 q 140 85 224 -14 q 56 361 56 184 q 99 559 56 471 q 219 699 142 648 q 396 750 297 750 q 688 424 688 750 q 685 379 688 401 q 681 350 682 357 l 201 347 m 541 452 q 504 589 541 536 q 389 642 468 642 q 261 587 308 642 q 207 452 214 533 l 541 452 z "},"Ĕ":{"ha":854,"x_min":69,"x_max":771,"o":"m 653 562 l 653 452 l 334 452 l 334 111 l 653 111 l 681 250 l 771 250 l 771 0 l 69 0 l 69 83 l 187 111 l 187 861 l 69 889 l 69 965 l 334 972 l 757 972 l 757 736 l 667 736 l 632 861 l 334 861 l 334 562 l 653 562 m 652 1264 q 625 1156 652 1203 q 552 1082 598 1108 q 451 1056 507 1056 q 359 1081 402 1056 q 290 1154 317 1107 q 264 1257 264 1200 l 347 1264 q 356 1232 347 1257 q 390 1183 365 1206 q 458 1160 415 1160 q 529 1181 505 1160 q 562 1226 554 1203 q 569 1257 569 1249 l 652 1264 z "},"ĕ":{"ha":736,"x_min":56,"x_max":688,"o":"m 578 1063 q 551 954 578 1002 q 478 881 524 907 q 376 854 432 854 q 284 880 328 854 q 215 952 241 905 q 189 1055 189 999 l 272 1063 q 281 1030 272 1056 q 315 981 290 1004 q 383 958 340 958 q 454 980 429 958 q 487 1024 479 1002 q 494 1055 494 1047 l 578 1063 m 201 347 q 257 165 201 233 q 403 97 313 97 q 516 114 464 97 q 602 151 568 131 q 636 174 636 171 l 685 102 q 640 68 685 99 q 529 12 595 37 q 389 -14 463 -14 q 140 85 224 -14 q 56 361 56 184 q 99 559 56 471 q 219 699 142 648 q 396 750 297 750 q 688 424 688 750 q 685 379 688 401 q 681 350 682 357 l 201 347 m 541 452 q 504 589 541 536 q 389 642 468 642 q 261 587 308 642 q 207 452 214 533 l 541 452 z "},"Ė":{"ha":854,"x_min":69,"x_max":771,"o":"m 361 1146 q 383 1207 361 1185 q 437 1229 406 1229 q 494 1207 473 1229 q 514 1146 514 1185 q 492 1085 514 1107 q 437 1063 469 1063 q 381 1085 401 1063 q 361 1146 361 1107 m 653 562 l 653 452 l 334 452 l 334 111 l 653 111 l 681 250 l 771 250 l 771 0 l 69 0 l 69 83 l 187 111 l 187 861 l 69 889 l 69 965 l 334 972 l 757 972 l 757 736 l 667 736 l 632 861 l 334 861 l 334 562 l 653 562 z "},"ė":{"ha":736,"x_min":56,"x_max":688,"o":"m 326 972 q 349 1033 326 1011 q 403 1055 371 1055 q 459 1033 439 1055 q 479 972 479 1011 q 457 911 479 934 q 403 889 435 889 q 347 911 367 889 q 326 972 326 933 m 201 347 q 257 165 201 233 q 403 97 313 97 q 516 114 464 97 q 602 151 568 131 q 636 174 636 171 l 685 102 q 640 68 685 99 q 529 12 595 37 q 389 -14 463 -14 q 140 85 224 -14 q 56 361 56 184 q 99 559 56 471 q 219 699 142 648 q 396 750 297 750 q 688 424 688 750 q 685 379 688 401 q 681 350 682 357 l 201 347 m 541 452 q 504 589 541 536 q 389 642 468 642 q 261 587 308 642 q 207 452 214 533 l 541 452 z "},"Ę":{"ha":854,"x_min":69,"x_max":771,"o":"m 764 -278 q 743 -287 760 -281 q 702 -299 726 -293 q 653 -306 677 -306 q 554 -270 593 -306 q 514 -174 514 -235 q 543 -85 514 -123 q 609 -22 572 -47 q 646 0 646 3 l 69 0 l 69 83 l 187 111 l 187 861 l 69 889 l 69 965 l 334 972 l 757 972 l 757 736 l 667 736 l 632 861 l 334 861 l 334 562 l 653 562 l 653 452 l 334 452 l 334 111 l 653 111 l 681 250 l 771 250 l 771 0 q 731 -24 771 3 q 658 -87 690 -52 q 625 -160 625 -122 q 643 -207 625 -191 q 688 -222 660 -222 q 725 -218 706 -222 q 750 -212 745 -214 l 764 -278 z "},"ę":{"ha":736,"x_min":56,"x_max":688,"o":"m 685 102 q 530 -22 610 52 q 450 -160 450 -96 q 468 -207 450 -191 q 513 -222 485 -222 q 550 -218 531 -222 q 575 -212 570 -214 l 589 -278 q 568 -287 585 -281 q 527 -299 551 -293 q 478 -306 503 -306 q 379 -270 418 -306 q 339 -174 339 -235 q 433 -9 339 -94 q 389 -14 411 -14 q 140 85 224 -14 q 56 361 56 184 q 99 559 56 471 q 219 699 142 648 q 396 750 297 750 q 688 424 688 750 q 685 379 688 401 q 681 350 682 357 l 201 347 q 257 165 201 233 q 403 97 313 97 q 516 114 464 97 q 602 151 568 131 q 636 174 636 171 l 685 102 m 541 452 q 504 589 541 536 q 389 642 468 642 q 261 587 308 642 q 207 452 214 533 l 541 452 z "},"Ě":{"ha":854,"x_min":69,"x_max":771,"o":"m 653 562 l 653 452 l 334 452 l 334 111 l 653 111 l 681 250 l 771 250 l 771 0 l 69 0 l 69 83 l 187 111 l 187 861 l 69 889 l 69 965 l 334 972 l 757 972 l 757 736 l 667 736 l 632 861 l 334 861 l 334 562 l 653 562 m 706 1215 l 505 1048 l 421 1042 l 220 1215 l 275 1278 l 460 1149 l 650 1278 l 706 1215 z "},"ě":{"ha":749,"x_min":56,"x_max":688,"o":"m 201 347 q 257 165 201 233 q 403 97 313 97 q 516 114 464 97 q 602 151 568 131 q 636 174 636 171 l 685 102 q 640 68 685 99 q 529 12 595 37 q 389 -14 463 -14 q 140 85 224 -14 q 56 361 56 184 q 99 559 56 471 q 219 699 142 648 q 396 750 297 750 q 688 424 688 750 q 685 379 688 401 q 681 350 682 357 l 201 347 m 541 452 q 504 589 541 536 q 389 642 468 642 q 261 587 308 642 q 207 452 214 533 l 541 452 m 583 1090 l 639 1028 l 431 840 l 347 833 l 139 1028 l 195 1090 l 387 940 l 583 1090 z "},"Ĝ":{"ha":1042,"x_min":83,"x_max":986,"o":"m 278 1104 l 479 1271 l 562 1278 l 764 1104 l 708 1042 l 524 1171 l 334 1042 l 278 1104 m 882 69 q 830 45 882 66 q 699 5 778 24 q 528 -14 619 -14 q 200 110 317 -14 q 83 465 83 233 q 140 741 83 623 q 302 922 197 859 q 549 986 407 986 q 686 971 616 986 q 808 937 755 956 q 861 917 861 918 l 854 688 l 764 688 l 722 840 q 690 849 715 843 q 622 862 664 856 q 534 868 581 868 q 318 766 394 868 q 243 472 243 664 q 326 197 243 290 q 549 104 408 104 q 634 112 591 104 q 707 128 677 119 q 743 139 736 136 l 743 367 l 625 395 l 625 471 l 986 478 l 986 395 l 882 367 l 882 69 z "},"ĝ":{"ha":812,"x_min":62,"x_max":778,"o":"m 167 896 l 375 1083 l 458 1090 l 667 896 l 611 833 l 419 983 l 222 833 l 167 896 m 643 633 q 655 613 646 629 q 672 565 664 596 q 681 493 681 533 q 599 290 681 357 q 375 222 517 222 q 307 227 336 222 q 271 235 278 232 l 264 104 l 479 104 q 686 53 616 104 q 757 -97 757 1 q 665 -281 757 -215 q 396 -347 574 -347 q 151 -301 239 -347 q 62 -146 62 -254 q 95 -51 62 -90 q 168 9 127 -12 q 208 28 208 31 q 185 33 208 26 q 144 58 163 40 q 125 107 125 75 q 141 163 125 128 q 174 227 157 197 q 197 264 192 256 q 168 285 197 260 q 114 358 138 310 q 90 479 90 406 q 173 681 90 612 q 396 750 256 750 q 467 745 436 750 q 514 733 497 739 q 534 724 530 726 l 778 729 l 778 653 l 643 633 m 389 653 q 268 612 307 653 q 229 486 229 571 q 268 365 229 410 q 382 319 307 319 q 504 359 465 319 q 542 486 542 399 q 504 610 542 567 q 389 653 465 653 m 292 0 q 267 -15 292 3 q 221 -60 241 -32 q 201 -125 201 -87 q 255 -218 201 -193 q 416 -243 309 -243 q 574 -210 522 -243 q 625 -111 625 -178 q 580 -24 625 -47 q 444 0 534 0 l 292 0 z "},"Ğ":{"ha":1042,"x_min":83,"x_max":986,"o":"m 882 69 q 830 45 882 66 q 699 5 778 24 q 528 -14 619 -14 q 200 110 317 -14 q 83 465 83 233 q 140 741 83 623 q 302 922 197 859 q 549 986 407 986 q 686 971 616 986 q 808 937 755 956 q 861 917 861 918 l 854 688 l 764 688 l 722 840 q 690 849 715 843 q 622 862 664 856 q 534 868 581 868 q 318 766 394 868 q 243 472 243 664 q 326 197 243 290 q 549 104 408 104 q 634 112 591 104 q 707 128 677 119 q 743 139 736 136 l 743 367 l 625 395 l 625 471 l 986 478 l 986 395 l 882 367 l 882 69 m 722 1264 q 695 1156 722 1203 q 622 1082 668 1108 q 521 1056 576 1056 q 429 1081 472 1056 q 360 1154 387 1107 q 334 1257 334 1200 l 417 1264 q 426 1232 417 1257 q 460 1183 435 1206 q 528 1160 485 1160 q 599 1181 574 1160 q 631 1226 624 1203 q 639 1257 639 1249 l 722 1264 z "},"ğ":{"ha":812,"x_min":62,"x_max":778,"o":"m 643 633 q 655 613 646 629 q 672 565 664 596 q 681 493 681 533 q 599 290 681 357 q 375 222 517 222 q 307 227 336 222 q 271 235 278 232 l 264 104 l 479 104 q 686 53 616 104 q 757 -97 757 1 q 665 -281 757 -215 q 396 -347 574 -347 q 151 -301 239 -347 q 62 -146 62 -254 q 95 -51 62 -90 q 168 9 127 -12 q 208 28 208 31 q 185 33 208 26 q 144 58 163 40 q 125 107 125 75 q 141 163 125 128 q 174 227 157 197 q 197 264 192 256 q 168 285 197 260 q 114 358 138 310 q 90 479 90 406 q 173 681 90 612 q 396 750 256 750 q 467 745 436 750 q 514 733 497 739 q 534 724 530 726 l 778 729 l 778 653 l 643 633 m 389 653 q 268 612 307 653 q 229 486 229 571 q 268 365 229 410 q 382 319 307 319 q 504 359 465 319 q 542 486 542 399 q 504 610 542 567 q 389 653 465 653 m 292 0 q 267 -15 292 3 q 221 -60 241 -32 q 201 -125 201 -87 q 255 -218 201 -193 q 416 -243 309 -243 q 574 -210 522 -243 q 625 -111 625 -178 q 580 -24 625 -47 q 444 0 534 0 l 292 0 m 593 1063 q 566 954 593 1002 q 493 881 538 907 q 391 854 447 854 q 300 880 342 854 q 231 952 257 905 q 204 1055 204 999 l 288 1063 q 296 1030 288 1056 q 330 981 305 1004 q 399 958 355 958 q 470 980 445 958 q 502 1024 494 1002 q 509 1055 509 1047 l 593 1063 z "},"Ġ":{"ha":1042,"x_min":83,"x_max":986,"o":"m 437 1146 q 460 1207 437 1185 q 514 1229 482 1229 q 570 1207 550 1229 q 590 1146 590 1185 q 568 1085 590 1107 q 514 1063 546 1063 q 458 1085 478 1063 q 437 1146 437 1107 m 882 69 q 830 45 882 66 q 699 5 778 24 q 528 -14 619 -14 q 200 110 317 -14 q 83 465 83 233 q 140 741 83 623 q 302 922 197 859 q 549 986 407 986 q 686 971 616 986 q 808 937 755 956 q 861 917 861 918 l 854 688 l 764 688 l 722 840 q 690 849 715 843 q 622 862 664 856 q 534 868 581 868 q 318 766 394 868 q 243 472 243 664 q 326 197 243 290 q 549 104 408 104 q 634 112 591 104 q 707 128 677 119 q 743 139 736 136 l 743 367 l 625 395 l 625 471 l 986 478 l 986 395 l 882 367 l 882 69 z "},"ġ":{"ha":812,"x_min":62,"x_max":778,"o":"m 315 972 q 337 1033 315 1011 q 392 1055 359 1055 q 448 1033 428 1055 q 468 972 468 1011 q 446 911 468 934 q 392 889 424 889 q 336 911 356 889 q 315 972 315 933 m 643 633 q 655 613 646 629 q 672 565 664 596 q 681 493 681 533 q 599 290 681 357 q 375 222 517 222 q 307 227 336 222 q 271 235 278 232 l 264 104 l 479 104 q 686 53 616 104 q 757 -97 757 1 q 665 -281 757 -215 q 396 -347 574 -347 q 151 -301 239 -347 q 62 -146 62 -254 q 95 -51 62 -90 q 168 9 127 -12 q 208 28 208 31 q 185 33 208 26 q 144 58 163 40 q 125 107 125 75 q 141 163 125 128 q 174 227 157 197 q 197 264 192 256 q 168 285 197 260 q 114 358 138 310 q 90 479 90 406 q 173 681 90 612 q 396 750 256 750 q 467 745 436 750 q 514 733 497 739 q 534 724 530 726 l 778 729 l 778 653 l 643 633 m 389 653 q 268 612 307 653 q 229 486 229 571 q 268 365 229 410 q 382 319 307 319 q 504 359 465 319 q 542 486 542 399 q 504 610 542 567 q 389 653 465 653 m 292 0 q 267 -15 292 3 q 221 -60 241 -32 q 201 -125 201 -87 q 255 -218 201 -193 q 416 -243 309 -243 q 574 -210 522 -243 q 625 -111 625 -178 q 580 -24 625 -47 q 444 0 534 0 l 292 0 z "},"Ģ":{"ha":1042,"x_min":83,"x_max":986,"o":"m 417 -155 q 441 -93 417 -117 q 500 -69 465 -69 q 561 -94 538 -69 q 584 -160 584 -118 q 543 -277 584 -214 q 431 -396 502 -339 l 375 -340 q 397 -317 380 -335 q 430 -277 414 -298 q 445 -243 445 -256 q 433 -212 445 -235 q 422 -185 428 -200 q 417 -155 417 -170 m 882 69 q 830 45 882 66 q 699 5 778 24 q 528 -14 619 -14 q 200 110 317 -14 q 83 465 83 233 q 140 741 83 623 q 302 922 197 859 q 549 986 407 986 q 686 971 616 986 q 808 937 755 956 q 861 917 861 918 l 854 688 l 764 688 l 722 840 q 690 849 715 843 q 622 862 664 856 q 534 868 581 868 q 318 766 394 868 q 243 472 243 664 q 326 197 243 290 q 549 104 408 104 q 634 112 591 104 q 707 128 677 119 q 743 139 736 136 l 743 367 l 625 395 l 625 471 l 986 478 l 986 395 l 882 367 l 882 69 z "},"ģ":{"ha":812,"x_min":62,"x_max":778,"o":"m 361 1035 q 385 1096 361 1074 q 444 1118 408 1118 q 505 1096 483 1118 q 528 1028 528 1074 q 372 800 528 917 l 319 860 q 344 881 325 864 q 379 918 363 897 q 396 951 396 939 q 383 979 396 960 q 367 1006 372 995 q 361 1035 361 1018 m 643 633 q 655 613 646 629 q 672 565 664 596 q 681 493 681 533 q 599 290 681 357 q 375 222 517 222 q 307 227 336 222 q 271 235 278 232 l 264 104 l 479 104 q 686 53 616 104 q 757 -97 757 1 q 665 -281 757 -215 q 396 -347 574 -347 q 151 -301 239 -347 q 62 -146 62 -254 q 95 -51 62 -90 q 168 9 127 -12 q 208 28 208 31 q 185 33 208 26 q 144 58 163 40 q 125 107 125 75 q 141 163 125 128 q 174 227 157 197 q 197 264 192 256 q 168 285 197 260 q 114 358 138 310 q 90 479 90 406 q 173 681 90 612 q 396 750 256 750 q 467 745 436 750 q 514 733 497 739 q 534 724 530 726 l 778 729 l 778 653 l 643 633 m 389 653 q 268 612 307 653 q 229 486 229 571 q 268 365 229 410 q 382 319 307 319 q 504 359 465 319 q 542 486 542 399 q 504 610 542 567 q 389 653 465 653 m 292 0 q 267 -15 292 3 q 221 -60 241 -32 q 201 -125 201 -87 q 255 -218 201 -193 q 416 -243 309 -243 q 574 -210 522 -243 q 625 -111 625 -178 q 580 -24 625 -47 q 444 0 534 0 l 292 0 z "},"Ĥ":{"ha":1104,"x_min":56,"x_max":1048,"o":"m 309 1104 l 510 1271 l 593 1278 l 794 1104 l 739 1042 l 554 1171 l 364 1042 l 309 1104 m 56 83 l 174 111 l 174 861 l 56 889 l 56 965 l 452 972 l 452 889 l 319 861 l 319 555 l 785 555 l 785 861 l 653 889 l 653 965 l 1048 972 l 1048 889 l 930 861 l 930 111 l 1048 83 l 1048 0 l 653 0 l 653 83 l 785 111 l 785 444 l 319 444 l 319 111 l 452 83 l 452 0 l 56 0 l 56 83 z "},"ĥ":{"ha":903,"x_min":-32,"x_max":861,"o":"m -32 1160 l 160 1326 l 243 1333 l 435 1160 l 379 1097 l 204 1226 l 24 1097 l -32 1160 m 292 650 q 401 719 336 688 q 534 750 467 750 q 701 684 646 750 q 757 500 757 618 l 757 111 l 861 77 l 861 0 l 528 0 l 528 77 l 618 110 l 618 486 q 590 597 618 562 q 497 632 562 632 q 398 607 444 632 q 322 553 353 582 q 292 521 292 524 l 292 111 l 382 77 l 382 0 l 35 0 l 35 77 l 153 111 l 153 958 l 35 986 l 35 1063 l 292 1069 l 292 650 z "},"Ħ":{"ha":1118,"x_min":62,"x_max":1055,"o":"m 180 861 l 62 889 l 62 965 l 458 972 l 458 889 l 326 861 l 326 778 l 791 778 l 791 861 l 660 889 l 660 965 l 1055 972 l 1055 889 l 937 861 l 937 778 l 1055 778 l 1055 673 l 937 673 l 937 111 l 1055 83 l 1055 0 l 660 0 l 660 83 l 791 111 l 791 444 l 326 444 l 326 111 l 458 83 l 458 0 l 62 0 l 62 83 l 180 111 l 180 673 l 62 673 l 62 778 l 180 778 l 180 861 m 326 673 l 326 555 l 791 555 l 791 673 l 326 673 z "},"ħ":{"ha":903,"x_min":35,"x_max":861,"o":"m 437 799 l 292 799 l 292 650 q 401 719 336 687 q 534 750 467 750 q 701 684 646 750 q 757 500 757 618 l 757 111 l 861 77 l 861 0 l 528 0 l 528 77 l 618 110 l 618 486 q 590 597 618 562 q 497 632 562 632 q 398 607 444 632 q 322 553 353 582 q 292 521 292 524 l 292 111 l 382 77 l 382 0 l 35 0 l 35 77 l 153 111 l 153 799 l 35 799 l 35 903 l 153 903 l 153 958 l 35 986 l 35 1063 l 292 1069 l 292 903 l 437 903 l 437 799 z "},"Ĩ":{"ha":493,"x_min":-14,"x_max":493,"o":"m -14 1105 q 8 1144 -14 1109 q 63 1207 29 1178 q 139 1236 97 1236 q 197 1228 171 1236 q 260 1202 222 1219 q 312 1180 290 1188 q 357 1173 334 1173 q 398 1185 379 1173 q 430 1212 418 1198 q 446 1231 443 1226 l 493 1189 q 474 1152 493 1185 q 421 1092 454 1120 q 347 1064 389 1064 q 288 1072 315 1064 q 227 1097 261 1080 q 173 1118 193 1111 q 129 1125 153 1125 q 84 1111 105 1125 q 49 1083 62 1097 q 33 1064 36 1068 l -14 1105 m 54 83 l 172 111 l 172 861 l 54 889 l 54 965 l 436 972 l 436 889 l 318 861 l 318 111 l 436 83 l 436 0 l 54 0 l 54 83 z "},"ĩ":{"ha":464,"x_min":-35,"x_max":457,"o":"m -35 930 q -15 969 -35 935 q 38 1032 5 1003 q 113 1061 71 1061 q 165 1053 142 1061 q 222 1028 189 1044 q 276 1005 256 1013 q 322 997 297 997 q 365 1010 346 997 q 394 1037 383 1023 q 408 1055 406 1051 l 457 1007 q 439 970 457 1003 q 390 909 421 937 q 317 882 358 882 q 263 890 288 882 q 207 914 239 899 q 151 937 170 931 q 107 943 132 943 q 62 929 83 943 q 29 901 41 916 q 14 882 17 886 l -35 930 m 416 0 l 56 0 l 56 77 l 174 111 l 174 625 l 56 653 l 56 729 l 313 736 l 313 111 l 416 77 l 416 0 z "},"Ī":{"ha":493,"x_min":56,"x_max":437,"o":"m 437 1097 l 62 1097 l 62 1202 l 437 1202 l 437 1097 m 56 83 l 174 111 l 174 861 l 56 889 l 56 965 l 437 972 l 437 889 l 319 861 l 319 111 l 437 83 l 437 0 l 56 0 l 56 83 z "},"ī":{"ha":465,"x_min":41,"x_max":416,"o":"m 403 917 l 41 917 l 41 1021 l 403 1021 l 403 917 m 416 0 l 56 0 l 56 77 l 174 111 l 174 625 l 56 653 l 56 729 l 313 736 l 313 111 l 416 77 l 416 0 z "},"Ĭ":{"ha":493,"x_min":56,"x_max":444,"o":"m 444 1264 q 417 1156 444 1203 q 344 1082 390 1108 q 243 1055 298 1055 q 151 1081 194 1055 q 82 1153 109 1107 q 56 1257 56 1200 l 139 1264 q 148 1232 139 1257 q 182 1183 157 1206 q 250 1160 207 1160 q 321 1181 296 1160 q 353 1226 346 1203 q 361 1257 361 1249 l 444 1264 m 56 83 l 174 111 l 174 861 l 56 889 l 56 965 l 437 972 l 437 889 l 319 861 l 319 111 l 437 83 l 437 0 l 56 0 l 56 83 z "},"ĭ":{"ha":458,"x_min":28,"x_max":416,"o":"m 416 1063 q 390 954 416 1002 q 317 881 363 907 q 215 854 271 854 q 123 880 166 854 q 54 952 81 905 q 28 1055 28 999 l 111 1063 q 120 1030 111 1056 q 154 981 129 1004 q 222 958 179 958 q 293 980 269 958 q 326 1024 318 1002 q 334 1055 334 1047 l 416 1063 m 412 0 l 52 0 l 52 77 l 170 111 l 170 625 l 52 653 l 52 729 l 309 736 l 309 111 l 412 77 l 412 0 z "},"Į":{"ha":493,"x_min":56,"x_max":437,"o":"m 437 0 q 288 -68 353 -26 q 222 -160 222 -110 q 240 -207 222 -191 q 285 -222 257 -222 q 322 -218 303 -222 q 347 -212 342 -214 l 361 -278 q 340 -287 357 -281 q 299 -299 323 -293 q 250 -306 275 -306 q 151 -270 191 -306 q 111 -174 111 -235 q 162 -67 111 -111 q 267 0 212 -24 l 56 0 l 56 83 l 174 111 l 174 861 l 56 889 l 56 965 l 437 972 l 437 889 l 319 861 l 319 111 l 437 83 l 437 0 z "},"į":{"ha":465,"x_min":56,"x_max":416,"o":"m 146 965 q 172 1037 146 1011 q 236 1063 199 1063 q 326 965 326 1063 q 298 894 326 920 q 236 868 271 868 q 170 894 195 868 q 146 965 146 920 m 174 625 l 56 653 l 56 729 l 313 736 l 313 111 l 416 77 l 416 0 q 272 -68 336 -26 q 208 -160 208 -110 q 225 -207 208 -191 q 271 -222 243 -222 q 308 -218 289 -222 q 334 -212 328 -214 l 347 -278 q 327 -287 343 -281 q 286 -299 310 -293 q 236 -306 261 -306 q 137 -270 176 -306 q 97 -174 97 -235 q 250 0 97 -72 l 56 0 l 56 77 l 174 111 l 174 625 z "},"İ":{"ha":493,"x_min":56,"x_max":437,"o":"m 171 1146 q 193 1207 171 1185 q 248 1229 215 1229 q 303 1207 283 1229 q 323 1146 323 1185 q 301 1085 323 1107 q 248 1063 279 1063 q 191 1085 212 1063 q 171 1146 171 1107 m 56 83 l 174 111 l 174 861 l 56 889 l 56 965 l 437 972 l 437 889 l 319 861 l 319 111 l 437 83 l 437 0 l 56 0 l 56 83 z "},"ı":{"ha":465,"x_min":56,"x_max":416,"o":"m 416 0 l 56 0 l 56 77 l 174 111 l 174 625 l 56 653 l 56 729 l 313 736 l 313 111 l 416 77 l 416 0 z "},"Ĳ":{"ha":977,"x_min":62,"x_max":922,"o":"m 62 83 l 180 111 l 180 861 l 62 889 l 62 965 l 444 972 l 444 889 l 326 861 l 326 111 l 444 83 l 444 0 l 62 0 l 62 83 m 804 861 l 804 62 q 734 -136 804 -64 q 541 -208 664 -208 q 489 -205 518 -208 q 452 -201 460 -203 l 464 -97 l 533 -97 q 628 -64 598 -97 q 659 35 659 -31 l 659 861 l 541 889 l 541 965 l 922 972 l 922 889 l 804 861 z "},"ĳ":{"ha":846,"x_min":56,"x_max":742,"o":"m 146 965 q 172 1037 146 1011 q 236 1063 199 1063 q 326 965 326 1063 q 298 894 326 920 q 236 868 271 868 q 170 894 195 868 q 146 965 146 920 m 561 965 q 587 1037 561 1011 q 652 1063 614 1063 q 742 965 742 1063 q 714 894 742 920 q 652 868 686 868 q 586 894 610 868 q 561 965 561 920 m 416 0 l 56 0 l 56 77 l 174 111 l 174 625 l 56 653 l 56 729 l 313 736 l 313 111 l 416 77 l 416 0 m 734 -62 q 668 -261 734 -189 q 478 -334 602 -334 q 427 -331 456 -334 q 389 -326 397 -328 l 401 -229 l 471 -229 q 568 -194 540 -229 q 596 -90 596 -158 l 596 625 l 478 653 l 478 729 l 734 736 l 734 -62 z "},"Ĵ":{"ha":504,"x_min":-28,"x_max":484,"o":"m 17 1104 l 208 1271 l 292 1278 l 484 1104 l 428 1042 l 253 1171 l 72 1042 l 17 1104 m 325 861 l 325 62 q 255 -136 325 -64 q 61 -208 184 -208 q 9 -205 39 -208 q -28 -201 -20 -203 l -16 -97 l 54 -97 q 149 -64 119 -97 q 179 35 179 -31 l 179 861 l 61 889 l 61 965 l 443 972 l 443 889 l 325 861 z "},"ĵ":{"ha":401,"x_min":-56,"x_max":436,"o":"m -36 896 l 158 1083 l 241 1090 l 436 896 l 380 833 l 203 983 l 20 833 l -36 896 m 290 -62 q 223 -261 290 -189 q 33 -334 157 -334 q -18 -331 11 -334 q -56 -326 -47 -328 l -43 -229 l 26 -229 q 123 -194 96 -229 q 151 -90 151 -158 l 151 625 l 33 653 l 33 729 l 290 736 l 290 -62 z "},"Ķ":{"ha":986,"x_min":62,"x_max":979,"o":"m 403 -155 q 427 -93 403 -117 q 486 -69 450 -69 q 547 -94 524 -69 q 570 -160 570 -118 q 529 -277 570 -214 q 416 -396 488 -339 l 361 -340 q 383 -317 366 -335 q 415 -277 400 -298 q 431 -243 431 -256 q 419 -212 431 -235 q 408 -185 414 -200 q 403 -155 403 -170 m 62 83 l 180 111 l 180 861 l 62 889 l 62 965 l 458 972 l 458 889 l 326 861 l 326 555 l 454 555 l 694 965 l 924 972 l 924 889 l 786 861 l 575 510 l 861 111 l 979 83 l 979 0 l 583 0 l 583 83 l 701 111 l 463 444 l 326 444 l 326 111 l 458 83 l 458 0 l 62 0 l 62 83 z "},"ķ":{"ha":805,"x_min":35,"x_max":799,"o":"m 340 -155 q 364 -93 340 -117 q 424 -69 388 -69 q 484 -94 461 -69 q 507 -160 507 -118 q 466 -277 507 -214 q 354 -396 425 -339 l 298 -340 q 321 -317 304 -335 q 353 -277 338 -298 q 368 -243 368 -256 q 357 -212 368 -235 q 346 -185 351 -200 q 340 -155 340 -170 m 514 633 l 452 653 l 452 729 l 757 736 l 757 653 l 659 636 l 657 636 l 514 424 l 693 111 l 694 111 l 799 77 l 799 0 l 611 0 l 412 354 l 292 354 l 292 111 l 382 77 l 382 0 l 35 0 l 35 77 l 153 111 l 153 958 l 35 986 l 35 1063 l 292 1069 l 292 458 l 410 458 l 514 633 z "},"ĸ":{"ha":833,"x_min":56,"x_max":827,"o":"m 403 0 l 56 0 l 56 77 l 174 111 l 174 625 l 56 653 l 56 729 l 313 736 l 313 452 l 437 452 l 542 633 l 479 653 l 479 729 l 785 736 l 785 653 l 686 636 l 685 636 l 542 416 l 721 111 l 827 77 l 827 0 l 639 0 l 440 347 l 313 347 l 313 111 l 403 77 l 403 0 z "},"Ĺ":{"ha":736,"x_min":49,"x_max":722,"o":"m 625 271 l 722 271 l 722 0 l 49 0 l 49 83 l 167 111 l 167 861 l 49 889 l 49 965 l 431 972 l 431 889 l 313 861 l 313 111 l 597 111 l 625 271 m 135 1095 l 388 1296 l 458 1194 l 188 1021 l 135 1095 z "},"ĺ":{"ha":426,"x_min":35,"x_max":419,"o":"m 419 0 l 35 0 l 35 77 l 153 111 l 153 958 l 35 986 l 35 1063 l 294 1069 l 294 111 l 419 77 l 419 0 m 58 1164 l 311 1365 l 382 1263 l 111 1090 l 58 1164 z "},"Ļ":{"ha":736,"x_min":49,"x_max":722,"o":"m 313 -155 q 336 -93 313 -117 q 396 -69 360 -69 q 456 -94 433 -69 q 479 -160 479 -118 q 438 -277 479 -214 q 326 -396 397 -339 l 271 -340 q 293 -317 276 -335 q 325 -277 310 -298 q 340 -243 340 -256 q 329 -212 340 -235 q 318 -185 323 -200 q 313 -155 313 -170 m 625 271 l 722 271 l 722 0 l 49 0 l 49 83 l 167 111 l 167 861 l 49 889 l 49 965 l 431 972 l 431 889 l 313 861 l 313 111 l 597 111 l 625 271 z "},"ļ":{"ha":440,"x_min":35,"x_max":433,"o":"m 433 0 l 35 0 l 35 77 l 153 111 l 153 958 l 35 986 l 35 1063 l 294 1069 l 294 111 l 433 77 l 433 0 m 132 -155 q 156 -93 132 -117 q 215 -69 179 -69 q 275 -94 252 -69 q 298 -160 298 -118 q 257 -277 298 -214 q 146 -396 216 -339 l 90 -340 q 112 -317 96 -335 q 144 -277 129 -298 q 160 -243 160 -256 q 149 -212 160 -235 q 138 -185 143 -200 q 132 -155 132 -170 z "},"Ľ":{"ha":736,"x_min":49,"x_max":722,"o":"m 625 271 l 722 271 l 722 0 l 49 0 l 49 83 l 167 111 l 167 861 l 49 889 l 49 965 l 431 972 l 431 889 l 313 861 l 313 111 l 597 111 l 625 271 m 701 972 q 673 836 701 914 q 590 646 646 758 l 507 673 q 554 837 541 769 q 566 965 568 904 l 701 972 z "},"ľ":{"ha":553,"x_min":35,"x_max":553,"o":"m 371 796 q 408 945 397 878 q 416 1076 419 1013 l 553 1083 q 527 947 553 1023 q 453 766 501 871 l 371 796 m 419 0 l 35 0 l 35 77 l 153 111 l 153 958 l 35 986 l 35 1063 l 294 1069 l 294 111 l 419 77 l 419 0 z "},"Ŀ":{"ha":736,"x_min":49,"x_max":722,"o":"m 625 271 l 722 271 l 722 0 l 49 0 l 49 83 l 167 111 l 167 861 l 49 889 l 49 965 l 431 972 l 431 889 l 313 861 l 313 111 l 597 111 l 625 271 m 424 500 q 450 574 424 547 q 517 600 476 600 q 586 574 562 600 q 610 500 610 549 q 583 426 610 452 q 517 400 557 400 q 448 426 472 400 q 424 500 424 452 z "},"ŀ":{"ha":587,"x_min":35,"x_max":574,"o":"m 433 0 l 35 0 l 35 77 l 153 111 l 153 958 l 35 986 l 35 1063 l 294 1069 l 294 111 l 433 77 l 433 0 m 387 437 q 414 511 387 485 q 481 538 440 538 q 550 512 526 538 q 574 437 574 486 q 547 364 574 390 q 481 338 521 338 q 412 363 436 338 q 387 437 387 389 z "},"Ł":{"ha":758,"x_min":41,"x_max":743,"o":"m 564 551 l 334 440 l 334 111 l 618 111 l 646 271 l 743 271 l 743 0 l 69 0 l 69 83 l 187 111 l 187 379 l 71 323 l 41 428 l 187 497 l 187 861 l 69 889 l 69 965 l 452 972 l 452 889 l 334 861 l 334 558 l 534 656 l 564 551 z "},"ł":{"ha":501,"x_min":28,"x_max":494,"o":"m 494 562 l 329 484 l 329 111 l 468 77 l 468 0 l 69 0 l 69 77 l 187 111 l 187 427 l 57 364 l 28 467 l 187 543 l 187 958 l 69 986 l 69 1063 l 329 1069 l 329 602 l 467 667 l 494 562 z "},"Ń":{"ha":1097,"x_min":56,"x_max":1048,"o":"m 431 83 l 431 0 l 56 0 l 56 83 l 174 111 l 174 861 l 56 889 l 56 965 l 347 972 l 806 196 l 806 861 l 688 889 l 688 965 l 1048 972 l 1048 889 l 930 861 l 930 0 l 757 0 l 298 765 l 298 111 l 431 83 m 427 1095 l 680 1296 l 750 1194 l 479 1021 l 427 1095 z "},"ń":{"ha":923,"x_min":56,"x_max":882,"o":"m 297 637 q 411 712 340 675 q 555 750 481 750 q 722 684 667 750 q 778 500 778 618 l 778 111 l 882 77 l 882 0 l 549 0 l 549 77 l 639 111 l 639 486 q 610 597 639 562 q 514 632 581 632 q 417 607 461 632 q 342 553 372 582 q 313 521 313 524 l 313 111 l 403 77 l 403 0 l 56 0 l 56 77 l 174 111 l 174 625 l 56 653 l 56 729 l 285 736 l 297 637 m 583 1111 l 653 1007 l 361 827 l 313 896 l 583 1111 z "},"Ņ":{"ha":1097,"x_min":56,"x_max":1048,"o":"m 431 83 l 431 0 l 56 0 l 56 83 l 174 111 l 174 861 l 56 889 l 56 965 l 347 972 l 806 196 l 806 861 l 688 889 l 688 965 l 1048 972 l 1048 889 l 930 861 l 930 0 l 757 0 l 298 765 l 298 111 l 431 83 m 465 -155 q 489 -93 465 -117 q 549 -69 513 -69 q 609 -94 586 -69 q 632 -160 632 -118 q 591 -277 632 -214 q 479 -396 550 -339 l 423 -340 q 446 -317 429 -335 q 478 -277 463 -298 q 493 -243 493 -256 q 481 -212 493 -235 q 471 -185 476 -200 q 465 -155 465 -170 z "},"ņ":{"ha":923,"x_min":56,"x_max":882,"o":"m 375 -155 q 399 -93 375 -117 q 458 -69 422 -69 q 519 -94 496 -69 q 542 -160 542 -118 q 501 -277 542 -214 q 389 -396 460 -339 l 333 -340 q 355 -317 338 -335 q 388 -277 372 -298 q 403 -243 403 -256 q 391 -212 403 -235 q 380 -185 386 -200 q 375 -155 375 -170 m 297 637 q 411 712 340 675 q 555 750 481 750 q 722 684 667 750 q 778 500 778 618 l 778 111 l 882 77 l 882 0 l 549 0 l 549 77 l 639 111 l 639 486 q 610 597 639 562 q 514 632 581 632 q 417 607 461 632 q 342 553 372 582 q 313 521 313 524 l 313 111 l 403 77 l 403 0 l 56 0 l 56 77 l 174 111 l 174 625 l 56 653 l 56 729 l 285 736 l 297 637 z "},"Ň":{"ha":1097,"x_min":56,"x_max":1048,"o":"m 431 83 l 431 0 l 56 0 l 56 83 l 174 111 l 174 861 l 56 889 l 56 965 l 347 972 l 806 196 l 806 861 l 688 889 l 688 965 l 1048 972 l 1048 889 l 930 861 l 930 0 l 757 0 l 298 765 l 298 111 l 431 83 m 799 1215 l 597 1048 l 514 1042 l 313 1215 l 368 1278 l 553 1149 l 743 1278 l 799 1215 z "},"ň":{"ha":923,"x_min":56,"x_max":882,"o":"m 297 637 q 411 712 340 675 q 555 750 481 750 q 722 684 667 750 q 778 500 778 618 l 778 111 l 882 77 l 882 0 l 549 0 l 549 77 l 639 111 l 639 486 q 610 597 639 562 q 514 632 581 632 q 417 607 461 632 q 342 553 372 582 q 313 521 313 524 l 313 111 l 403 77 l 403 0 l 56 0 l 56 77 l 174 111 l 174 625 l 56 653 l 56 729 l 285 736 l 297 637 m 663 1090 l 718 1028 l 510 840 l 427 833 l 218 1028 l 274 1090 l 466 940 l 663 1090 z "},"ŉ":{"ha":923,"x_min":-21,"x_max":882,"o":"m 21 1035 q 44 1096 21 1074 q 104 1118 68 1118 q 165 1096 143 1118 q 187 1028 187 1074 q 32 800 187 917 l -21 860 q 3 881 -16 864 q 39 918 22 897 q 56 951 56 939 q 43 979 56 960 q 26 1006 32 995 q 21 1035 21 1018 m 297 637 q 411 712 340 675 q 555 750 481 750 q 722 684 667 750 q 778 500 778 618 l 778 111 l 882 77 l 882 0 l 549 0 l 549 77 l 639 111 l 639 486 q 610 597 639 562 q 514 632 581 632 q 417 607 461 632 q 342 553 372 582 q 313 521 313 524 l 313 111 l 403 77 l 403 0 l 56 0 l 56 77 l 174 111 l 174 625 l 56 653 l 56 729 l 285 736 l 297 637 z "},"Ŋ":{"ha":1104,"x_min":56,"x_max":1048,"o":"m 659 -97 q 742 -76 713 -97 q 779 -14 771 -56 l 298 765 l 298 111 l 431 83 l 431 0 l 56 0 l 56 83 l 174 111 l 174 861 l 56 889 l 56 965 l 347 972 l 806 196 l 806 861 l 688 889 l 688 965 l 1048 972 l 1048 889 l 930 861 l 930 47 q 860 -138 930 -68 q 665 -208 789 -208 q 614 -205 643 -208 q 576 -201 585 -203 l 589 -97 l 659 -97 z "},"ŋ":{"ha":882,"x_min":56,"x_max":778,"o":"m 639 486 q 610 596 639 561 q 514 632 581 632 q 417 607 461 632 q 342 553 372 582 q 313 521 313 524 l 313 111 l 403 77 l 403 0 l 56 0 l 56 77 l 174 111 l 174 625 l 56 653 l 56 729 l 285 736 l 297 637 q 410 712 340 675 q 555 750 481 750 q 722 684 667 750 q 778 500 778 618 l 778 -62 q 711 -261 778 -189 q 521 -334 644 -334 q 469 -331 498 -334 q 432 -326 440 -328 l 444 -229 l 514 -229 q 611 -194 583 -229 q 639 -90 639 -158 l 639 486 z "},"Ō":{"ha":1048,"x_min":83,"x_max":965,"o":"m 718 1097 l 343 1097 l 343 1202 l 718 1202 l 718 1097 m 534 986 q 765 927 668 986 q 914 758 863 868 q 965 500 965 648 q 907 232 965 349 q 746 51 850 115 q 507 -14 642 -14 q 193 113 303 -14 q 83 479 83 240 q 138 746 83 631 q 295 924 193 861 q 534 986 397 986 m 528 868 q 316 774 389 868 q 243 486 243 681 q 311 201 243 297 q 514 104 379 104 q 729 202 653 104 q 806 493 806 300 q 735 773 806 679 q 528 868 664 868 z "},"ō":{"ha":791,"x_min":56,"x_max":736,"o":"m 590 917 l 215 917 l 215 1021 l 590 1021 l 590 917 m 410 750 q 650 651 564 750 q 736 382 736 551 q 693 175 736 265 q 571 36 650 85 q 389 -14 492 -14 q 143 81 231 -14 q 56 361 56 176 q 101 566 56 477 q 226 702 146 654 q 410 750 306 750 m 403 639 q 251 571 300 639 q 201 368 201 504 q 396 97 201 98 q 544 166 498 97 q 590 375 590 236 q 403 639 590 639 z "},"Ŏ":{"ha":1048,"x_min":83,"x_max":965,"o":"m 534 986 q 765 927 668 986 q 914 758 863 868 q 965 500 965 648 q 907 232 965 349 q 746 51 850 115 q 507 -14 642 -14 q 193 113 303 -14 q 83 479 83 240 q 138 746 83 631 q 295 924 193 861 q 534 986 397 986 m 528 868 q 316 774 389 868 q 243 486 243 681 q 311 201 243 297 q 514 104 379 104 q 729 202 653 104 q 806 493 806 300 q 735 773 806 679 q 528 868 664 868 m 721 1264 q 694 1156 721 1203 q 621 1082 667 1108 q 519 1056 575 1056 q 428 1081 471 1056 q 359 1154 385 1107 q 332 1257 332 1200 l 416 1264 q 425 1232 416 1257 q 458 1183 433 1206 q 527 1160 484 1160 q 598 1181 573 1160 q 630 1226 623 1203 q 637 1257 637 1249 l 721 1264 z "},"ŏ":{"ha":791,"x_min":56,"x_max":736,"o":"m 410 750 q 650 651 564 750 q 736 382 736 551 q 693 175 736 265 q 571 36 650 85 q 389 -14 492 -14 q 143 81 231 -14 q 56 361 56 176 q 101 566 56 477 q 226 702 146 654 q 410 750 306 750 m 403 639 q 251 571 300 639 q 201 368 201 504 q 396 97 201 98 q 544 166 498 97 q 590 375 590 236 q 403 639 590 639 m 590 1063 q 563 954 590 1002 q 490 881 536 907 q 389 854 444 854 q 297 880 340 854 q 228 952 254 905 q 201 1055 201 999 l 285 1063 q 294 1030 285 1056 q 328 981 302 1004 q 396 958 353 958 q 467 980 442 958 q 499 1024 492 1002 q 507 1055 507 1047 l 590 1063 z "},"Ő":{"ha":1048,"x_min":83,"x_max":965,"o":"m 460 1307 l 551 1226 l 354 1018 l 279 1076 l 460 1307 m 730 1307 l 822 1226 l 625 1018 l 550 1076 l 730 1307 m 534 986 q 765 927 668 986 q 914 758 863 868 q 965 500 965 648 q 907 232 965 349 q 746 51 850 115 q 507 -14 642 -14 q 193 113 303 -14 q 83 479 83 240 q 138 746 83 631 q 295 924 193 861 q 534 986 397 986 m 528 868 q 316 774 389 868 q 243 486 243 681 q 311 201 243 297 q 514 104 379 104 q 729 202 653 104 q 806 493 806 300 q 735 773 806 679 q 528 868 664 868 z "},"ő":{"ha":791,"x_min":56,"x_max":736,"o":"m 410 750 q 650 651 564 750 q 736 382 736 551 q 693 175 736 265 q 571 36 650 85 q 389 -14 492 -14 q 143 81 231 -14 q 56 361 56 176 q 101 566 56 477 q 226 702 146 654 q 410 750 306 750 m 403 639 q 251 571 300 639 q 201 368 201 504 q 396 97 201 98 q 544 166 498 97 q 590 375 590 236 q 403 639 590 639 m 355 1112 l 447 1032 l 250 823 l 189 875 l 355 1112 m 612 1112 l 704 1032 l 507 823 l 446 875 l 612 1112 z "},"Œ":{"ha":1298,"x_min":83,"x_max":1215,"o":"m 1111 736 l 1076 861 l 778 861 l 778 562 l 1097 562 l 1097 452 l 778 452 l 778 111 l 1097 111 l 1125 250 l 1215 250 l 1215 0 l 729 0 l 646 -3 q 507 -7 521 -7 q 193 117 303 -7 q 83 479 83 241 q 138 744 83 631 q 295 918 193 857 q 534 979 397 979 q 650 975 593 979 q 743 972 719 972 l 1202 972 l 1202 736 l 1111 736 m 632 861 q 588 865 623 863 q 528 868 554 868 q 316 774 389 868 q 243 486 243 681 q 311 201 243 297 q 514 104 379 104 q 583 107 545 104 q 632 111 621 110 l 632 861 z "},"œ":{"ha":1270,"x_min":56,"x_max":1222,"o":"m 410 750 q 563 711 496 750 q 672 606 631 672 q 780 712 713 673 q 930 750 846 750 q 1222 424 1222 750 q 1219 379 1222 401 q 1215 350 1217 357 l 736 347 q 791 165 736 233 q 937 97 847 97 q 1050 114 998 97 q 1137 151 1103 131 q 1171 174 1171 171 l 1219 102 q 1174 68 1219 99 q 1063 12 1129 37 q 924 -14 997 -14 q 663 129 742 -14 q 551 25 620 64 q 389 -14 482 -14 q 143 81 231 -14 q 56 361 56 176 q 101 566 56 477 q 226 702 146 654 q 410 750 306 750 m 1075 452 q 1039 589 1075 536 q 924 642 1003 642 q 796 587 843 642 q 742 452 749 533 l 1075 452 m 403 639 q 251 571 300 639 q 201 368 201 504 q 396 97 201 98 q 597 375 597 97 q 550 568 597 497 q 403 639 503 639 z "},"Ŕ":{"ha":903,"x_min":56,"x_max":896,"o":"m 174 861 l 56 889 l 56 965 l 319 972 l 472 972 q 702 906 619 972 q 785 722 785 839 q 604 452 785 518 q 688 326 637 422 l 798 106 l 896 83 l 896 0 l 688 0 l 570 257 q 511 363 536 329 q 458 411 486 397 q 382 424 429 424 l 319 424 l 319 111 l 437 83 l 437 0 l 56 0 l 56 83 l 174 111 l 174 861 m 424 528 q 582 573 525 528 q 639 701 639 619 q 590 816 639 770 q 465 861 542 861 l 319 861 l 319 528 l 424 528 m 281 1095 l 534 1296 l 604 1194 l 334 1021 l 281 1095 z "},"ŕ":{"ha":646,"x_min":56,"x_max":632,"o":"m 297 635 q 390 714 336 677 q 507 750 444 750 q 565 745 538 750 q 610 735 593 741 q 632 729 628 730 l 625 528 l 534 528 l 514 632 q 395 599 445 632 q 313 524 345 566 l 313 111 l 452 77 l 452 0 l 56 0 l 56 77 l 174 111 l 174 625 l 56 653 l 56 729 l 285 736 l 297 635 m 444 1111 l 514 1007 l 222 827 l 174 896 l 444 1111 z "},"Ŗ":{"ha":903,"x_min":56,"x_max":896,"o":"m 410 -155 q 433 -93 410 -117 q 493 -69 457 -69 q 553 -94 530 -69 q 576 -160 576 -118 q 535 -277 576 -214 q 423 -396 494 -339 l 368 -340 q 390 -317 373 -335 q 422 -277 407 -298 q 437 -243 437 -256 q 426 -212 437 -235 q 415 -185 420 -200 q 410 -155 410 -170 m 174 861 l 56 889 l 56 965 l 319 972 l 472 972 q 702 906 619 972 q 785 722 785 839 q 604 452 785 518 q 688 326 637 422 l 798 106 l 896 83 l 896 0 l 688 0 l 570 257 q 511 363 536 329 q 458 411 486 397 q 382 424 429 424 l 319 424 l 319 111 l 437 83 l 437 0 l 56 0 l 56 83 l 174 111 l 174 861 m 424 528 q 582 573 525 528 q 639 701 639 619 q 590 816 639 770 q 465 861 542 861 l 319 861 l 319 528 l 424 528 z "},"ŗ":{"ha":646,"x_min":56,"x_max":632,"o":"m 180 -155 q 204 -93 180 -117 q 264 -69 228 -69 q 324 -94 301 -69 q 347 -160 347 -118 q 306 -277 347 -214 q 194 -396 265 -339 l 138 -340 q 161 -317 144 -335 q 193 -277 178 -298 q 208 -243 208 -256 q 197 -212 208 -235 q 186 -185 191 -200 q 180 -155 180 -170 m 297 635 q 390 714 336 677 q 507 750 444 750 q 565 745 538 750 q 610 735 593 741 q 632 729 628 730 l 625 528 l 534 528 l 514 632 q 395 599 445 632 q 313 524 345 566 l 313 111 l 452 77 l 452 0 l 56 0 l 56 77 l 174 111 l 174 625 l 56 653 l 56 729 l 285 736 l 297 635 z "},"Ř":{"ha":903,"x_min":56,"x_max":896,"o":"m 174 861 l 56 889 l 56 965 l 319 972 l 472 972 q 702 906 619 972 q 785 722 785 839 q 604 452 785 518 q 688 326 637 422 l 798 106 l 896 83 l 896 0 l 688 0 l 570 257 q 511 363 536 329 q 458 411 486 397 q 382 424 429 424 l 319 424 l 319 111 l 437 83 l 437 0 l 56 0 l 56 83 l 174 111 l 174 861 m 424 528 q 582 573 525 528 q 639 701 639 619 q 590 816 639 770 q 465 861 542 861 l 319 861 l 319 528 l 424 528 m 667 1215 l 465 1048 l 382 1042 l 180 1215 l 236 1278 l 420 1149 l 611 1278 l 667 1215 z "},"ř":{"ha":646,"x_min":56,"x_max":632,"o":"m 297 635 q 390 714 336 677 q 507 750 444 750 q 565 745 538 750 q 610 735 593 741 q 632 729 628 730 l 625 528 l 534 528 l 514 632 q 395 599 445 632 q 313 524 345 566 l 313 111 l 452 77 l 452 0 l 56 0 l 56 77 l 174 111 l 174 625 l 56 653 l 56 729 l 285 736 l 297 635 m 528 1090 l 583 1028 l 375 840 l 292 833 l 83 1028 l 139 1090 l 331 940 l 528 1090 z "},"Ś":{"ha":829,"x_min":97,"x_max":746,"o":"m 236 139 q 261 128 241 136 q 315 112 281 119 q 389 104 349 104 q 537 144 472 104 q 602 253 602 183 q 574 328 602 298 q 505 377 546 358 q 392 422 464 396 q 240 485 298 456 q 141 569 182 514 q 100 710 100 624 q 194 917 100 848 q 429 986 288 986 q 553 974 488 986 q 664 948 618 961 q 722 930 710 935 l 715 694 l 625 694 l 578 843 q 551 851 572 844 q 497 863 530 857 q 431 868 464 868 q 294 828 342 868 q 245 733 245 789 q 273 658 245 688 q 343 608 301 628 q 460 562 385 589 q 608 502 550 530 q 706 421 665 473 q 746 290 746 370 q 697 122 746 191 q 566 20 648 53 q 383 -14 484 -14 q 255 -1 318 -14 q 150 24 192 11 q 97 41 109 37 l 97 285 l 208 285 l 236 139 m 273 1095 l 526 1296 l 597 1194 l 326 1021 l 273 1095 z "},"ś":{"ha":651,"x_min":62,"x_max":589,"o":"m 176 103 q 211 96 176 102 q 293 90 245 90 q 450 200 450 90 q 412 268 450 245 q 293 315 374 290 q 173 361 219 339 q 95 425 127 383 q 62 533 62 467 q 133 694 62 637 q 317 750 204 750 q 418 741 366 750 q 508 722 471 732 q 554 708 545 711 l 550 521 l 460 521 l 437 629 q 419 635 433 631 q 380 642 406 639 q 325 646 355 646 q 201 553 201 646 q 241 484 201 508 q 361 433 281 460 q 479 387 433 408 q 557 325 525 366 q 589 224 589 285 q 502 47 589 109 q 283 -14 415 -14 q 178 -7 227 -14 q 100 7 129 0 q 64 17 71 14 l 64 222 l 161 222 l 176 103 m 420 1111 l 490 1007 l 199 827 l 150 896 l 420 1111 z "},"Ŝ":{"ha":829,"x_min":97,"x_max":746,"o":"m 176 1104 l 378 1271 l 461 1278 l 663 1104 l 607 1042 l 422 1171 l 232 1042 l 176 1104 m 236 139 q 261 128 241 136 q 315 112 281 119 q 389 104 349 104 q 537 144 472 104 q 602 253 602 183 q 574 328 602 298 q 505 377 546 358 q 392 422 464 396 q 240 485 298 456 q 141 569 182 514 q 100 710 100 624 q 194 917 100 848 q 429 986 288 986 q 553 974 488 986 q 664 948 618 961 q 722 930 710 935 l 715 694 l 625 694 l 578 843 q 551 851 572 844 q 497 863 530 857 q 431 868 464 868 q 294 828 342 868 q 245 733 245 789 q 273 658 245 688 q 343 608 301 628 q 460 562 385 589 q 608 502 550 530 q 706 421 665 473 q 746 290 746 370 q 697 122 746 191 q 566 20 648 53 q 383 -14 484 -14 q 255 -1 318 -14 q 150 24 192 11 q 97 41 109 37 l 97 285 l 208 285 l 236 139 z "},"ŝ":{"ha":651,"x_min":62,"x_max":589,"o":"m 285 1090 l 368 1090 l 579 896 l 521 833 l 326 986 l 132 833 l 83 896 l 285 1090 m 175 103 q 210 96 175 102 q 293 90 245 90 q 450 200 450 90 q 412 268 450 245 q 293 315 374 290 q 173 361 219 339 q 95 425 127 383 q 62 533 62 467 q 133 694 62 637 q 317 750 204 750 q 418 741 366 750 q 508 722 471 732 q 554 708 545 711 l 550 521 l 460 521 l 437 629 q 419 635 433 631 q 380 642 406 639 q 325 646 355 646 q 201 553 201 646 q 241 484 201 508 q 361 433 281 460 q 479 387 433 408 q 557 325 525 366 q 589 224 589 285 q 502 47 589 109 q 283 -14 415 -14 q 178 -7 227 -14 q 100 7 129 0 q 64 17 71 14 l 64 222 l 160 222 l 175 103 z "},"Ş":{"ha":829,"x_min":97,"x_max":746,"o":"m 236 139 q 261 128 241 136 q 315 112 281 119 q 389 104 349 104 q 537 144 472 104 q 602 253 602 183 q 574 328 602 298 q 505 377 546 358 q 392 422 464 396 q 240 485 298 456 q 141 569 182 514 q 100 710 100 624 q 194 917 100 848 q 429 986 288 986 q 553 974 488 986 q 664 948 618 961 q 722 930 710 935 l 715 694 l 625 694 l 578 843 q 551 851 572 844 q 497 863 530 857 q 431 868 464 868 q 294 828 342 868 q 245 733 245 789 q 273 658 245 688 q 343 608 301 628 q 460 562 385 589 q 608 502 550 530 q 706 421 665 473 q 746 290 746 370 q 662 80 746 157 q 443 -11 578 3 l 443 -60 q 532 -101 500 -69 q 564 -180 564 -134 q 522 -270 564 -236 q 412 -304 481 -304 q 337 -296 372 -304 q 282 -278 302 -288 q 257 -265 262 -268 l 290 -208 q 311 -218 294 -211 q 351 -231 328 -225 q 397 -237 375 -237 q 453 -221 432 -237 q 473 -178 473 -204 q 443 -128 473 -146 q 359 -110 412 -110 l 359 -12 q 240 2 298 -9 q 144 25 182 14 q 97 41 107 37 l 97 285 l 208 285 l 236 139 z "},"ş":{"ha":651,"x_min":62,"x_max":589,"o":"m 175 103 q 210 96 175 102 q 293 90 245 90 q 450 200 450 90 q 412 268 450 245 q 293 315 374 290 q 173 361 219 339 q 95 425 127 383 q 62 533 62 467 q 133 694 62 637 q 317 750 204 750 q 418 741 366 750 q 508 722 471 732 q 554 708 545 711 l 550 521 l 460 521 l 437 629 q 419 635 433 631 q 380 642 406 639 q 325 646 355 646 q 201 553 201 646 q 241 484 201 508 q 361 433 281 460 q 479 387 433 408 q 557 325 525 366 q 589 224 589 285 q 519 61 589 121 q 338 -11 450 1 l 338 -60 q 427 -101 395 -69 q 458 -180 458 -134 q 417 -270 458 -236 q 307 -304 375 -304 q 232 -296 267 -304 q 177 -278 197 -288 q 151 -265 157 -268 l 184 -208 q 205 -218 189 -211 q 246 -231 222 -225 q 292 -237 269 -237 q 347 -221 326 -237 q 368 -178 368 -204 q 338 -128 368 -146 q 254 -110 307 -110 l 254 -12 q 162 -4 204 -11 q 94 9 119 3 q 64 17 69 16 l 64 222 l 160 222 l 175 103 z "},"Š":{"ha":829,"x_min":97,"x_max":746,"o":"m 236 139 q 261 128 241 136 q 315 112 281 119 q 389 104 349 104 q 537 144 472 104 q 602 253 602 183 q 574 328 602 298 q 505 377 546 358 q 392 422 464 396 q 240 485 298 456 q 141 569 182 514 q 100 710 100 624 q 194 917 100 848 q 429 986 288 986 q 553 974 488 986 q 664 948 618 961 q 722 930 710 935 l 715 694 l 625 694 l 578 843 q 551 851 572 844 q 497 863 530 857 q 431 868 464 868 q 294 828 342 868 q 245 733 245 789 q 273 658 245 688 q 343 608 301 628 q 460 562 385 589 q 608 502 550 530 q 706 421 665 473 q 746 290 746 370 q 697 122 746 191 q 566 20 648 53 q 383 -14 484 -14 q 255 -1 318 -14 q 150 24 192 11 q 97 41 109 37 l 97 285 l 208 285 l 236 139 m 654 1215 l 453 1048 l 370 1042 l 168 1215 l 224 1278 l 408 1149 l 599 1278 l 654 1215 z "},"š":{"ha":651,"x_min":62,"x_max":589,"o":"m 176 103 q 211 96 176 102 q 293 90 245 90 q 450 200 450 90 q 412 268 450 245 q 293 315 374 290 q 173 361 219 339 q 95 425 127 383 q 62 533 62 467 q 133 694 62 637 q 317 750 204 750 q 418 741 366 750 q 508 722 471 732 q 554 708 545 711 l 550 521 l 460 521 l 437 629 q 419 635 433 631 q 380 642 406 639 q 325 646 355 646 q 201 553 201 646 q 241 484 201 508 q 361 433 281 460 q 479 387 433 408 q 557 325 525 366 q 589 224 589 285 q 502 47 589 109 q 283 -14 415 -14 q 178 -7 227 -14 q 100 7 129 0 q 64 17 71 14 l 64 222 l 161 222 l 176 103 m 513 1090 l 569 1028 l 361 840 l 277 833 l 69 1028 l 125 1090 l 317 940 l 513 1090 z "},"Ţ":{"ha":785,"x_min":14,"x_max":771,"o":"m 771 722 l 681 722 l 646 861 l 465 861 l 465 111 l 604 83 l 604 0 l 421 0 l 421 -60 q 510 -101 478 -69 q 542 -180 542 -134 q 500 -270 542 -236 q 390 -304 458 -304 q 315 -296 350 -304 q 260 -278 281 -288 q 235 -265 240 -268 l 268 -208 q 289 -218 272 -211 q 329 -231 306 -225 q 375 -237 353 -237 q 431 -221 410 -237 q 452 -178 452 -204 q 421 -128 452 -146 q 338 -110 390 -110 l 338 0 l 180 0 l 180 83 l 319 111 l 319 861 l 139 861 l 104 722 l 14 722 l 14 972 l 771 972 l 771 722 z "},"ţ":{"ha":548,"x_min":28,"x_max":521,"o":"m 507 625 l 306 625 l 306 179 q 375 94 306 94 q 484 129 420 94 l 521 56 q 346 -12 436 -7 l 346 -60 q 435 -101 403 -69 q 467 -180 467 -134 q 425 -270 467 -236 q 315 -304 383 -304 q 240 -296 275 -304 q 185 -278 205 -288 q 160 -265 165 -268 l 193 -208 q 214 -218 197 -211 q 254 -231 231 -225 q 300 -237 278 -237 q 355 -221 334 -237 q 376 -178 376 -204 q 346 -128 376 -146 q 262 -110 315 -110 l 262 -3 q 167 187 167 33 l 167 625 l 28 625 l 28 715 l 167 729 l 167 904 l 306 932 l 306 729 l 507 729 l 507 625 z "},"Ť":{"ha":785,"x_min":14,"x_max":771,"o":"m 180 83 l 319 111 l 319 861 l 139 861 l 104 722 l 14 722 l 14 972 l 771 972 l 771 722 l 681 722 l 646 861 l 465 861 l 465 111 l 604 83 l 604 0 l 180 0 l 180 83 m 639 1215 l 437 1048 l 354 1042 l 153 1215 l 208 1278 l 393 1149 l 583 1278 l 639 1215 z "},"ť":{"ha":548,"x_min":28,"x_max":564,"o":"m 507 625 l 306 625 l 306 179 q 375 94 306 94 q 484 129 420 94 l 521 56 q 326 -14 427 -14 q 211 33 256 -14 q 167 187 167 79 l 167 625 l 28 625 l 28 715 l 167 729 l 167 904 l 306 932 l 306 729 l 507 729 l 507 625 m 382 824 q 419 973 408 905 q 428 1104 431 1040 l 564 1111 q 538 975 564 1051 q 464 794 513 899 l 382 824 z "},"Ŧ":{"ha":785,"x_min":14,"x_max":771,"o":"m 319 861 l 139 861 l 104 722 l 14 722 l 14 972 l 771 972 l 771 722 l 681 722 l 646 861 l 465 861 l 465 549 l 671 549 l 671 437 l 465 437 l 465 111 l 604 83 l 604 0 l 180 0 l 180 83 l 319 111 l 319 437 l 115 437 l 115 549 l 319 549 l 319 861 z "},"ŧ":{"ha":562,"x_min":35,"x_max":528,"o":"m 514 625 l 313 625 l 313 472 l 514 472 l 514 368 l 313 368 l 313 179 q 382 94 313 94 q 490 129 427 94 l 528 56 q 334 -14 433 -14 q 218 33 263 -14 q 174 187 174 79 l 174 368 l 35 368 l 35 472 l 174 472 l 174 625 l 35 625 l 35 715 l 174 729 l 174 904 l 313 932 l 313 729 l 514 729 l 514 625 z "},"Ũ":{"ha":1097,"x_min":56,"x_max":1042,"o":"m 290 1105 q 311 1144 290 1109 q 366 1207 332 1178 q 443 1236 400 1236 q 506 1228 476 1236 q 574 1203 536 1219 q 637 1179 614 1186 q 686 1173 660 1173 q 731 1185 711 1173 q 763 1212 751 1198 q 777 1231 774 1226 l 825 1189 q 806 1152 825 1185 q 755 1092 787 1120 q 679 1064 722 1064 q 617 1072 646 1064 q 549 1096 589 1080 q 488 1118 513 1112 q 436 1125 463 1125 q 390 1111 411 1125 q 355 1083 368 1097 q 339 1064 342 1068 l 290 1105 m 924 396 q 838 89 924 192 q 542 -14 751 -14 q 258 81 343 -14 q 174 375 174 176 l 174 861 l 56 889 l 56 965 l 452 972 l 452 889 l 319 861 l 319 375 q 343 212 319 271 q 417 129 367 154 q 549 104 467 104 q 685 132 636 104 q 756 223 734 160 q 778 396 778 286 l 778 861 l 646 889 l 646 965 l 1042 972 l 1042 889 l 924 861 l 924 396 z "},"ũ":{"ha":903,"x_min":28,"x_max":868,"o":"m 171 932 q 191 970 171 936 q 245 1033 211 1004 q 323 1061 279 1061 q 385 1053 357 1061 q 449 1028 414 1044 q 506 1006 482 1013 q 555 999 529 999 q 599 1012 578 999 q 634 1039 621 1025 q 650 1057 647 1053 l 699 1008 q 679 971 699 1004 q 626 909 660 937 q 549 882 593 882 q 487 890 515 882 q 424 916 458 899 q 367 938 391 931 q 317 945 343 945 q 269 931 290 945 q 235 902 248 917 q 220 884 222 888 l 171 932 m 868 7 l 639 0 l 625 97 q 513 23 584 60 q 368 -14 441 -14 q 201 52 257 -14 q 146 235 146 117 l 146 625 l 28 653 l 28 729 l 285 736 l 285 249 q 314 140 285 175 q 410 104 343 104 q 507 129 463 104 q 581 182 551 153 q 611 214 611 211 l 611 625 l 493 653 l 493 729 l 750 736 l 750 111 l 868 83 l 868 7 z "},"Ū":{"ha":1097,"x_min":56,"x_max":1042,"o":"m 743 1097 l 368 1097 l 368 1202 l 743 1202 l 743 1097 m 924 396 q 838 89 924 192 q 542 -14 751 -14 q 258 81 343 -14 q 174 375 174 176 l 174 861 l 56 889 l 56 965 l 452 972 l 452 889 l 319 861 l 319 375 q 343 212 319 271 q 417 129 367 154 q 549 104 467 104 q 685 132 636 104 q 756 223 734 160 q 778 396 778 286 l 778 861 l 646 889 l 646 965 l 1042 972 l 1042 889 l 924 861 l 924 396 z "},"ū":{"ha":903,"x_min":28,"x_max":868,"o":"m 633 917 l 258 917 l 258 1021 l 633 1021 l 633 917 m 868 7 l 639 0 l 625 97 q 513 23 584 60 q 368 -14 441 -14 q 201 52 257 -14 q 146 235 146 117 l 146 625 l 28 653 l 28 729 l 285 736 l 285 249 q 314 140 285 175 q 410 104 343 104 q 507 129 463 104 q 581 182 551 153 q 611 214 611 211 l 611 625 l 493 653 l 493 729 l 750 736 l 750 111 l 868 83 l 868 7 z "},"Ŭ":{"ha":1097,"x_min":56,"x_max":1042,"o":"m 924 396 q 838 89 924 192 q 542 -14 751 -14 q 258 81 343 -14 q 174 375 174 176 l 174 861 l 56 889 l 56 965 l 452 972 l 452 889 l 319 861 l 319 375 q 343 212 319 271 q 417 129 367 154 q 549 104 467 104 q 685 132 636 104 q 756 223 734 160 q 778 396 778 286 l 778 861 l 646 889 l 646 965 l 1042 972 l 1042 889 l 924 861 l 924 396 m 750 1264 q 723 1156 750 1203 q 650 1082 696 1108 q 549 1056 604 1056 q 457 1081 500 1056 q 388 1154 414 1107 q 361 1257 361 1200 l 445 1264 q 454 1232 445 1257 q 488 1183 463 1206 q 556 1160 513 1160 q 627 1181 602 1160 q 659 1226 652 1203 q 667 1257 667 1249 l 750 1264 z "},"ŭ":{"ha":903,"x_min":28,"x_max":868,"o":"m 868 7 l 639 0 l 625 97 q 513 23 584 60 q 368 -14 441 -14 q 201 52 257 -14 q 146 235 146 117 l 146 625 l 28 653 l 28 729 l 285 736 l 285 249 q 314 140 285 175 q 410 104 343 104 q 507 129 463 104 q 581 182 551 153 q 611 214 611 211 l 611 625 l 493 653 l 493 729 l 750 736 l 750 111 l 868 83 l 868 7 m 639 1063 q 612 954 639 1002 q 539 881 585 907 q 437 854 493 854 q 346 880 389 854 q 277 952 303 905 q 250 1055 250 999 l 334 1063 q 342 1030 334 1056 q 376 981 351 1004 q 445 958 401 958 q 516 980 491 958 q 548 1024 541 1002 q 555 1055 555 1047 l 639 1063 z "},"Ů":{"ha":1097,"x_min":56,"x_max":1042,"o":"m 924 396 q 838 89 924 192 q 542 -14 751 -14 q 258 81 343 -14 q 174 375 174 176 l 174 861 l 56 889 l 56 965 l 452 972 l 452 889 l 319 861 l 319 375 q 343 212 319 271 q 417 129 367 154 q 549 104 467 104 q 685 132 636 104 q 756 223 734 160 q 778 396 778 286 l 778 861 l 646 889 l 646 965 l 1042 972 l 1042 889 l 924 861 l 924 396 m 396 1174 q 419 1258 396 1221 q 478 1314 441 1295 q 555 1333 515 1333 q 667 1293 619 1333 q 715 1181 715 1252 q 692 1097 715 1133 q 633 1041 669 1060 q 555 1021 596 1021 q 444 1062 492 1021 q 396 1174 396 1103 m 479 1177 q 499 1113 479 1135 q 555 1090 519 1090 q 610 1114 589 1090 q 632 1178 632 1138 q 612 1242 632 1219 q 555 1264 592 1264 q 501 1240 522 1264 q 479 1177 479 1217 z "},"ů":{"ha":903,"x_min":28,"x_max":868,"o":"m 271 972 q 294 1056 271 1019 q 353 1113 317 1093 q 431 1132 390 1132 q 542 1091 494 1132 q 590 979 590 1050 q 567 895 590 932 q 508 839 545 859 q 431 819 471 819 q 319 860 367 819 q 271 972 271 901 m 354 975 q 374 911 354 933 q 431 889 395 889 q 486 912 464 889 q 507 977 507 936 q 487 1040 507 1018 q 431 1063 467 1063 q 376 1039 397 1063 q 354 975 354 1015 m 868 7 l 639 0 l 625 97 q 513 23 584 60 q 368 -14 441 -14 q 201 52 257 -14 q 146 235 146 117 l 146 625 l 28 653 l 28 729 l 285 736 l 285 249 q 314 140 285 175 q 410 104 343 104 q 507 129 463 104 q 581 182 551 153 q 611 214 611 211 l 611 625 l 493 653 l 493 729 l 750 736 l 750 111 l 868 83 l 868 7 z "},"Ű":{"ha":1097,"x_min":56,"x_max":1042,"o":"m 488 1307 l 579 1226 l 382 1018 l 307 1076 l 488 1307 m 758 1307 l 850 1226 l 653 1018 l 578 1076 l 758 1307 m 924 396 q 838 89 924 192 q 542 -14 751 -14 q 258 81 343 -14 q 174 375 174 176 l 174 861 l 56 889 l 56 965 l 452 972 l 452 889 l 319 861 l 319 375 q 343 212 319 271 q 417 129 367 154 q 549 104 467 104 q 685 132 636 104 q 756 223 734 160 q 778 396 778 286 l 778 861 l 646 889 l 646 965 l 1042 972 l 1042 889 l 924 861 l 924 396 z "},"ű":{"ha":903,"x_min":28,"x_max":868,"o":"m 868 7 l 639 0 l 625 97 q 513 23 584 60 q 368 -14 441 -14 q 201 52 257 -14 q 146 235 146 117 l 146 625 l 28 653 l 28 729 l 285 736 l 285 249 q 314 140 285 175 q 410 104 343 104 q 507 129 463 104 q 581 182 551 153 q 611 214 611 211 l 611 625 l 493 653 l 493 729 l 750 736 l 750 111 l 868 83 l 868 7 m 383 1112 l 475 1032 l 277 823 l 216 875 l 383 1112 m 640 1112 l 732 1032 l 534 823 l 473 875 l 640 1112 z "},"Ų":{"ha":1097,"x_min":56,"x_max":1042,"o":"m 924 396 q 879 154 924 248 q 732 17 835 60 q 612 -56 676 -7 q 549 -160 549 -106 q 566 -207 549 -191 q 611 -222 583 -222 q 649 -218 629 -222 q 673 -212 668 -214 l 688 -278 q 667 -287 684 -281 q 626 -299 650 -293 q 576 -306 602 -306 q 477 -270 517 -306 q 437 -174 437 -235 q 471 -80 437 -121 q 546 -14 504 -39 q 326 29 408 -14 q 209 157 244 72 q 174 375 174 241 l 174 861 l 56 889 l 56 965 l 452 972 l 452 889 l 319 861 l 319 375 q 343 212 319 271 q 417 129 367 154 q 549 104 467 104 q 685 132 636 104 q 756 223 734 160 q 778 396 778 286 l 778 861 l 646 889 l 646 965 l 1042 972 l 1042 889 l 924 861 l 924 396 z "},"ų":{"ha":903,"x_min":28,"x_max":868,"o":"m 868 7 q 822 -18 868 9 q 738 -83 775 -46 q 701 -160 701 -119 q 719 -207 701 -191 q 764 -222 736 -222 q 801 -218 782 -222 q 827 -212 821 -214 l 840 -278 q 820 -287 836 -281 q 779 -299 803 -293 q 729 -306 754 -306 q 630 -270 669 -306 q 590 -174 590 -235 q 639 -62 590 -107 q 733 3 688 -17 l 639 0 l 625 97 q 513 23 584 60 q 368 -14 441 -14 q 201 52 257 -14 q 146 235 146 117 l 146 625 l 28 653 l 28 729 l 285 736 l 285 249 q 314 140 285 175 q 410 104 343 104 q 507 129 463 104 q 581 182 551 153 q 611 214 611 211 l 611 625 l 493 653 l 493 729 l 750 736 l 750 111 l 868 83 l 868 7 z "},"Ŵ":{"ha":1437,"x_min":7,"x_max":1430,"o":"m 479 1104 l 681 1271 l 764 1278 l 965 1104 l 909 1042 l 725 1171 l 534 1042 l 479 1104 m 7 965 l 396 972 l 396 889 l 275 861 l 424 232 l 653 965 l 785 972 l 1010 216 l 1182 861 l 1055 889 l 1055 965 l 1430 972 l 1430 889 l 1321 861 l 1076 0 l 924 0 l 757 639 l 717 789 l 673 632 l 486 0 l 347 0 l 115 861 l 7 889 l 7 965 z "},"ŵ":{"ha":1152,"x_min":7,"x_max":1146,"o":"m 549 1090 l 632 1090 l 843 896 l 785 833 l 590 986 l 396 833 l 347 896 l 549 1090 m 334 125 l 515 729 l 647 750 l 819 125 l 930 632 l 833 653 l 833 729 l 1146 736 l 1146 653 l 1065 639 l 896 0 l 736 0 l 604 431 l 571 564 l 542 431 l 410 0 l 250 0 l 77 632 l 7 653 l 7 729 l 319 736 l 319 653 l 215 639 l 334 125 z "},"Ŷ":{"ha":895,"x_min":14,"x_max":882,"o":"m 216 1104 l 418 1271 l 501 1278 l 703 1104 l 647 1042 l 463 1171 l 272 1042 l 216 1104 m 375 359 l 107 863 l 14 889 l 14 965 l 361 972 l 361 889 l 267 861 l 452 472 l 656 861 l 549 889 l 549 965 l 882 972 l 882 889 l 796 864 l 521 363 l 521 111 l 639 83 l 639 0 l 257 0 l 257 83 l 375 111 l 375 359 z "},"ŷ":{"ha":801,"x_min":14,"x_max":794,"o":"m 355 1090 l 439 1090 l 650 896 l 591 833 l 397 986 l 203 833 l 154 896 l 355 1090 m 410 153 l 562 632 l 465 653 l 465 729 l 794 736 l 794 653 l 704 639 l 507 89 l 494 56 q 408 -146 448 -68 q 300 -279 368 -225 q 132 -334 232 -334 q 81 -331 110 -334 q 43 -326 52 -328 l 56 -229 l 125 -229 q 243 -172 193 -229 q 346 -3 294 -115 l 97 632 l 14 653 l 14 729 l 340 736 l 340 653 l 243 639 l 410 153 z "},"Ÿ":{"ha":895,"x_min":14,"x_max":882,"o":"m 222 1146 q 244 1207 222 1185 q 298 1229 267 1229 q 355 1207 334 1229 q 375 1146 375 1185 q 353 1085 375 1107 q 298 1063 330 1063 q 242 1085 262 1063 q 222 1146 222 1107 m 507 1146 q 529 1207 507 1185 q 583 1229 551 1229 q 640 1207 619 1229 q 660 1146 660 1185 q 637 1085 660 1107 q 583 1063 615 1063 q 527 1085 547 1063 q 507 1146 507 1107 m 375 359 l 107 863 l 14 889 l 14 965 l 361 972 l 361 889 l 267 861 l 452 472 l 656 861 l 549 889 l 549 965 l 882 972 l 882 889 l 796 864 l 521 363 l 521 111 l 639 83 l 639 0 l 257 0 l 257 83 l 375 111 l 375 359 z "},"Ź":{"ha":854,"x_min":56,"x_max":799,"o":"m 243 111 l 673 111 l 701 250 l 791 250 l 791 0 l 56 0 l 56 97 l 611 861 l 222 861 l 187 722 l 97 722 l 97 972 l 799 972 l 799 875 l 243 111 m 301 1095 l 554 1296 l 625 1194 l 354 1021 l 301 1095 z "},"ź":{"ha":673,"x_min":62,"x_max":625,"o":"m 501 104 l 521 215 l 618 215 l 618 0 l 62 0 l 62 104 l 468 632 l 207 632 l 187 528 l 90 528 l 90 736 l 625 736 l 625 632 l 218 104 l 501 104 m 493 1111 l 563 1007 l 271 827 l 222 896 l 493 1111 z "},"Ż":{"ha":854,"x_min":56,"x_max":799,"o":"m 347 1146 q 370 1207 347 1185 q 424 1229 392 1229 q 480 1207 460 1229 q 500 1146 500 1185 q 478 1085 500 1107 q 424 1063 456 1063 q 368 1085 388 1063 q 347 1146 347 1107 m 243 111 l 673 111 l 701 250 l 791 250 l 791 0 l 56 0 l 56 97 l 611 861 l 222 861 l 187 722 l 97 722 l 97 972 l 799 972 l 799 875 l 243 111 z "},"ż":{"ha":673,"x_min":62,"x_max":625,"o":"m 275 972 q 297 1033 275 1011 q 351 1055 319 1055 q 408 1033 387 1055 q 428 972 428 1011 q 406 911 428 934 q 351 889 383 889 q 295 911 315 889 q 275 972 275 933 m 501 104 l 521 215 l 618 215 l 618 0 l 62 0 l 62 104 l 468 632 l 207 632 l 187 528 l 90 528 l 90 736 l 625 736 l 625 632 l 218 104 l 501 104 z "},"Ž":{"ha":854,"x_min":56,"x_max":799,"o":"m 243 111 l 673 111 l 701 250 l 791 250 l 791 0 l 56 0 l 56 97 l 611 861 l 222 861 l 187 722 l 97 722 l 97 972 l 799 972 l 799 875 l 243 111 m 665 1215 l 464 1048 l 380 1042 l 179 1215 l 235 1278 l 419 1149 l 610 1278 l 665 1215 z "},"ž":{"ha":673,"x_min":62,"x_max":627,"o":"m 501 104 l 521 215 l 618 215 l 618 0 l 62 0 l 62 104 l 468 632 l 207 632 l 187 528 l 90 528 l 90 736 l 625 736 l 625 632 l 218 104 l 501 104 m 572 1090 l 627 1028 l 419 840 l 336 833 l 127 1028 l 183 1090 l 375 940 l 572 1090 z "},"ſ":{"ha":597,"x_min":97,"x_max":673,"o":"m 215 812 q 282 1011 215 939 q 472 1083 349 1083 q 575 1072 530 1083 q 647 1049 621 1061 q 673 1035 673 1036 l 673 861 l 576 861 l 555 972 q 530 977 550 974 q 479 979 510 979 q 382 944 410 979 q 354 840 354 908 l 354 111 l 489 77 l 489 0 l 97 0 l 97 77 l 215 111 l 215 812 z "},"ƒ":{"ha":611,"x_min":-83,"x_max":583,"o":"m 7 -167 q 98 -134 71 -167 q 132 -35 126 -102 l 182 521 l 62 521 l 65 611 l 192 625 l 208 812 q 288 1011 219 940 q 479 1083 357 1083 q 540 1080 506 1083 q 583 1075 574 1076 l 576 972 l 479 972 q 388 940 416 972 q 354 840 359 907 l 338 625 l 534 625 l 532 521 l 328 521 l 281 -7 q 199 -206 270 -134 q 7 -278 129 -278 q -45 -274 -16 -278 q -83 -269 -74 -271 l -69 -167 l 7 -167 z "},"Ǻ":{"ha":1006,"x_min":7,"x_max":1000,"o":"m 1000 0 l 597 0 l 597 83 l 726 110 l 673 264 l 313 264 l 258 110 l 389 83 l 389 0 l 7 0 l 7 83 l 121 110 l 433 954 q 371 1008 395 972 q 347 1090 347 1043 q 370 1175 347 1138 q 430 1231 393 1211 q 507 1250 467 1250 q 619 1209 571 1250 q 667 1097 667 1168 q 644 1013 667 1048 q 582 956 621 977 l 885 110 l 1000 83 l 1000 0 m 507 1181 q 452 1157 473 1181 q 431 1093 431 1133 q 451 1029 431 1052 q 507 1007 471 1007 q 562 1030 541 1007 q 583 1095 583 1054 q 563 1158 583 1136 q 507 1181 543 1181 m 496 793 l 350 375 l 636 375 l 496 793 z "},"ǻ":{"ha":785,"x_min":0,"x_max":743,"o":"m 104 694 q 159 712 115 699 q 262 738 203 725 q 375 750 322 750 q 567 700 501 750 q 632 534 632 650 l 632 111 l 743 83 l 743 7 l 528 0 l 498 97 q 395 19 454 52 q 271 -14 336 -14 q 117 41 172 -14 q 62 195 62 96 q 145 360 62 310 q 382 410 228 410 l 493 410 l 493 521 q 459 614 493 582 q 361 646 425 646 q 292 641 323 646 q 243 631 261 636 q 221 625 225 627 l 201 521 l 111 521 l 104 694 m 396 319 q 249 292 293 319 q 204 201 204 264 q 231 125 204 154 q 306 97 258 97 q 393 122 352 97 q 464 176 435 147 q 493 208 493 205 l 493 319 l 396 319 m 232 958 q 255 1042 232 1005 q 314 1098 277 1079 q 391 1118 351 1118 q 503 1077 455 1118 q 551 965 551 1036 q 528 881 551 918 q 469 825 505 844 q 391 806 432 806 q 280 846 328 806 q 232 958 232 887 m 315 961 q 335 897 315 919 q 391 875 355 875 q 446 899 425 875 q 468 962 468 922 q 448 1026 468 1004 q 391 1048 428 1048 q 337 1025 358 1048 q 315 961 315 1001 m 0 0 l 0 0 l 0 0 l 0 0 l 0 0 z "},"Ǽ":{"ha":1332,"x_min":7,"x_max":1249,"o":"m 667 285 l 361 285 l 273 107 l 382 83 l 382 0 l 7 0 l 7 83 l 131 111 l 515 861 l 397 889 l 397 965 l 572 972 l 1235 972 l 1235 736 l 1145 736 l 1109 861 l 812 861 l 812 562 l 1131 562 l 1131 452 l 812 452 l 812 111 l 1131 111 l 1158 250 l 1249 250 l 1249 0 l 542 0 l 542 83 l 667 111 l 667 285 m 646 861 l 416 396 l 667 396 l 667 861 l 646 861 m 672 1095 l 925 1296 l 996 1194 l 725 1021 l 672 1095 z "},"ǽ":{"ha":1160,"x_min":62,"x_max":1111,"o":"m 1111 424 q 1108 379 1111 401 q 1104 350 1105 357 l 625 347 q 681 165 625 233 q 827 97 736 97 q 940 114 888 97 q 1026 151 991 131 q 1060 174 1060 171 l 1108 102 q 1063 68 1108 99 q 952 12 1018 37 q 812 -14 886 -14 q 539 134 616 -14 q 432 36 502 85 q 271 -14 363 -14 q 117 41 172 -14 q 62 195 62 96 q 145 360 62 310 q 382 410 228 410 l 493 410 l 493 521 q 459 614 493 582 q 361 646 425 646 q 292 641 323 646 q 243 631 261 636 q 221 625 225 627 l 201 521 l 111 521 l 104 694 q 159 712 115 699 q 262 738 203 725 q 375 750 322 750 q 591 653 542 750 q 692 725 634 701 q 819 750 750 750 q 1111 424 1111 750 m 964 452 q 928 589 964 536 q 812 642 892 642 q 685 587 732 642 q 631 452 637 533 l 964 452 m 396 319 q 247 292 292 319 q 201 201 201 264 q 230 125 201 154 q 306 97 258 97 q 393 123 352 97 q 464 181 435 150 q 493 215 493 212 l 493 319 l 396 319 m 736 1111 l 806 1007 l 514 827 l 465 896 l 736 1111 z "},"Ǿ":{"ha":1062,"x_min":90,"x_max":972,"o":"m 829 885 q 936 723 899 821 q 972 500 972 625 q 915 232 972 349 q 753 51 857 115 q 514 -14 648 -14 q 313 28 399 -14 l 208 -146 l 118 -97 l 228 85 q 90 479 90 210 q 145 746 90 631 q 302 924 200 861 q 542 986 404 986 q 745 942 656 986 l 833 1090 l 924 1042 l 829 885 m 677 832 q 534 868 616 868 q 323 774 395 868 q 250 486 250 681 q 307 216 250 314 l 677 832 m 380 140 q 521 104 437 104 q 736 202 660 104 q 812 493 812 300 q 753 758 812 663 l 380 140 m 385 1095 l 637 1296 l 708 1194 l 437 1021 l 385 1095 z "},"ǿ":{"ha":805,"x_min":62,"x_max":743,"o":"m 165 64 q 62 361 62 159 q 107 566 62 477 q 233 702 153 654 q 416 750 313 750 q 558 722 494 750 l 646 868 l 729 819 l 639 668 q 717 547 690 621 q 743 382 743 473 q 700 175 743 265 q 578 36 657 85 q 396 -14 498 -14 q 248 12 315 -14 l 153 -146 l 69 -97 l 165 64 m 410 639 q 258 571 307 639 q 208 368 208 504 q 240 191 208 254 l 497 619 q 410 639 458 639 m 597 375 q 566 546 597 481 l 310 118 q 403 97 349 97 q 551 166 505 97 q 597 375 597 236 m 521 1111 l 591 1007 l 299 827 l 250 896 l 521 1111 z "},"Ș":{"ha":829,"x_min":97,"x_max":746,"o":"m 236 139 q 261 128 241 136 q 315 112 281 119 q 389 104 349 104 q 537 144 472 104 q 602 253 602 183 q 574 328 602 298 q 505 377 546 358 q 392 422 464 396 q 240 485 298 456 q 141 569 182 514 q 100 710 100 624 q 194 917 100 848 q 429 986 288 986 q 553 974 488 986 q 664 948 618 961 q 722 930 710 935 l 715 694 l 625 694 l 578 843 q 551 851 572 844 q 497 863 530 857 q 431 868 464 868 q 294 828 342 868 q 245 733 245 789 q 273 658 245 688 q 343 608 301 628 q 460 562 385 589 q 608 502 550 530 q 706 421 665 473 q 746 290 746 370 q 697 122 746 191 q 566 20 648 53 q 383 -14 484 -14 q 255 -1 318 -14 q 150 24 192 11 q 97 41 109 37 l 97 285 l 208 285 l 236 139 m 354 -155 q 378 -93 354 -117 q 437 -69 401 -69 q 498 -94 475 -69 q 521 -160 521 -118 q 480 -277 521 -214 q 368 -396 439 -339 l 312 -340 q 334 -317 317 -335 q 367 -277 351 -298 q 382 -243 382 -256 q 370 -212 382 -235 q 359 -185 365 -200 q 354 -155 354 -170 z "},"ș":{"ha":651,"x_min":62,"x_max":589,"o":"m 176 103 q 211 96 176 102 q 293 90 245 90 q 450 200 450 90 q 412 268 450 245 q 293 315 374 290 q 173 361 219 339 q 95 425 127 383 q 62 533 62 467 q 133 694 62 637 q 317 750 204 750 q 418 741 366 750 q 508 722 471 732 q 554 708 545 711 l 550 521 l 460 521 l 437 629 q 419 635 433 631 q 380 642 406 639 q 325 646 355 646 q 201 553 201 646 q 241 484 201 508 q 361 433 281 460 q 479 387 433 408 q 557 325 525 366 q 589 224 589 285 q 502 47 589 109 q 283 -14 415 -14 q 178 -7 227 -14 q 100 7 129 0 q 64 17 71 14 l 64 222 l 161 222 l 176 103 m 224 -155 q 248 -93 224 -117 q 307 -69 271 -69 q 368 -94 345 -69 q 391 -160 391 -118 q 350 -277 391 -214 q 237 -396 309 -339 l 182 -340 q 204 -317 187 -335 q 236 -277 221 -298 q 252 -243 252 -256 q 240 -212 252 -235 q 229 -185 235 -200 q 224 -155 224 -170 z "},"Ț":{"ha":785,"x_min":14,"x_max":771,"o":"m 180 83 l 319 111 l 319 861 l 139 861 l 104 722 l 14 722 l 14 972 l 771 972 l 771 722 l 681 722 l 646 861 l 465 861 l 465 111 l 604 83 l 604 0 l 180 0 l 180 83 m 326 -155 q 350 -93 326 -117 q 410 -69 374 -69 q 470 -94 447 -69 q 493 -160 493 -118 q 452 -277 493 -214 q 340 -396 411 -339 l 284 -340 q 307 -317 290 -335 q 339 -277 323 -298 q 354 -243 354 -256 q 342 -212 354 -235 q 332 -185 337 -200 q 326 -155 326 -170 z "},"ț":{"ha":548,"x_min":28,"x_max":521,"o":"m 507 625 l 306 625 l 306 179 q 375 94 306 94 q 484 129 420 94 l 521 56 q 326 -14 427 -14 q 211 33 256 -14 q 167 187 167 79 l 167 625 l 28 625 l 28 715 l 167 729 l 167 904 l 306 932 l 306 729 l 507 729 l 507 625 m 224 -155 q 248 -93 224 -117 q 307 -69 271 -69 q 368 -94 345 -69 q 391 -160 391 -118 q 350 -277 391 -214 q 237 -396 309 -339 l 182 -340 q 204 -317 187 -335 q 236 -277 221 -298 q 252 -243 252 -256 q 240 -212 252 -235 q 229 -185 235 -200 q 224 -155 224 -170 z "},"ȷ":{"ha":394,"x_min":-56,"x_max":290,"o":"m 290 -62 q 223 -261 290 -189 q 33 -334 157 -334 q -18 -331 11 -334 q -56 -326 -47 -328 l -43 -229 l 26 -229 q 123 -194 96 -229 q 151 -90 151 -158 l 151 625 l 33 653 l 33 729 l 290 736 l 290 -62 z "},"ʼ":{"ha":430,"x_min":111,"x_max":329,"o":"m 233 1125 q 271 1108 248 1125 q 312 1068 294 1092 q 329 1025 329 1044 q 186 789 329 936 l 111 860 q 155 907 123 872 q 187 951 187 942 q 170 982 187 961 q 143 1032 143 1011 q 178 1089 143 1053 q 233 1125 212 1125 z "},"ˆ":{"ha":722,"x_min":118,"x_max":604,"o":"m 118 965 l 319 1132 l 403 1139 l 604 965 l 549 903 l 364 1032 l 174 903 l 118 965 z "},"ˇ":{"ha":500,"x_min":0,"x_max":500,"o":"m 444 1090 l 500 1028 l 292 840 l 208 833 l 0 1028 l 56 1090 l 248 940 l 444 1090 z "},"ˉ":{"ha":389,"x_min":7,"x_max":382,"o":"m 382 917 l 7 917 l 7 1021 l 382 1021 l 382 917 z "},"˘":{"ha":611,"x_min":111,"x_max":500,"o":"m 500 1063 q 473 954 500 1002 q 400 881 446 907 q 298 854 354 854 q 207 880 250 854 q 138 952 164 905 q 111 1055 111 999 l 195 1063 q 203 1030 195 1056 q 237 981 212 1004 q 306 958 262 958 q 377 980 352 958 q 409 1024 401 1002 q 416 1055 416 1047 l 500 1063 z "},"˙":{"ha":402,"x_min":125,"x_max":278,"o":"m 125 972 q 147 1033 125 1011 q 201 1055 170 1055 q 258 1033 237 1055 q 278 972 278 1011 q 256 911 278 934 q 201 889 233 889 q 145 911 165 889 q 125 972 125 933 z "},"˚":{"ha":541,"x_min":111,"x_max":431,"o":"m 111 979 q 134 1063 111 1026 q 194 1119 157 1100 q 271 1139 231 1139 q 382 1098 334 1139 q 431 986 431 1057 q 408 902 431 939 q 348 846 385 865 q 271 827 311 827 q 159 867 207 827 q 111 979 111 908 m 195 982 q 215 918 195 940 q 271 896 235 896 q 326 920 304 896 q 347 983 347 943 q 327 1047 347 1025 q 271 1069 307 1069 q 216 1046 237 1069 q 195 982 195 1022 z "},"˛":{"ha":430,"x_min":97,"x_max":375,"o":"m 347 -278 q 327 -287 343 -281 q 286 -299 310 -293 q 236 -306 261 -306 q 137 -270 176 -306 q 97 -174 97 -235 q 131 -80 97 -121 q 208 -15 165 -40 q 250 7 250 9 l 375 7 q 329 -18 375 9 q 245 -83 282 -46 q 208 -160 208 -119 q 225 -207 208 -191 q 271 -222 243 -222 q 308 -218 289 -222 q 334 -212 328 -214 l 347 -278 z "},"˜":{"ha":785,"x_min":132,"x_max":660,"o":"m 132 930 q 153 969 132 935 q 208 1032 174 1003 q 285 1061 241 1061 q 347 1053 318 1061 q 412 1028 376 1044 q 471 1005 448 1013 q 521 997 494 997 q 566 1010 546 997 q 597 1037 586 1023 q 611 1055 608 1051 l 660 1007 q 641 970 660 1003 q 590 909 623 937 q 514 882 557 882 q 453 890 481 882 q 386 914 425 899 q 329 936 353 928 q 278 943 306 943 q 231 929 253 943 q 196 901 210 916 q 180 882 183 886 l 132 930 z "},"˝":{"ha":805,"x_min":182,"x_max":697,"o":"m 349 1112 l 440 1032 l 243 823 l 182 875 l 349 1112 m 606 1112 l 697 1032 l 500 823 l 439 875 l 606 1112 z "},"̦":{"ha":0,"x_min":41,"x_max":250,"o":"m 83 -155 q 107 -93 83 -117 q 167 -69 131 -69 q 227 -94 204 -69 q 250 -160 250 -118 q 209 -277 250 -214 q 97 -396 168 -339 l 41 -340 q 64 -317 47 -335 q 96 -277 81 -298 q 111 -243 111 -256 q 100 -212 111 -235 q 89 -185 94 -200 q 83 -155 83 -170 z "},"Γ":{"ha":757,"x_min":0,"x_max":0,"o":""},"Δ":{"ha":924,"x_min":28,"x_max":897,"o":"m 897 97 l 897 0 l 28 0 l 28 98 l 395 1000 l 530 1000 l 897 97 m 457 843 l 165 111 l 749 111 l 457 843 z "},"Π":{"ha":1034,"x_min":56,"x_max":993,"o":"m 993 41 q 964 24 987 37 q 903 -1 940 11 q 827 -14 867 -14 q 714 38 755 -14 q 673 201 673 90 l 673 861 l 319 861 l 319 111 l 458 83 l 458 0 l 56 0 l 56 83 l 174 111 l 174 861 l 56 889 l 56 965 l 319 972 l 937 972 l 937 889 l 819 861 l 819 186 q 836 121 819 141 q 875 102 852 102 q 926 109 900 102 q 958 118 951 115 l 993 41 z "},"Ω":{"ha":1048,"x_min":90,"x_max":958,"o":"m 273 111 q 146 283 196 178 q 97 507 97 389 q 150 760 97 652 q 302 927 203 868 q 534 986 401 986 q 759 929 665 986 q 902 767 852 872 q 951 521 951 663 q 901 292 951 401 q 772 111 850 182 l 958 118 l 958 0 l 604 0 l 604 90 q 678 146 633 106 q 764 279 722 186 q 806 514 806 372 q 731 777 806 686 q 528 868 657 868 q 319 781 395 868 q 243 514 243 694 q 286 276 243 370 q 376 140 329 182 q 444 90 422 98 l 444 0 l 90 0 l 90 111 l 273 111 z "},"μ":{"ha":909,"x_min":35,"x_max":875,"o":"m 875 7 l 646 0 l 632 97 q 518 22 586 58 q 375 -14 450 -14 q 292 0 334 -14 l 292 -319 l 153 -319 l 153 625 l 35 653 l 35 729 l 292 736 l 292 235 q 323 136 294 168 q 416 104 353 104 q 514 129 469 104 q 588 182 558 153 q 618 214 618 211 l 618 625 l 500 653 l 500 729 l 757 736 l 757 111 l 875 83 l 875 7 z "},"π":{"ha":958,"x_min":56,"x_max":909,"o":"m 722 632 l 722 179 q 791 94 722 94 q 842 101 817 94 q 875 111 868 109 l 909 41 q 881 24 904 37 q 820 -1 857 11 q 743 -14 783 -14 q 634 34 678 -14 q 590 187 590 81 l 590 625 l 306 625 l 306 0 l 174 0 l 174 625 l 56 653 l 56 729 l 306 736 l 840 736 l 840 653 l 722 632 z "},"ऀ":{"ha":0,"x_min":-496,"x_max":57,"o":"m -496 1202 q -396 1365 -468 1309 q -235 1421 -325 1421 q -70 1370 -149 1421 q 57 1223 8 1318 l -20 1171 q -214 1303 -110 1303 q -309 1269 -269 1303 q -378 1160 -350 1235 l -496 1202 m -208 1014 q -245 1030 -222 1014 q -286 1068 -268 1046 q -304 1107 -304 1090 q -270 1164 -304 1128 q -216 1201 -236 1201 q -178 1184 -202 1201 q -136 1146 -154 1168 q -118 1107 -118 1124 q -153 1050 -118 1086 q -208 1014 -188 1014 z "},"ँ":{"ha":0,"x_min":-488,"x_max":65,"o":"m 65 1247 q -34 1084 37 1140 q -196 1028 -106 1028 q -360 1079 -282 1028 q -488 1226 -439 1131 l -411 1278 q -216 1146 -321 1145 q -121 1180 -162 1146 q -53 1289 -81 1214 l 65 1247 m -222 1435 q -185 1419 -208 1435 q -144 1381 -163 1403 q -126 1342 -126 1358 q -160 1284 -126 1321 q -215 1248 -195 1248 q -253 1264 -229 1248 q -295 1303 -277 1281 q -313 1342 -313 1325 q -278 1399 -313 1363 q -222 1435 -243 1435 z "},"ं":{"ha":0,"x_min":-313,"x_max":-126,"o":"m -222 1244 q -185 1229 -208 1244 q -144 1190 -163 1213 q -126 1152 -126 1168 q -160 1094 -126 1131 q -215 1057 -195 1057 q -253 1074 -229 1057 q -295 1113 -277 1090 q -313 1152 -313 1135 q -278 1208 -313 1173 q -222 1244 -243 1244 z "},"ः":{"ha":443,"x_min":77,"x_max":263,"o":"m 167 298 q 204 282 181 298 q 245 244 227 267 q 263 205 263 222 q 229 148 263 184 q 174 111 195 111 q 136 128 160 111 q 95 166 113 144 q 77 205 77 189 q 112 262 77 227 q 167 298 146 298 m 167 675 q 204 659 181 675 q 245 621 227 643 q 263 582 263 599 q 229 524 263 561 q 174 488 195 488 q 136 504 160 488 q 95 543 113 521 q 77 582 77 565 q 112 639 77 603 q 167 675 146 675 z "},"ऄ":{"ha":1230,"x_min":41,"x_max":1244,"o":"m 1063 0 l 937 0 l 937 450 l 671 450 q 720 298 720 382 q 639 115 720 182 q 435 49 558 49 q 251 97 332 49 q 117 223 170 144 q 41 396 64 302 l 138 440 q 253 229 175 297 q 427 160 330 160 q 545 201 503 160 q 587 313 587 243 q 471 489 587 422 q 318 452 408 467 l 283 562 q 476 626 403 585 q 549 743 549 668 q 511 829 549 799 q 407 860 473 860 q 221 812 323 860 l 175 922 q 406 972 290 972 q 550 938 489 972 q 642 848 611 904 q 673 729 673 793 q 593 554 673 621 l 937 554 l 937 840 l 772 840 l 757 945 l 947 945 q 922 1032 945 1007 q 846 1075 899 1057 q 669 1124 795 1092 q 536 1160 579 1143 q 437 1245 461 1187 q 410 1375 412 1303 l 484 1397 q 517 1315 502 1337 q 574 1276 533 1292 q 685 1242 618 1258 q 764 1223 751 1226 l 880 1194 q 968 1154 933 1179 q 1023 1079 1003 1129 q 1044 945 1043 1029 l 1231 945 l 1244 840 l 1063 840 l 1063 0 z "},"अ":{"ha":1217,"x_min":41,"x_max":1244,"o":"m 1063 0 l 937 0 l 937 450 l 671 450 q 720 298 720 382 q 639 115 720 182 q 435 49 558 49 q 251 97 332 49 q 117 223 170 144 q 41 396 64 302 l 138 440 q 253 229 175 297 q 427 160 330 160 q 545 201 503 160 q 587 313 587 243 q 471 489 587 422 q 318 452 408 467 l 283 562 q 476 626 403 585 q 549 743 549 668 q 511 829 549 799 q 407 860 473 860 q 221 812 323 860 l 175 922 q 406 972 290 972 q 550 938 489 972 q 642 848 611 904 q 673 729 673 793 q 593 554 673 621 l 937 554 l 937 840 l 772 840 l 757 945 l 1231 945 l 1244 840 l 1063 840 l 1063 0 z "},"आ":{"ha":1607,"x_min":41,"x_max":1634,"o":"m 1453 0 l 1328 0 l 1328 840 l 1063 840 l 1063 0 l 937 0 l 937 450 l 671 450 q 720 298 720 382 q 639 115 720 182 q 435 49 558 49 q 251 97 332 49 q 117 223 170 144 q 41 396 64 302 l 138 440 q 253 229 175 297 q 427 160 330 160 q 545 201 503 160 q 587 313 587 243 q 471 489 587 422 q 318 452 408 467 l 283 562 q 476 626 403 585 q 549 743 549 668 q 511 829 549 799 q 407 860 473 860 q 221 812 323 860 l 175 922 q 406 972 290 972 q 550 938 489 972 q 642 848 611 904 q 673 729 673 793 q 593 554 673 621 l 937 554 l 937 840 l 772 840 l 757 945 l 1621 945 l 1634 840 l 1453 840 l 1453 0 z "},"इ":{"ha":793,"x_min":-35,"x_max":828,"o":"m 479 464 q 507 465 489 465 q 652 412 595 465 q 710 271 710 359 q 437 16 710 33 l 581 -143 l 479 -218 l 310 21 q 199 47 254 29 q 104 90 143 65 q 116 180 107 147 q 154 261 125 214 l 231 243 l 345 117 q 375 115 355 115 q 535 156 475 115 q 595 269 595 197 q 574 325 595 304 q 513 346 554 346 l 494 345 l 326 326 l 310 325 q 213 353 260 325 q 136 432 165 382 q 107 542 107 482 q 160 674 107 633 q 319 715 214 715 l 485 715 l 485 840 l -20 840 l -35 945 l 814 945 l 828 840 l 610 840 l 610 608 l 334 608 q 259 587 283 608 q 235 528 235 566 q 253 468 235 492 q 322 449 272 444 l 479 464 z "},"ई":{"ha":793,"x_min":-35,"x_max":828,"o":"m 479 464 q 507 465 489 465 q 652 412 595 465 q 710 271 710 359 q 437 16 710 33 l 581 -143 l 479 -218 l 310 21 q 199 47 254 29 q 104 90 143 65 q 116 180 107 147 q 154 261 125 214 l 231 243 l 345 117 q 375 115 355 115 q 535 156 475 115 q 595 269 595 197 q 574 325 595 304 q 513 346 554 346 l 494 345 l 326 326 l 310 325 q 213 353 260 325 q 136 432 165 382 q 107 542 107 482 q 160 674 107 633 q 319 715 214 715 l 485 715 l 485 840 l -20 840 l -35 945 l 437 945 q 319 1060 357 1007 q 282 1174 282 1112 q 312 1274 282 1232 q 388 1336 342 1315 q 485 1357 435 1357 q 615 1326 554 1357 l 595 1244 q 517 1260 556 1260 q 438 1235 469 1260 q 407 1157 407 1210 q 449 1052 407 1103 q 579 945 490 1002 l 814 945 l 828 840 l 610 840 l 610 608 l 334 608 q 259 587 283 608 q 235 528 235 566 q 253 468 235 492 q 322 449 272 444 l 479 464 z "},"उ":{"ha":794,"x_min":-28,"x_max":822,"o":"m 550 498 q 710 250 710 404 q 629 67 710 134 q 425 0 549 0 q 237 48 322 0 q 96 176 153 97 q 18 347 40 256 l 115 392 q 237 185 155 252 q 416 118 319 118 q 536 157 494 118 q 578 264 578 196 q 541 370 578 322 q 443 452 504 418 q 314 422 382 433 l 272 541 q 410 574 355 556 q 502 628 465 593 q 539 722 539 664 q 498 807 539 774 q 395 840 457 840 l -12 840 l -28 945 l 808 945 l 822 840 l 619 840 q 664 708 664 782 q 550 498 664 569 z "},"ऊ":{"ha":1152,"x_min":-47,"x_max":1181,"o":"m 865 546 q 985 515 933 546 q 1064 431 1036 484 q 1092 319 1092 379 q 1052 172 1092 249 q 945 35 1011 94 l 844 118 q 936 225 897 163 q 974 338 974 288 q 947 410 974 382 q 871 437 921 437 q 774 411 828 437 q 676 336 720 385 q 690 250 690 296 q 610 67 690 134 q 406 0 529 0 q 218 48 302 0 q 77 176 134 97 q -1 347 21 256 l 96 392 q 218 185 136 252 q 397 118 300 118 q 517 157 475 118 q 558 264 558 196 q 522 370 558 322 q 424 452 485 418 q 294 422 363 433 l 253 541 q 391 574 336 556 q 483 628 446 593 q 519 722 519 664 q 478 807 519 774 q 375 840 437 840 l -32 840 l -47 945 l 1166 945 l 1181 840 l 600 840 q 644 708 645 782 q 530 498 644 569 q 610 437 575 472 q 742 521 680 496 q 865 546 804 546 z "},"ऋ":{"ha":1236,"x_min":-28,"x_max":1264,"o":"m 1010 153 q 1101 169 1051 153 q 1196 208 1152 184 l 1242 104 q 1137 63 1190 77 q 1038 49 1083 49 q 911 77 967 49 q 825 154 856 106 q 794 257 794 201 q 824 355 794 306 q 914 444 854 404 q 803 507 854 467 q 642 400 757 475 l 642 0 l 517 0 l 517 328 l 136 41 l 54 142 l 488 422 q 225 576 339 576 q 92 542 159 576 l 47 650 q 215 694 132 694 q 355 653 284 694 q 517 529 425 612 l 517 840 l -12 840 l -28 945 l 1250 945 l 1264 840 l 642 840 l 642 511 l 749 583 l 762 755 l 818 793 q 901 752 867 773 q 968 701 936 730 q 880 571 948 635 q 961 533 915 546 q 1036 519 1007 519 l 1065 407 q 899 243 899 339 q 930 176 899 200 q 1010 153 962 153 z "},"ऌ":{"ha":1129,"x_min":-39,"x_max":1177,"o":"m 903 -119 q 1071 -64 979 -119 l 1120 -167 q 909 -225 1021 -225 q 783 -194 839 -225 q 694 -111 726 -163 q 663 0 663 -60 q 696 116 663 68 q 796 227 729 164 q 894 334 861 288 q 926 444 926 380 q 890 551 926 512 q 787 590 854 590 q 657 521 701 590 q 614 334 614 452 l 614 304 l 496 319 l 496 347 q 513 494 496 431 q 454 567 494 537 q 368 597 414 597 q 259 545 300 597 q 218 410 218 493 q 281 226 218 321 q 437 56 345 131 l 358 -21 q 170 173 254 60 q 86 424 86 286 q 121 574 86 511 q 215 669 155 636 q 349 701 275 701 q 467 671 411 701 q 555 593 522 642 q 732 692 614 677 l 732 840 l -24 840 l -39 945 l 1162 945 l 1177 840 l 857 840 l 857 682 q 995 588 939 657 q 1051 431 1051 519 q 1028 312 1051 364 q 974 223 1006 260 q 890 140 942 186 q 811 57 835 87 q 787 -14 787 26 q 819 -92 787 -65 q 903 -119 850 -119 z "},"ऍ":{"ha":822,"x_min":-36,"x_max":856,"o":"m 461 339 q 558 417 532 382 q 585 514 585 453 l 585 840 l 224 840 l 224 431 q 242 347 224 382 q 319 272 261 313 l 553 111 q 663 18 627 61 q 699 -72 699 -25 q 686 -145 699 -106 q 648 -232 674 -183 l 535 -158 q 567 -69 567 -101 q 548 -22 567 -41 q 484 28 528 -3 l 453 49 l 236 200 q 127 307 155 256 q 99 439 99 358 l 99 840 l -20 840 l -36 945 l 842 945 l 856 840 l 710 840 l 710 478 q 675 350 710 401 q 557 250 640 298 l 461 339 m 704 1247 q 605 1084 676 1140 q 443 1028 533 1028 q 278 1079 357 1028 q 151 1226 200 1131 l 228 1278 q 422 1146 318 1145 q 517 1180 477 1146 q 586 1289 558 1214 l 704 1247 z "},"ऎ":{"ha":830,"x_min":-28,"x_max":864,"o":"m 469 339 q 567 417 541 382 q 593 514 593 453 l 593 840 l 232 840 l 232 431 q 251 347 232 382 q 328 272 269 313 l 561 111 q 671 18 635 61 q 707 -72 707 -25 q 694 -145 707 -106 q 656 -232 682 -183 l 543 -158 q 575 -69 575 -101 q 556 -22 575 -41 q 492 28 536 -3 l 461 49 l 244 200 q 135 307 163 256 q 107 439 107 358 l 107 840 l -12 840 l -28 945 l 607 945 q 581 1032 604 1007 q 505 1075 558 1057 q 329 1124 455 1092 q 196 1160 239 1143 q 96 1245 121 1187 q 69 1375 72 1303 l 143 1397 q 177 1315 161 1337 q 233 1276 193 1292 q 345 1242 278 1258 q 424 1223 411 1226 l 541 1194 q 628 1154 593 1179 q 683 1079 663 1129 q 704 945 703 1029 l 850 945 l 864 840 l 718 840 l 718 478 q 683 350 718 401 q 566 250 648 298 l 469 339 z "},"ए":{"ha":836,"x_min":-28,"x_max":864,"o":"m 469 339 q 567 417 541 382 q 593 514 593 453 l 593 840 l 232 840 l 232 431 q 251 347 232 382 q 328 272 269 313 l 561 111 q 671 18 635 61 q 707 -72 707 -25 q 694 -145 707 -106 q 656 -232 682 -183 l 543 -158 q 575 -69 575 -101 q 556 -22 575 -41 q 492 28 536 -3 l 461 49 l 244 200 q 135 307 163 256 q 107 439 107 358 l 107 840 l -12 840 l -28 945 l 850 945 l 864 840 l 718 840 l 718 478 q 683 350 718 401 q 566 250 648 298 l 469 339 z "},"ऐ":{"ha":836,"x_min":-28,"x_max":864,"o":"m 469 339 q 567 417 541 382 q 593 514 593 453 l 593 840 l 232 840 l 232 431 q 251 347 232 382 q 328 272 269 313 l 561 111 q 671 18 635 61 q 707 -72 707 -25 q 694 -145 707 -106 q 656 -232 682 -183 l 543 -158 q 575 -69 575 -101 q 556 -22 575 -41 q 492 28 536 -3 l 461 49 l 244 200 q 135 307 163 256 q 107 439 107 358 l 107 840 l -12 840 l -28 945 l 593 945 q 533 1032 566 982 q 435 1165 473 1120 q 342 1237 397 1210 q 208 1264 288 1264 l 163 1264 l 140 1375 l 231 1375 q 390 1342 326 1375 q 497 1253 453 1308 q 612 1086 542 1197 q 704 945 672 989 l 850 945 l 864 840 l 718 840 l 718 478 q 683 350 718 401 q 566 250 648 298 l 469 339 z "},"ऑ":{"ha":1607,"x_min":41,"x_max":1675,"o":"m 1453 0 l 1328 0 l 1328 840 l 1063 840 l 1063 0 l 937 0 l 937 450 l 671 450 q 720 298 720 382 q 639 115 720 182 q 435 49 558 49 q 251 97 332 49 q 117 223 170 144 q 41 396 64 302 l 138 440 q 253 229 175 297 q 427 160 330 160 q 545 201 503 160 q 587 313 587 243 q 471 489 587 422 q 318 452 408 467 l 283 562 q 476 626 403 585 q 549 743 549 668 q 511 829 549 799 q 407 860 473 860 q 221 812 323 860 l 175 922 q 406 972 290 972 q 550 938 489 972 q 642 848 611 904 q 673 729 673 793 q 593 554 673 621 l 937 554 l 937 840 l 772 840 l 757 945 l 1621 945 l 1634 840 l 1453 840 l 1453 0 m 1675 1247 q 1576 1084 1647 1140 q 1414 1028 1504 1028 q 1250 1079 1328 1028 q 1122 1226 1171 1131 l 1199 1278 q 1394 1146 1289 1145 q 1489 1180 1448 1146 q 1557 1289 1529 1214 l 1675 1247 z "},"ऒ":{"ha":1607,"x_min":41,"x_max":1634,"o":"m 1453 0 l 1328 0 l 1328 840 l 1063 840 l 1063 0 l 937 0 l 937 450 l 671 450 q 720 298 720 382 q 639 115 720 182 q 435 49 558 49 q 251 97 332 49 q 117 223 170 144 q 41 396 64 302 l 138 440 q 253 229 175 297 q 427 160 330 160 q 545 201 503 160 q 587 313 587 243 q 471 489 587 422 q 318 452 408 467 l 283 562 q 476 626 403 585 q 549 743 549 668 q 511 829 549 799 q 407 860 473 860 q 221 812 323 860 l 175 922 q 406 972 290 972 q 550 938 489 972 q 642 848 611 904 q 673 729 673 793 q 593 554 673 621 l 937 554 l 937 840 l 772 840 l 757 945 l 1343 945 q 1317 1032 1340 1007 q 1242 1075 1295 1057 q 1065 1124 1192 1092 q 932 1160 975 1143 q 832 1245 857 1187 q 806 1375 808 1303 l 879 1397 q 913 1315 897 1337 q 970 1276 929 1292 q 1081 1242 1015 1258 q 1160 1223 1147 1226 l 1276 1194 q 1364 1154 1329 1179 q 1419 1079 1398 1129 q 1440 945 1439 1029 l 1621 945 l 1634 840 l 1453 840 l 1453 0 z "},"ओ":{"ha":1607,"x_min":41,"x_max":1634,"o":"m 1453 0 l 1328 0 l 1328 840 l 1063 840 l 1063 0 l 937 0 l 937 450 l 671 450 q 720 298 720 382 q 639 115 720 182 q 435 49 558 49 q 251 97 332 49 q 117 223 170 144 q 41 396 64 302 l 138 440 q 253 229 175 297 q 427 160 330 160 q 545 201 503 160 q 587 313 587 243 q 471 489 587 422 q 318 452 408 467 l 283 562 q 476 626 403 585 q 549 743 549 668 q 511 829 549 799 q 407 860 473 860 q 221 812 323 860 l 175 922 q 406 972 290 972 q 550 938 489 972 q 642 848 611 904 q 673 729 673 793 q 593 554 673 621 l 937 554 l 937 840 l 772 840 l 757 945 l 1329 945 q 1270 1032 1303 982 q 1172 1165 1210 1120 q 1078 1237 1133 1210 q 945 1264 1023 1264 l 899 1264 l 876 1375 l 966 1375 q 1125 1342 1062 1375 q 1233 1253 1189 1308 q 1349 1086 1278 1197 q 1440 945 1410 989 l 1621 945 l 1634 840 l 1453 840 l 1453 0 z "},"औ":{"ha":1607,"x_min":41,"x_max":1634,"o":"m 1453 0 l 1328 0 l 1328 840 l 1063 840 l 1063 0 l 937 0 l 937 450 l 671 450 q 720 298 720 382 q 639 115 720 182 q 435 49 558 49 q 251 97 332 49 q 117 223 170 144 q 41 396 64 302 l 138 440 q 253 229 175 297 q 427 160 330 160 q 545 201 503 160 q 587 313 587 243 q 471 489 587 422 q 318 452 408 467 l 283 562 q 476 626 403 585 q 549 743 549 668 q 511 829 549 799 q 407 860 473 860 q 221 812 323 860 l 175 922 q 406 972 290 972 q 550 938 489 972 q 642 848 611 904 q 673 729 673 793 q 593 554 673 621 l 937 554 l 937 840 l 772 840 l 757 945 l 1335 945 q 1225 1063 1284 1025 q 1099 1112 1166 1101 q 918 1122 1031 1122 l 885 1122 l 863 1234 l 942 1234 q 1118 1211 1046 1234 q 1242 1136 1190 1187 q 1167 1254 1203 1211 q 1079 1317 1132 1296 q 945 1339 1026 1339 l 899 1339 l 876 1450 l 966 1450 q 1143 1410 1076 1450 q 1255 1298 1210 1371 q 1372 1074 1300 1226 q 1434 945 1390 1032 l 1621 945 l 1634 840 l 1453 840 l 1453 0 z "},"क":{"ha":1211,"x_min":-28,"x_max":1239,"o":"m 857 679 q 995 648 932 679 q 1095 559 1057 618 q 1132 424 1132 501 q 1084 262 1132 342 q 947 114 1036 182 l 847 211 q 1000 437 1000 325 q 965 533 1000 498 q 873 567 929 567 q 780 543 827 567 q 694 473 733 519 l 694 0 l 570 0 l 570 277 q 463 214 521 235 q 346 192 406 192 q 208 223 272 192 q 106 314 144 254 q 68 454 68 374 q 146 633 68 566 q 382 701 224 701 l 488 701 l 500 597 l 390 597 q 253 556 305 597 q 201 444 201 515 q 237 340 201 374 q 332 306 273 306 q 459 349 393 306 q 570 468 525 392 l 570 840 l -12 840 l -28 945 l 1225 945 l 1239 840 l 694 840 l 694 635 q 857 679 777 680 z "},"ख":{"ha":1137,"x_min":-28,"x_max":1165,"o":"m 983 0 l 859 0 l 859 157 q 733 86 804 111 q 579 62 661 62 q 372 107 475 62 q 184 245 269 153 q 53 469 100 338 l 122 555 q 271 507 208 543 q 283 608 283 539 l 283 840 l -12 840 l -28 945 l 1152 945 l 1165 840 l 983 840 l 983 0 m 408 840 l 408 597 q 372 414 408 474 q 232 351 335 354 q 368 219 282 264 q 549 174 453 174 q 702 207 631 174 q 815 305 772 240 q 859 457 859 370 q 824 580 859 535 q 730 625 789 625 q 657 600 688 625 q 627 534 627 575 q 741 428 627 450 l 713 338 q 562 416 616 357 q 507 546 507 475 q 564 676 507 631 q 704 722 621 722 q 859 682 786 722 l 859 840 l 408 840 z "},"ग":{"ha":855,"x_min":-28,"x_max":884,"o":"m 701 0 l 576 0 l 576 840 l 294 840 l 294 278 l 186 232 q 100 332 140 264 q 41 461 60 400 l 172 494 l 172 840 l -12 840 l -28 945 l 869 945 l 884 840 l 701 840 l 701 0 z "},"घ":{"ha":973,"x_min":-28,"x_max":1002,"o":"m 819 0 l 694 0 l 694 257 q 562 179 633 205 q 416 153 490 153 q 274 183 338 153 q 171 271 210 214 q 132 406 132 328 q 196 566 132 505 q 111 643 146 592 q 77 750 77 693 q 98 840 77 800 l -12 840 l -28 945 l 987 945 l 1002 840 l 819 840 l 819 0 m 321 840 q 235 814 268 840 q 201 743 201 789 q 223 674 201 707 q 285 616 244 642 q 437 639 347 639 l 496 639 l 513 534 l 452 534 q 317 500 371 534 q 264 399 264 467 q 403 264 264 264 q 562 317 481 264 q 694 456 643 370 l 694 840 l 321 840 z "},"ङ":{"ha":936,"x_min":-12,"x_max":964,"o":"m 511 453 q 547 456 536 456 q 656 427 610 456 q 727 352 703 399 q 751 250 751 306 q 670 55 751 124 q 460 -14 589 -14 q 234 45 336 -14 q 65 186 131 104 l 144 250 q 283 138 208 178 q 439 97 358 97 q 537 118 493 97 q 608 174 582 139 q 633 250 633 208 q 553 330 633 331 q 529 329 537 330 l 378 311 q 354 310 370 310 q 247 343 294 310 q 174 429 200 376 q 147 534 147 482 q 199 667 147 618 q 366 715 252 715 l 530 715 l 530 840 l 3 840 l -12 945 l 950 945 l 964 840 l 656 840 l 656 607 l 379 607 q 304 583 329 607 q 279 521 279 559 q 297 460 279 485 q 358 435 314 435 q 378 436 370 435 l 511 453 m 819 597 q 856 582 833 597 q 897 543 879 566 q 916 504 916 521 q 881 446 916 483 q 827 410 847 410 q 789 426 813 410 q 747 465 765 443 q 729 504 729 488 q 764 561 729 525 q 819 597 799 597 z "},"च":{"ha":998,"x_min":-28,"x_max":1026,"o":"m 844 0 l 720 0 l 720 260 q 597 186 665 211 q 461 161 529 161 q 312 194 380 161 q 201 288 243 227 q 160 431 160 349 q 176 519 160 479 q 215 583 192 559 l 41 583 l 25 688 l 539 688 l 555 583 l 472 583 q 342 539 393 583 q 292 424 292 496 q 331 311 292 352 q 444 271 371 271 q 598 321 526 271 q 720 460 669 371 l 720 840 l -12 840 l -28 945 l 1013 945 l 1026 840 l 844 840 l 844 0 z "},"छ":{"ha":1069,"x_min":-28,"x_max":1100,"o":"m 799 729 q 933 634 885 708 q 981 460 981 559 q 922 244 981 350 q 751 69 864 138 q 479 0 637 0 q 303 32 384 0 q 174 126 222 64 q 125 278 125 189 q 151 394 125 343 q 224 478 176 444 q 118 581 160 519 q 77 708 77 643 q 111 840 77 789 l -12 840 l -28 945 l 1086 945 l 1100 840 l 799 840 l 799 729 m 452 111 q 645 156 550 111 q 802 284 741 200 q 863 479 863 368 q 833 591 863 551 q 750 631 803 631 q 684 608 709 631 q 660 549 660 585 q 685 488 660 511 q 768 453 710 465 l 741 359 q 593 435 646 376 q 541 564 541 493 q 575 665 541 621 q 673 726 610 710 l 673 840 l 375 840 q 244 802 286 840 q 201 701 201 764 q 236 605 201 652 q 334 524 271 558 q 431 534 381 534 l 463 534 l 481 424 l 444 424 q 309 383 361 424 q 257 271 257 342 q 311 151 257 190 q 452 111 366 111 z "},"ज":{"ha":1144,"x_min":-28,"x_max":1173,"o":"m 990 0 l 865 0 l 865 557 l 593 557 q 701 431 662 494 q 741 313 741 368 q 710 207 741 253 q 626 136 679 161 q 511 111 574 111 q 286 192 380 111 q 138 393 192 272 q 66 639 83 514 l 164 668 q 287 350 207 471 q 484 229 367 229 q 572 260 536 229 q 608 334 608 292 q 429 575 608 437 l 429 668 l 865 668 l 865 840 l -12 840 l -28 945 l 1158 945 l 1173 840 l 990 840 l 990 0 z "},"झ":{"ha":1211,"x_min":-35,"x_max":1239,"o":"m 1057 332 l 1057 0 l 932 0 l 932 332 l 701 332 q 710 271 709 304 q 437 16 710 33 l 581 -143 l 479 -218 l 310 21 q 199 47 254 29 q 104 90 143 65 q 116 180 107 147 q 154 261 125 214 l 231 243 l 345 117 q 375 115 355 115 q 535 156 475 115 q 595 269 595 197 q 574 325 595 304 q 513 346 554 346 l 494 345 l 326 326 l 310 325 q 213 353 260 325 q 136 432 165 382 q 107 542 107 482 q 160 674 107 633 q 319 715 214 715 l 485 715 l 485 840 l -20 840 l -35 945 l 1225 945 l 1239 840 l 1057 840 l 1057 385 l 1064 332 l 1057 332 m 932 840 l 610 840 l 610 608 l 334 608 q 259 587 283 608 q 235 528 235 566 q 253 468 235 492 q 322 449 272 444 l 479 464 q 509 465 489 465 q 619 436 572 465 l 932 436 l 932 840 z "},"ञ":{"ha":1201,"x_min":-28,"x_max":1229,"o":"m 1047 0 l 922 0 l 922 361 l 779 361 q 689 210 761 262 q 514 158 616 158 q 327 200 422 158 q 154 326 231 243 q 37 524 77 410 l 129 574 q 280 352 186 433 q 472 271 374 271 q 565 294 524 271 q 629 355 606 317 q 653 437 653 393 q 620 553 653 517 q 528 590 586 590 q 363 536 463 590 l 296 640 q 401 685 345 669 q 514 701 457 701 q 637 673 579 701 q 735 593 696 646 q 782 465 774 541 l 922 465 l 922 840 l -12 840 l -28 945 l 1215 945 l 1229 840 l 1047 840 l 1047 0 z "},"ट":{"ha":821,"x_min":-21,"x_max":842,"o":"m 437 164 q 591 203 521 164 q 699 290 661 243 l 789 200 q 639 90 726 126 q 454 53 551 53 q 269 93 356 53 q 129 211 182 134 q 77 396 77 289 q 158 613 77 534 q 389 692 240 692 l 524 692 l 524 840 l -5 840 l -21 945 l 828 945 l 842 840 l 648 840 l 648 581 l 416 581 q 267 524 325 581 q 208 382 208 467 q 269 223 208 282 q 437 164 329 164 z "},"ठ":{"ha":897,"x_min":-35,"x_max":932,"o":"m 633 653 q 822 354 822 534 q 774 190 822 260 q 644 83 726 119 q 458 46 561 46 q 269 92 357 46 q 129 218 182 138 q 77 396 77 298 q 159 614 77 536 q 393 692 241 692 l 509 692 l 509 840 l -20 840 l -35 945 l 918 945 l 932 840 l 633 840 l 633 653 m 452 157 q 570 183 514 157 q 661 258 627 210 q 694 367 694 306 q 661 486 694 428 q 564 581 628 543 l 424 581 q 264 531 319 581 q 208 386 208 481 q 276 216 208 275 q 452 157 343 157 z "},"ड":{"ha":833,"x_min":-12,"x_max":864,"o":"m 511 453 q 547 456 536 456 q 656 427 610 456 q 727 352 703 399 q 751 250 751 306 q 670 55 751 124 q 460 -14 589 -14 q 234 45 336 -14 q 65 186 131 104 l 144 250 q 283 138 208 178 q 439 97 358 97 q 537 118 493 97 q 608 174 582 139 q 633 250 633 208 q 553 330 633 331 q 529 329 537 330 l 378 311 q 354 310 370 310 q 247 343 294 310 q 174 429 200 376 q 147 534 147 482 q 199 667 147 618 q 366 715 252 715 l 530 715 l 530 840 l 3 840 l -12 945 l 850 945 l 864 840 l 656 840 l 656 607 l 379 607 q 304 583 329 607 q 279 521 279 559 q 297 460 279 485 q 358 435 314 435 q 378 436 370 435 l 511 453 z "},"ढ":{"ha":861,"x_min":-35,"x_max":899,"o":"m 568 473 q 672 451 623 473 q 753 386 722 429 q 785 285 785 343 q 702 98 785 165 q 476 31 619 31 q 282 75 373 31 q 134 201 191 119 q 77 389 77 282 q 157 615 77 532 q 382 699 237 699 l 539 699 l 539 840 l -20 840 l -35 945 l 885 945 l 899 840 l 664 840 l 664 587 l 403 587 q 301 559 345 587 q 233 485 257 532 q 208 382 208 437 q 281 201 208 260 q 469 142 354 142 q 612 183 558 142 q 667 292 667 225 q 646 354 667 333 q 590 375 625 375 q 534 353 554 375 q 514 297 514 330 q 522 256 514 279 l 433 216 q 396 321 396 267 q 446 434 396 395 q 568 473 496 473 z "},"ण":{"ha":1123,"x_min":-28,"x_max":1152,"o":"m 970 0 l 844 0 l 844 840 l 625 840 l 625 500 q 565 302 625 368 q 375 236 504 236 q 172 308 249 236 q 94 501 94 379 l 94 840 l -12 840 l -28 945 l 1137 945 l 1152 840 l 970 840 l 970 0 m 220 840 l 220 488 q 253 379 220 411 q 361 347 286 347 q 464 393 427 347 q 500 514 500 439 l 500 840 l 220 840 z "},"त":{"ha":886,"x_min":-41,"x_max":914,"o":"m 732 0 l 607 0 l 607 534 l 357 534 q 251 496 288 534 q 215 400 215 457 q 347 28 215 258 l 261 -21 q 83 416 83 243 q 148 590 83 534 q 340 646 212 646 l 607 646 l 607 840 l -26 840 l -41 945 l 900 945 l 914 840 l 732 840 l 732 0 z "},"थ":{"ha":975,"x_min":66,"x_max":1003,"o":"m 811 0 l 686 0 l 686 297 q 567 236 631 257 q 441 215 504 215 q 276 252 354 215 q 145 361 199 289 q 75 534 92 433 q 376 772 376 615 q 349 845 376 820 q 283 869 322 869 q 215 846 245 869 q 184 786 184 823 q 218 700 184 745 l 135 657 q 84 722 102 684 q 66 800 66 761 q 123 927 66 882 q 268 972 180 972 q 388 943 337 972 q 466 863 439 913 q 493 753 493 812 q 421 577 493 659 q 205 446 350 496 q 418 326 267 326 q 563 366 492 326 q 686 476 633 406 l 686 840 l 582 840 l 567 945 l 989 945 l 1003 840 l 811 840 l 811 0 z "},"द":{"ha":847,"x_min":-49,"x_max":889,"o":"m 757 261 q 681 176 722 211 l 829 -29 l 711 -97 l 606 122 q 427 77 522 76 q 254 120 335 77 q 125 239 174 163 q 77 410 77 315 q 154 615 77 538 q 364 692 231 692 l 510 692 l 510 840 l -33 840 l -49 945 l 875 945 l 889 840 l 635 840 l 635 581 l 385 581 q 257 528 307 581 q 208 396 208 475 q 260 246 208 304 q 403 187 311 187 q 554 229 482 187 l 493 355 l 568 418 q 670 351 613 398 q 757 261 726 304 z "},"ध":{"ha":1002,"x_min":69,"x_max":1031,"o":"m 848 0 l 724 0 l 724 243 q 585 155 661 184 q 431 125 509 125 q 288 155 353 125 q 185 243 224 186 q 146 378 146 300 q 214 542 146 481 q 113 641 157 581 q 69 771 69 701 q 103 885 69 838 q 190 956 136 932 q 301 979 243 979 q 441 936 383 979 q 498 818 498 893 q 478 736 498 773 q 416 673 457 700 l 346 741 q 378 810 378 770 q 353 860 378 842 q 296 879 329 879 q 224 852 254 879 q 195 774 195 825 q 225 679 195 731 q 307 591 256 627 q 452 611 374 611 l 510 611 l 526 507 l 465 507 q 331 473 385 507 q 278 371 278 439 q 416 236 278 236 q 586 296 498 236 q 724 450 673 357 l 724 840 l 597 840 l 583 945 l 1017 945 l 1031 840 l 848 840 l 848 0 z "},"न":{"ha":855,"x_min":-28,"x_max":884,"o":"m 701 0 l 576 0 l 576 488 l 256 488 l 281 346 l 191 290 q 95 392 132 340 q 37 515 58 444 l 121 599 l 576 599 l 576 840 l -12 840 l -28 945 l 869 945 l 884 840 l 701 840 l 701 0 z "},"ऩ":{"ha":857,"x_min":-28,"x_max":884,"o":"m 701 0 l 576 0 l 576 488 l 256 488 l 281 346 l 191 290 q 95 392 132 340 q 37 515 58 444 l 121 599 l 576 599 l 576 840 l -12 840 l -28 945 l 869 945 l 884 840 l 701 840 l 701 0 m 167 118 q 204 102 181 118 q 245 64 227 86 q 263 25 263 42 q 229 -33 263 4 q 174 -69 195 -69 q 136 -53 160 -69 q 95 -14 113 -36 q 77 25 77 8 q 112 82 77 46 q 167 118 146 118 z "},"प":{"ha":829,"x_min":-28,"x_max":857,"o":"m 675 0 l 550 0 l 550 289 q 372 235 472 235 q 238 266 300 235 q 139 357 176 297 q 102 500 102 418 l 102 840 l -12 840 l -28 945 l 843 945 l 857 840 l 675 840 l 675 0 m 347 345 q 456 376 399 345 q 550 457 513 407 l 550 840 l 227 840 l 227 486 q 260 380 227 416 q 347 345 293 345 z "},"फ":{"ha":1221,"x_min":-28,"x_max":1249,"o":"m 857 661 q 995 631 932 661 q 1095 542 1057 600 q 1132 406 1132 484 q 1084 244 1132 323 q 947 96 1036 164 l 847 193 q 1000 419 1000 307 q 965 514 1000 480 q 873 549 929 549 q 769 519 822 549 q 675 432 717 489 l 675 0 l 550 0 l 550 289 q 372 235 472 235 q 238 266 300 235 q 139 357 176 297 q 102 500 102 418 l 102 840 l -12 840 l -28 945 l 1235 945 l 1249 840 l 675 840 l 675 606 q 857 661 766 661 m 347 345 q 456 376 399 345 q 550 457 513 407 l 550 840 l 227 840 l 227 486 q 260 380 227 416 q 347 345 293 345 z "},"ब":{"ha":935,"x_min":-28,"x_max":962,"o":"m 781 0 l 656 0 l 656 269 q 537 186 604 214 q 397 158 469 158 q 247 192 317 158 q 133 290 176 227 q 90 437 90 353 q 171 635 90 570 q 396 701 252 701 l 504 701 l 521 597 l 410 597 q 338 587 368 597 l 542 340 q 656 496 610 397 l 656 840 l -14 840 l -28 945 l 949 945 l 962 840 l 781 840 l 781 0 m 368 271 q 464 290 414 271 l 258 538 q 222 431 222 495 q 260 313 222 355 q 368 271 297 271 z "},"भ":{"ha":1047,"x_min":41,"x_max":1074,"o":"m 892 0 l 766 0 l 766 376 l 452 376 l 452 249 l 357 196 q 212 446 250 299 l 334 485 l 334 736 q 313 835 334 802 q 243 868 293 868 q 188 847 208 868 q 167 791 167 827 q 222 694 167 743 l 147 631 q 72 700 102 656 q 41 799 41 745 q 96 927 41 881 q 236 972 150 972 q 398 908 345 972 q 452 722 452 844 l 452 488 l 766 488 l 766 840 l 602 840 l 586 945 l 1060 945 l 1074 840 l 892 840 l 892 0 z "},"म":{"ha":905,"x_min":-21,"x_max":932,"o":"m 750 0 l 625 0 l 625 376 l 304 376 l 304 249 l 210 196 q 65 446 102 299 l 182 484 l 182 840 l -5 840 l -21 945 l 918 945 l 932 840 l 750 840 l 750 0 m 304 840 l 304 488 l 625 488 l 625 840 l 304 840 z "},"य":{"ha":907,"x_min":-21,"x_max":935,"o":"m 753 0 l 628 0 l 628 278 q 414 211 528 212 q 251 249 328 211 q 121 360 175 286 q 47 534 66 433 l 50 534 q 271 708 271 586 q 195 840 271 779 l -5 840 l -21 945 l 921 945 l 935 840 l 753 840 l 753 0 m 325 840 q 396 694 395 774 q 337 552 396 618 q 178 454 278 486 q 260 357 205 391 q 382 323 315 323 q 512 355 447 323 q 628 447 578 387 l 628 840 l 325 840 z "},"र":{"ha":562,"x_min":-28,"x_max":589,"o":"m 407 597 q 374 427 407 482 q 250 367 342 372 l 504 68 l 396 -21 l 49 465 l 126 558 q 273 504 210 546 q 282 608 281 534 l 282 840 l -12 840 l -28 945 l 575 945 l 589 840 l 407 840 l 407 597 z "},"ऱ":{"ha":562,"x_min":-28,"x_max":589,"o":"m 407 597 q 374 427 407 482 q 250 367 342 372 l 504 68 l 396 -21 l 49 465 l 126 558 q 273 504 210 546 q 282 608 281 534 l 282 840 l -12 840 l -28 945 l 575 945 l 589 840 l 407 840 l 407 597 m 118 118 q 155 102 132 118 q 196 64 178 86 q 214 25 214 42 q 180 -33 214 4 q 125 -69 146 -69 q 87 -53 111 -69 q 46 -14 64 -36 q 28 25 28 8 q 63 82 28 46 q 118 118 98 118 z "},"ल":{"ha":1103,"x_min":-28,"x_max":1131,"o":"m 949 0 l 823 0 l 823 575 q 753 590 789 591 q 634 518 676 590 q 593 334 593 447 l 593 304 l 475 319 l 475 347 q 498 521 475 450 q 441 576 476 555 q 368 597 407 597 q 263 546 302 597 q 225 414 225 494 q 437 56 225 233 l 358 -21 q 157 210 226 92 q 87 444 87 328 q 154 630 87 558 q 349 701 220 701 q 457 676 407 701 q 542 610 507 652 q 725 694 607 694 q 823 671 779 694 l 823 840 l -12 840 l -28 945 l 1117 945 l 1131 840 l 949 840 l 949 0 z "},"ळ":{"ha":1212,"x_min":-25,"x_max":1243,"o":"m 925 656 q 1093 556 1028 633 q 1158 364 1158 479 q 1123 216 1158 279 q 1026 119 1088 153 q 884 86 964 86 q 731 124 806 86 q 596 218 657 161 q 494 121 551 156 q 361 86 437 86 q 204 124 272 86 q 99 230 136 161 q 61 387 61 298 q 138 592 61 521 q 342 663 215 663 q 489 628 418 663 q 621 532 559 593 q 800 657 697 637 l 800 840 l -9 840 l -25 945 l 1229 945 l 1243 840 l 925 840 l 925 656 m 334 197 q 413 224 378 197 q 475 289 449 250 q 538 395 501 328 l 567 446 q 465 523 515 494 q 363 551 415 551 q 237 502 281 551 q 193 368 193 453 q 230 243 193 289 q 334 197 267 197 m 848 197 q 980 247 935 197 q 1026 382 1026 296 q 989 503 1026 454 q 882 551 951 551 q 800 525 836 551 q 740 460 765 498 q 676 351 714 421 l 650 304 q 757 226 711 254 q 848 197 803 197 z "},"ऴ":{"ha":1212,"x_min":-25,"x_max":1243,"o":"m 925 656 q 1093 556 1028 633 q 1158 364 1158 479 q 1123 216 1158 279 q 1026 119 1088 153 q 884 86 964 86 q 731 124 806 86 q 596 218 657 161 q 494 121 551 156 q 361 86 437 86 q 204 124 272 86 q 99 230 136 161 q 61 387 61 298 q 138 592 61 521 q 342 663 215 663 q 489 628 418 663 q 621 532 559 593 q 800 657 697 637 l 800 840 l -9 840 l -25 945 l 1229 945 l 1243 840 l 925 840 l 925 656 m 334 197 q 413 224 378 197 q 475 289 449 250 q 538 395 501 328 l 567 446 q 465 523 515 494 q 363 551 415 551 q 237 502 281 551 q 193 368 193 453 q 230 243 193 289 q 334 197 267 197 m 848 197 q 980 247 935 197 q 1026 382 1026 296 q 989 503 1026 454 q 882 551 951 551 q 800 525 836 551 q 740 460 765 498 q 676 351 714 421 l 650 304 q 757 226 711 254 q 848 197 803 197 m 611 93 q 648 77 625 93 q 689 39 671 61 q 707 0 707 17 q 673 -58 707 -21 q 618 -94 639 -94 q 581 -78 604 -94 q 539 -39 557 -61 q 521 0 521 -17 q 556 57 521 21 q 611 93 591 93 z "},"व":{"ha":928,"x_min":-35,"x_max":956,"o":"m 774 0 l 648 0 l 648 269 q 530 186 597 214 q 390 158 463 158 q 239 192 309 158 q 126 290 170 227 q 83 437 83 353 q 164 635 83 570 q 389 701 244 701 l 497 701 l 514 597 l 403 597 q 268 554 321 597 q 215 431 215 511 q 253 313 215 355 q 361 271 290 271 q 520 328 446 271 q 648 496 595 385 l 648 840 l -21 840 l -35 945 l 942 945 l 956 840 l 774 840 l 774 0 z "},"श":{"ha":1078,"x_min":49,"x_max":1105,"o":"m 615 673 q 542 426 615 524 q 354 300 469 328 l 526 110 l 414 18 l 235 294 q 49 364 135 305 q 67 450 52 412 q 111 528 83 488 l 170 504 l 260 404 q 437 494 378 410 q 497 699 497 578 q 462 824 497 774 q 361 873 427 873 q 283 844 311 873 q 256 772 256 814 q 282 695 256 731 q 357 647 309 660 l 329 554 q 182 640 233 578 q 131 777 131 703 q 157 873 131 828 q 234 945 183 918 q 354 972 285 972 q 496 931 437 972 q 585 822 555 890 q 615 673 615 754 m 924 0 l 798 0 l 798 840 l 633 840 l 618 945 l 1091 945 l 1105 840 l 924 840 l 924 0 z "},"ष":{"ha":829,"x_min":-28,"x_max":857,"o":"m 675 0 l 550 0 l 550 289 q 372 235 472 235 q 238 266 300 235 q 139 357 176 297 q 102 500 102 418 l 102 840 l -12 840 l -28 945 l 843 945 l 857 840 l 675 840 l 675 0 m 550 461 l 550 840 l 254 840 l 550 461 m 347 345 q 415 357 379 345 q 484 393 452 370 l 227 724 l 227 486 q 260 380 227 416 q 347 345 293 345 z "},"स":{"ha":1000,"x_min":-28,"x_max":1026,"o":"m 844 0 l 720 0 l 720 366 l 250 366 l 504 68 l 396 -21 l 49 465 l 126 558 q 273 504 210 546 q 282 608 281 534 l 282 840 l -12 840 l -28 945 l 1013 945 l 1026 840 l 844 840 l 844 0 m 407 840 l 407 597 q 395 476 407 527 l 720 476 l 720 840 l 407 840 z "},"ह":{"ha":819,"x_min":-28,"x_max":854,"o":"m 452 441 q 602 408 534 441 q 708 316 669 374 q 746 192 746 258 q 713 82 746 135 q 614 -9 681 29 l 546 90 q 604 146 583 114 q 625 210 625 178 q 585 297 625 264 q 472 330 545 330 q 315 282 370 330 q 260 153 260 233 q 304 20 260 83 q 439 -84 349 -43 q 663 -125 530 -125 l 648 -222 q 372 -166 490 -224 q 191 -20 254 -109 q 127 160 127 69 q 151 280 127 225 q 221 372 175 335 q 149 449 176 404 q 122 534 122 494 q 173 655 122 608 q 326 701 224 701 l 562 701 l 562 840 l -12 840 l -28 945 l 840 945 l 854 840 l 688 840 l 688 590 l 340 590 q 278 573 302 590 q 254 521 254 555 q 307 419 254 465 q 452 441 374 441 z "},"ऺ":{"ha":0,"x_min":-279,"x_max":-154,"o":"m -279 903 l -279 1139 l -154 1139 l -154 903 l -279 903 z "},"ऻ":{"ha":431,"x_min":-28,"x_max":460,"o":"m 278 0 l 153 0 l 153 840 l -12 840 l -28 945 l 153 945 l 153 1139 l 278 1139 l 278 945 l 446 945 l 460 840 l 278 840 l 278 0 z "},"़":{"ha":0,"x_min":90,"x_max":277,"o":"m 180 -139 q 217 -155 195 -139 q 258 -193 240 -171 q 277 -232 277 -215 q 242 -290 277 -253 q 187 -326 208 -326 q 150 -310 174 -326 q 108 -271 126 -293 q 90 -232 90 -249 q 125 -175 90 -211 q 180 -139 160 -139 z "},"ऽ":{"ha":809,"x_min":41,"x_max":720,"o":"m 267 771 q 312 672 267 717 q 454 566 358 628 q 592 466 539 510 q 682 362 644 422 q 720 229 720 302 q 682 99 720 154 q 580 16 644 45 q 435 -14 515 -14 q 251 34 332 -14 q 117 161 170 82 q 41 334 64 240 l 138 378 q 253 166 175 235 q 427 97 330 97 q 545 138 503 97 q 587 243 587 179 q 559 335 587 293 q 489 410 530 378 q 374 493 447 443 q 247 583 294 546 q 168 671 200 621 q 135 785 135 722 q 185 901 135 857 q 339 945 235 945 l 671 945 l 686 840 l 367 840 q 267 771 267 840 z "},"ा":{"ha":431,"x_min":-28,"x_max":460,"o":"m 278 0 l 153 0 l 153 840 l -12 840 l -28 945 l 446 945 l 460 840 l 278 840 l 278 0 z "},"ि":{"ha":433,"x_min":-28,"x_max":1022,"o":"m 389 1257 q 262 1219 310 1257 q 215 1111 215 1182 q 262 945 215 1040 l 446 945 l 460 840 l 278 840 l 278 0 l 153 0 l 153 840 l -12 840 l -28 945 l 158 945 q 90 1161 90 1071 q 162 1319 90 1263 q 353 1375 235 1375 q 676 1297 497 1375 q 1022 1079 854 1219 l 961 1008 q 655 1190 808 1124 q 389 1257 501 1257 z "},"ी":{"ha":433,"x_min":-370,"x_max":460,"o":"m 278 0 l 153 0 l 153 840 l -12 840 l -28 945 l 153 945 q 86 1122 132 1052 q -15 1224 40 1192 q -126 1257 -71 1257 q -212 1229 -179 1257 q -244 1150 -244 1202 q -222 1059 -244 1112 l -302 1025 q -353 1103 -336 1062 q -370 1183 -370 1145 q -306 1322 -370 1268 q -140 1375 -243 1375 q 19 1331 -60 1375 q 164 1191 97 1287 q 271 945 231 1095 l 446 945 l 460 840 l 278 840 l 278 0 z "},"ु":{"ha":0,"x_min":-667,"x_max":-29,"o":"m -233 14 q -79 -47 -129 14 q -29 -189 -29 -107 q -92 -338 -29 -278 q -275 -397 -155 -397 q -486 -338 -381 -397 q -667 -160 -591 -278 l -595 -111 q -447 -247 -534 -200 q -283 -294 -361 -294 q -178 -259 -208 -294 q -147 -180 -147 -224 q -170 -116 -147 -142 q -237 -90 -192 -90 q -351 -122 -289 -90 l -397 -31 q -233 14 -321 14 z "},"ू":{"ha":0,"x_min":-444,"x_max":168,"o":"m -218 9 q -6 -66 -107 9 q 168 -293 94 -142 l 90 -332 q -55 -155 22 -215 q -208 -94 -132 -94 q -295 -124 -264 -94 q -326 -203 -326 -154 q -296 -272 -326 -250 q -220 -293 -267 -293 q -135 -278 -178 -293 l -106 -378 q -218 -397 -161 -397 q -378 -346 -313 -397 q -444 -196 -444 -294 q -388 -48 -444 -106 q -218 9 -332 9 z "},"ृ":{"ha":0,"x_min":-435,"x_max":8,"o":"m -131 -57 q -310 -197 -310 -100 q -278 -267 -310 -237 q -196 -296 -245 -296 q -43 -243 -121 -296 l 8 -335 q -195 -400 -86 -400 q -322 -370 -269 -400 q -406 -289 -376 -339 q -435 -182 -435 -239 q -364 -28 -435 -85 q -164 39 -293 29 l -131 -57 z "},"ॄ":{"ha":0,"x_min":-419,"x_max":82,"o":"m -135 -56 q -309 -160 -309 -85 q -287 -209 -309 -191 q -233 -228 -265 -228 q -155 -214 -199 -228 q -75 -179 -111 -200 l -35 -269 q -176 -317 -98 -307 q -211 -396 -211 -355 q -184 -451 -211 -429 q -114 -472 -158 -472 q -40 -458 -81 -472 q 40 -418 1 -444 l 82 -509 q -19 -555 33 -541 q -114 -570 -71 -570 q -258 -525 -200 -570 q -315 -410 -315 -479 q -283 -311 -315 -363 q -382 -244 -346 -293 q -419 -139 -419 -196 q -387 -51 -419 -90 q -296 12 -355 -11 q -161 35 -237 35 l -135 -56 z "},"ॅ":{"ha":0,"x_min":-488,"x_max":65,"o":"m 65 1247 q -34 1084 37 1140 q -196 1028 -106 1028 q -360 1079 -282 1028 q -488 1226 -439 1131 l -411 1278 q -216 1146 -321 1145 q -121 1180 -162 1146 q -53 1289 -81 1214 l 65 1247 z "},"ॆ":{"ha":0,"x_min":-806,"x_max":-171,"o":"m -732 1397 q -698 1315 -714 1337 q -642 1276 -682 1292 q -530 1242 -597 1258 q -452 1223 -464 1226 l -335 1194 q -244 1153 -279 1179 q -190 1074 -210 1126 q -171 930 -171 1021 l -268 930 q -279 1006 -268 979 q -311 1048 -290 1034 q -370 1075 -332 1063 q -546 1124 -420 1092 q -679 1160 -635 1143 q -779 1245 -754 1187 q -806 1375 -803 1303 l -732 1397 z "},"े":{"ha":0,"x_min":-732,"x_max":-158,"o":"m -642 1375 q -483 1342 -546 1375 q -375 1253 -419 1308 q -260 1084 -330 1197 q -212 1011 -241 1058 q -158 930 -183 965 l -269 930 q -339 1032 -300 972 q -437 1165 -399 1120 q -530 1237 -475 1210 q -664 1264 -585 1264 l -710 1264 l -732 1375 l -642 1375 z "},"ै":{"ha":0,"x_min":-746,"x_max":-168,"o":"m -642 1450 q -465 1410 -532 1450 q -354 1299 -399 1371 q -236 1072 -310 1227 l -168 930 l -265 930 q -376 1059 -317 1018 q -506 1111 -436 1100 q -690 1122 -575 1122 l -724 1122 l -746 1234 l -667 1234 q -490 1211 -562 1234 q -367 1136 -418 1187 q -441 1254 -406 1211 q -529 1317 -476 1296 q -664 1339 -582 1339 l -710 1339 l -732 1450 l -642 1450 z "},"ॉ":{"ha":433,"x_min":-54,"x_max":498,"o":"m 278 0 l 153 0 l 153 840 l -12 840 l -28 945 l 446 945 l 460 840 l 278 840 l 278 0 m 498 1247 q 399 1084 471 1140 q 237 1028 328 1028 q 73 1079 151 1028 q -54 1226 -5 1131 l 22 1278 q 217 1146 113 1145 q 312 1180 271 1146 q 380 1289 353 1214 l 498 1247 z "},"ॊ":{"ha":431,"x_min":-371,"x_max":460,"o":"m 278 0 l 153 0 l 153 840 l -12 840 l -28 945 l 167 945 q 141 1032 164 1007 q 65 1075 118 1057 q -111 1124 15 1092 q -244 1160 -201 1143 q -344 1245 -319 1187 q -371 1375 -368 1303 l -297 1397 q -263 1315 -279 1337 q -207 1276 -248 1292 q -96 1242 -162 1258 q -17 1223 -29 1226 l 100 1194 q 188 1154 153 1179 q 242 1079 222 1129 q 264 945 262 1029 l 446 945 l 460 840 l 278 840 l 278 0 z "},"ो":{"ha":431,"x_min":-300,"x_max":460,"o":"m 278 0 l 153 0 l 153 840 l -12 840 l -28 945 l 153 945 q 93 1032 126 982 q -5 1165 33 1120 q -98 1237 -43 1210 q -232 1264 -153 1264 l -278 1264 l -300 1375 l -210 1375 q -51 1342 -114 1375 q 57 1253 12 1308 q 172 1086 102 1197 q 264 945 233 989 l 446 945 l 460 840 l 278 840 l 278 0 z "},"ौ":{"ha":431,"x_min":-313,"x_max":460,"o":"m 278 0 l 153 0 l 153 840 l -12 840 l -28 945 l 160 945 q 51 1063 110 1025 q -76 1112 -8 1101 q -257 1122 -144 1122 l -290 1122 l -313 1234 l -233 1234 q -57 1211 -129 1234 q 66 1136 16 1187 q -7 1254 28 1211 q -96 1317 -43 1296 q -231 1339 -149 1339 l -277 1339 l -298 1450 l -208 1450 q -32 1410 -98 1450 q 80 1298 35 1371 q 197 1074 125 1226 q 258 945 216 1032 l 446 945 l 460 840 l 278 840 l 278 0 z "},"्":{"ha":0,"x_min":-353,"x_max":49,"o":"m -14 -453 l -353 -168 l -271 -69 l 49 -379 l -14 -453 z "},"ॎ":{"ha":433,"x_min":154,"x_max":461,"o":"m 279 0 l 154 0 l 154 945 l 447 945 l 461 840 l 279 840 l 279 0 z "},"ॏ":{"ha":431,"x_min":-427,"x_max":460,"o":"m 278 0 l 153 0 l 153 840 l -12 840 l -28 945 l 153 945 q 111 975 137 964 q 31 994 85 985 q -113 1017 -32 1006 q -182 1027 -122 1018 q -288 1048 -241 1036 q -393 1120 -364 1069 q -427 1236 -422 1171 l -358 1255 q -323 1184 -342 1205 q -264 1154 -304 1164 q -192 1138 -236 1146 q -102 1124 -147 1131 q 45 1100 4 1108 q 189 1034 143 1078 q 93 1132 168 1100 q -61 1190 40 1156 q -191 1240 -154 1222 q -289 1419 -289 1291 q -288 1457 -289 1446 l -218 1471 q -194 1389 -208 1413 q -144 1348 -180 1365 q -1 1292 -102 1325 q 139 1239 106 1255 q 250 1156 218 1203 q 281 1025 281 1109 q 277 945 281 989 l 446 945 l 460 840 l 278 840 l 278 0 z "},"ॐ":{"ha":1433,"x_min":41,"x_max":1364,"o":"m 979 983 q 942 1000 965 983 q 900 1039 918 1017 q 882 1078 882 1061 q 917 1135 882 1099 q 972 1171 951 1171 q 1009 1155 986 1171 q 1050 1117 1032 1139 q 1068 1078 1068 1095 q 1034 1020 1068 1057 q 979 983 1000 983 m 999 764 q 834 815 913 764 q 707 962 755 867 l 783 1014 q 978 882 873 882 q 1073 916 1032 882 q 1141 1025 1114 950 l 1260 983 q 1161 820 1232 876 q 999 764 1089 764 m 1097 682 q 1237 648 1177 682 q 1331 552 1297 614 q 1364 411 1364 490 q 1280 206 1364 272 q 1051 140 1196 140 l 974 140 l 961 252 l 1043 252 q 1184 289 1136 252 q 1232 411 1232 326 q 1200 531 1232 492 q 1097 571 1168 571 q 1027 544 1055 571 q 961 461 999 517 q 909 390 932 416 q 852 344 886 363 q 771 325 818 325 l 718 325 q 720 298 720 317 q 639 115 720 182 q 435 49 558 49 q 251 97 332 49 q 117 223 170 144 q 41 396 64 302 l 138 440 q 253 229 175 297 q 427 160 330 160 q 545 201 503 160 q 587 313 587 243 q 471 489 587 422 q 318 452 408 467 l 283 562 q 476 626 403 585 q 549 743 549 668 q 511 829 549 799 q 407 860 473 860 q 221 812 323 860 l 175 922 q 406 972 290 972 q 550 938 489 972 q 642 848 611 904 q 673 729 673 793 q 572 539 673 610 q 685 429 646 494 l 736 429 q 793 451 770 429 q 848 524 817 473 q 907 604 879 572 q 983 659 936 636 q 1097 682 1029 682 z "},"॑":{"ha":0,"x_min":-264,"x_max":-167,"o":"m -264 1028 l -264 1430 l -167 1430 l -167 1028 l -264 1028 z "},"॒":{"ha":0,"x_min":-711,"x_max":-154,"o":"m -711 -257 l -711 -160 l -154 -160 l -154 -257 l -711 -257 z "},"॓":{"ha":0,"x_min":-486,"x_max":-98,"o":"m -160 1028 l -486 1287 l -416 1368 l -98 1099 l -160 1028 z "},"॔":{"ha":0,"x_min":-368,"x_max":21,"o":"m -306 1028 l -368 1097 l -49 1368 l 21 1284 l -306 1028 z "},"ॕ":{"ha":0,"x_min":-489,"x_max":64,"o":"m 64 1389 q -36 1225 36 1282 q -197 1169 -107 1169 q -362 1221 -283 1169 q -489 1368 -440 1272 l -412 1419 q -218 1287 -322 1287 q -123 1321 -164 1287 q -54 1430 -82 1356 l 64 1389 m -444 1013 l -460 1124 l 43 1124 l 58 1013 l -444 1013 z "},"ॖ":{"ha":0,"x_min":-954,"x_max":-269,"o":"m -269 -92 q -403 -242 -322 -192 q -579 -292 -484 -292 q -773 -242 -675 -292 q -954 -103 -872 -193 l -880 -41 q -741 -145 -812 -109 q -602 -180 -669 -180 q -473 -144 -532 -180 q -374 -35 -414 -107 l -269 -92 z "},"ॗ":{"ha":0,"x_min":-778,"x_max":-89,"o":"m -89 -82 q -215 -237 -132 -183 q -397 -292 -298 -292 q -593 -244 -494 -292 q -778 -103 -692 -197 l -704 -41 q -564 -144 -639 -108 q -418 -180 -489 -180 q -294 -144 -351 -180 q -201 -40 -237 -109 l -89 -82 m -89 -359 q -215 -515 -132 -461 q -397 -570 -298 -570 q -593 -522 -494 -570 q -778 -380 -692 -475 l -704 -319 q -564 -422 -639 -386 q -418 -458 -489 -458 q -294 -422 -351 -458 q -201 -318 -237 -386 l -89 -359 z "},"क़":{"ha":1211,"x_min":-28,"x_max":1239,"o":"m 857 679 q 995 648 932 679 q 1095 559 1057 618 q 1132 424 1132 501 q 1084 262 1132 342 q 947 114 1036 182 l 847 211 q 1000 437 1000 325 q 965 533 1000 498 q 873 567 929 567 q 780 543 827 567 q 694 473 733 519 l 694 0 l 570 0 l 570 277 q 463 214 521 235 q 346 192 406 192 q 208 223 272 192 q 106 314 144 254 q 68 454 68 374 q 146 633 68 566 q 382 701 224 701 l 488 701 l 500 597 l 390 597 q 253 556 305 597 q 201 444 201 515 q 237 340 201 374 q 332 306 273 306 q 459 349 393 306 q 570 468 525 392 l 570 840 l -12 840 l -28 945 l 1225 945 l 1239 840 l 694 840 l 694 635 q 857 679 777 680 m 208 118 q 245 102 222 118 q 286 64 268 86 q 304 25 304 41 q 270 -33 304 4 q 215 -69 236 -69 q 178 -53 201 -69 q 136 -14 154 -36 q 118 25 118 8 q 153 82 118 46 q 208 118 187 118 z "}}}
